<svg width="45" height="45" viewBox="0 0 45 45" fill="none" xmlns="http://www.w3.org/2000/svg">
<g clip-path="url(#clip0_0_38)">
<mask id="mask0_0_38" style="mask-type:luminance" maskUnits="userSpaceOnUse" x="0" y="0" width="45" height="45">
<path d="M45 22.5C45 10.0736 34.9264 0 22.5 0C10.0736 0 0 10.0736 0 22.5C0 34.9264 10.0736 45 22.5 45C34.9264 45 45 34.9264 45 22.5Z" fill="white"/>
</mask>
<g mask="url(#mask0_0_38)">
<path d="M37.0585 -0.661621H7.94083C3.18956 -0.661621 -0.662109 3.19005 -0.662109 7.94132V37.059C-0.662109 41.8102 3.18956 45.6619 7.94083 45.6619H37.0585C41.8097 45.6619 45.6614 41.8102 45.6614 37.059V7.94132C45.6614 3.19005 41.8097 -0.661621 37.0585 -0.661621Z" fill="white"/>
<path d="M37.0585 -0.661621H7.94083C3.18956 -0.661621 -0.662109 3.19005 -0.662109 7.94132V37.059C-0.662109 41.8102 3.18956 45.6619 7.94083 45.6619H37.0585C41.8097 45.6619 45.6614 41.8102 45.6614 37.059V7.94132C45.6614 3.19005 41.8097 -0.661621 37.0585 -0.661621Z" stroke="black"/>
<path fill-rule="evenodd" clip-rule="evenodd" d="M22.0712 1.32373C21.9711 10.0359 21.4014 14.9116 18.1563 18.1568C14.9111 21.4019 10.0354 21.9716 1.32324 22.0716V23.336C10.0354 23.4359 14.9111 24.0057 18.1563 27.2509C21.3505 30.4451 21.9526 35.2192 22.0661 43.6767H23.3405C23.454 35.2192 24.056 30.4451 27.2504 27.2509C30.4446 24.0565 35.2187 23.4545 43.6762 23.341V22.0665C35.2187 21.9531 30.4446 21.351 27.2504 18.1568C24.0052 14.9116 23.4354 10.0359 23.3355 1.32373H22.0712Z" fill="black"/>
</g>
<path d="M44.3386 22.4999C44.3386 10.4389 34.5613 0.661621 22.5003 0.661621C10.4394 0.661621 0.662109 10.4389 0.662109 22.4999C0.662109 34.5608 10.4394 44.3381 22.5003 44.3381C34.5613 44.3381 44.3386 34.5608 44.3386 22.4999Z" stroke="white"/>
</g>
<defs>
<clipPath id="clip0_0_38">
<rect width="45" height="45" fill="white"/>
</clipPath>
</defs>
</svg>
