<svg width="45" height="45" viewBox="0 0 45 45" fill="none" xmlns="http://www.w3.org/2000/svg">
<g clip-path="url(#clip0_0_47)">
<path d="M44.3386 22.4999C44.3386 10.4389 34.5613 0.661621 22.5003 0.661621C10.4394 0.661621 0.662109 10.4389 0.662109 22.4999C0.662109 34.5608 10.4394 44.3381 22.5003 44.3381C34.5613 44.3381 44.3386 34.5608 44.3386 22.4999Z" fill="black"/>
<path d="M44.3386 22.4999C44.3386 10.4389 34.5613 0.661621 22.5003 0.661621C10.4394 0.661621 0.662109 10.4389 0.662109 22.4999C0.662109 34.5608 10.4394 44.3381 22.5003 44.3381C34.5613 44.3381 44.3386 34.5608 44.3386 22.4999Z" stroke="white"/>
<path d="M44.1522 22.6545C44.0671 34.6126 34.3042 44.2375 22.346 44.1524C10.3879 44.0673 0.762918 34.3043 0.848051 22.3462C0.933184 10.3881 10.6962 0.763105 22.6543 0.848238C34.6125 0.933371 44.2373 10.6963 44.1522 22.6545ZM23.3164 16.8384C21.2043 17.6994 16.9823 19.4824 10.6508 22.1875C9.62289 22.5878 9.08312 22.9827 9.03148 23.3722C8.94417 24.0306 9.7675 24.2959 10.8887 24.6573C11.0412 24.7064 11.1992 24.7573 11.3612 24.8113C12.4641 25.1786 13.9483 25.6095 14.7213 25.6317C15.4224 25.6519 16.2072 25.3683 17.0755 24.781C23.0013 20.8421 26.06 18.8517 26.2514 18.8096C26.3864 18.78 26.5736 18.7427 26.6995 18.8562C26.8252 18.9697 26.8112 19.1826 26.7974 19.2398C26.7132 19.5876 23.4526 22.576 21.7654 24.1223C21.2393 24.6044 20.8662 24.9465 20.7898 25.0245C20.6189 25.1997 20.4446 25.3653 20.2773 25.5243C19.2431 26.5071 18.4677 27.2441 20.2989 28.4696C21.179 29.0586 21.8831 29.5454 22.5855 30.0311C23.3526 30.5616 24.1178 31.0907 25.1079 31.7498C25.3601 31.9178 25.6009 32.092 25.8355 32.2618C26.728 32.9077 27.5299 33.488 28.5263 33.4035C29.1052 33.3543 29.7068 32.8146 30.0217 31.1942C30.7664 27.3647 32.2355 19.0663 32.5857 15.645C32.6164 15.3452 32.5832 14.961 32.5555 14.7923C32.5279 14.6236 32.4694 14.3831 32.2516 14.2038C31.9936 13.9915 31.5935 13.9442 31.4143 13.9461C30.5998 13.9546 29.3473 14.3801 23.3164 16.8384Z" fill="white"/>
</g>
<defs>
<clipPath id="clip0_0_47">
<rect width="45" height="45" fill="white"/>
</clipPath>
</defs>
</svg>
