<svg width="45" height="45" viewBox="0 0 45 45" fill="none" xmlns="http://www.w3.org/2000/svg">
<g clip-path="url(#clip0_0_51)">
<mask id="mask0_0_51" style="mask-type:luminance" maskUnits="userSpaceOnUse" x="0" y="0" width="45" height="45">
<path d="M45 22.5C45 10.0736 34.9264 0 22.5 0C10.0736 0 0 10.0736 0 22.5C0 34.9264 10.0736 45 22.5 45C34.9264 45 45 34.9264 45 22.5Z" fill="white"/>
</mask>
<g mask="url(#mask0_0_51)">
<path d="M37.0585 -0.661621H7.94083C3.18956 -0.661621 -0.662109 3.19005 -0.662109 7.94132V37.059C-0.662109 41.8102 3.18956 45.6619 7.94083 45.6619H37.0585C41.8097 45.6619 45.6614 41.8102 45.6614 37.059V7.94132C45.6614 3.19005 41.8097 -0.661621 37.0585 -0.661621Z" fill="white"/>
<path d="M37.0585 -0.661621H7.94083C3.18956 -0.661621 -0.662109 3.19005 -0.662109 7.94132V37.059C-0.662109 41.8102 3.18956 45.6619 7.94083 45.6619H37.0585C41.8097 45.6619 45.6614 41.8102 45.6614 37.059V7.94132C45.6614 3.19005 41.8097 -0.661621 37.0585 -0.661621Z" stroke="black"/>
<path d="M35.4759 32.3858H32.4556C31.3134 32.3858 30.9693 31.4606 28.9218 29.4118C27.1324 27.6873 26.3766 27.4728 25.924 27.4728C25.2979 27.4728 25.1272 27.6449 25.1272 28.5065V31.2224C25.1272 31.957 24.889 32.3871 22.9699 32.3871C21.108 32.262 19.3026 31.6964 17.7022 30.7368C16.1018 29.7772 14.7522 28.4512 13.7647 26.868C11.4199 23.9496 9.78844 20.5243 9 16.8648C9 16.4121 9.17206 16.0018 10.035 16.0018H13.0526C13.8282 16.0018 14.1075 16.3473 14.4119 17.1453C15.8771 21.4574 18.3772 25.2083 19.3924 25.2083C19.7815 25.2083 19.9509 25.0362 19.9509 24.0661V19.6243C19.8225 17.598 18.7465 17.4273 18.7465 16.694C18.7601 16.5005 18.8485 16.32 18.9932 16.1908C19.1377 16.0615 19.327 15.9937 19.5207 16.0018H24.2643C24.9128 16.0018 25.1272 16.3248 25.1272 17.1003V23.0959C25.1272 23.7431 25.4051 23.9576 25.601 23.9576C25.9901 23.9576 26.2893 23.7431 27.0026 23.0311C28.5319 21.1662 29.7811 19.0884 30.7112 16.8634C30.8063 16.5962 30.9863 16.3675 31.2236 16.2123C31.461 16.0569 31.7425 15.9834 32.0254 16.0031H35.0444C35.9497 16.0031 36.1416 16.4558 35.9497 17.1017C34.8517 19.5613 33.493 21.8962 31.8971 24.0661C31.5715 24.5624 31.4418 24.8205 31.8971 25.4028C32.1962 25.8555 33.255 26.7396 33.9657 27.5801C35.0007 28.6124 35.8597 29.8062 36.5096 31.1139C36.769 31.9556 36.3375 32.3858 35.4759 32.3858Z" fill="black"/>
</g>
<path d="M44.3386 22.4999C44.3386 10.4389 34.5613 0.661621 22.5003 0.661621C10.4394 0.661621 0.662109 10.4389 0.662109 22.4999C0.662109 34.5608 10.4394 44.3381 22.5003 44.3381C34.5613 44.3381 44.3386 34.5608 44.3386 22.4999Z" stroke="white"/>
</g>
<defs>
<clipPath id="clip0_0_51">
<rect width="45" height="45" fill="white"/>
</clipPath>
</defs>
</svg>
