<svg width="45" height="45" viewBox="0 0 45 45" fill="none" xmlns="http://www.w3.org/2000/svg">
<g clip-path="url(#clip0_46_2)">
<path d="M44.5 22.5C44.5 10.3497 34.6503 0.5 22.5 0.5C10.3497 0.5 0.5 10.3497 0.5 22.5C0.5 34.6503 10.3497 44.5 22.5 44.5C34.6503 44.5 44.5 34.6503 44.5 22.5Z" fill="white"/>
<g clip-path="url(#clip1_46_2)">
<path fill-rule="evenodd" clip-rule="evenodd" d="M19.1838 26.6205V18.764C21.9729 20.0764 24.133 21.3442 26.6878 22.711C24.5807 23.8796 21.9729 25.1908 19.1838 26.6205ZM34.7274 14.8565C34.2463 14.2227 33.4263 13.7293 32.5533 13.5659C29.9874 13.0787 13.9794 13.0773 11.4148 13.5659C10.7148 13.6972 10.0914 14.0144 9.55587 14.5072C7.29949 16.6015 8.00653 27.8323 8.55041 29.6516C8.77911 30.439 9.07477 31.0069 9.44711 31.3797C9.92683 31.8725 10.5837 32.2119 11.3381 32.3641C13.4508 32.8011 24.3353 33.0454 32.5087 32.4297C33.2617 32.2985 33.9283 31.9482 34.4541 31.4344C36.5403 29.3485 36.3981 17.4869 34.7274 14.8565Z" fill="black"/>
</g>
</g>
<defs>
<clipPath id="clip0_46_2">
<rect width="45" height="45" fill="white"/>
</clipPath>
<clipPath id="clip1_46_2">
<rect width="28" height="28" fill="white" transform="translate(8 9)"/>
</clipPath>
</defs>
</svg>
