<svg width="24" height="25" viewBox="0 0 24 25" fill="none" xmlns="http://www.w3.org/2000/svg">
<path d="M3 0.0859375C1.34315 0.0859375 0 1.42908 0 3.08594V21.0859C0 22.7428 1.34315 24.0859 3 24.0859H21C22.6569 24.0859 24 22.7428 24 21.0859V3.08594C24 1.42908 22.6569 0.0859375 21 0.0859375H3ZM18.0455 7.54044C18.4794 7.97439 18.4848 8.67466 18.0615 9.11515L12.0731 16.6005C12.0645 16.6113 12.0553 16.6216 12.0455 16.6314C11.6061 17.0708 10.8938 17.0708 10.4545 16.6314L6.48482 12.6618C6.04548 12.2224 6.04548 11.5101 6.48482 11.0708C6.92416 10.6314 7.63647 10.6314 8.07581 11.0708L11.2161 14.2111L16.4247 7.57409C16.4339 7.56229 16.4439 7.55105 16.4545 7.54044C16.8938 7.1011 17.6061 7.1011 18.0455 7.54044Z" fill="black"/>
</svg>
