<svg width="392" height="380" viewBox="0 0 392 380" fill="none" xmlns="http://www.w3.org/2000/svg">
<path d="M114.466 241.948C114.466 249.165 106.647 255.079 96.9578 255.079C87.2684 255.079 79.4501 249.215 79.4501 241.948" stroke="white" stroke-width="4" stroke-linecap="round" stroke-linejoin="round"/>
<path d="M316.868 338V308.07H340.046C340.5 308.07 340.63 308.07 341.15 308.07C353.939 307.681 363.873 297.683 363.873 285.412V241.264H376.662C384.908 241.264 388.998 241.264 389.128 238.472L388.998 237.174L360.627 141.931L361.146 143.879C352.9 112.067 329.983 85.7725 299.274 72.0737C284.536 65.1918 268.24 61.6211 250.971 61.6211C188.255 61.6211 137.68 110.314 137.42 170.108C137.42 200.038 147.158 236.85 192.085 248.146C196.565 249.25 199.357 254.054 198.318 258.404L183.515 337.805" fill="black"/>
<path d="M316.868 338V308.07H340.046C340.5 308.07 340.63 308.07 341.15 308.07C353.939 307.681 363.873 297.683 363.873 285.412V241.264H376.662C384.908 241.264 388.998 241.264 389.128 238.472L388.998 237.174L360.627 141.931L361.146 143.879C352.9 112.067 329.983 85.7725 299.274 72.0737C284.536 65.1918 268.24 61.6211 250.971 61.6211C188.255 61.6211 137.68 110.314 137.42 170.108C137.42 200.038 147.158 236.85 192.085 248.146C196.565 249.25 199.357 254.054 198.318 258.404L183.515 337.805" stroke="white" stroke-width="4" stroke-miterlimit="10" stroke-linecap="round"/>
<path d="M252.012 338V308.07H275.189C275.644 308.07 275.774 308.07 276.293 308.07C289.083 307.681 299.017 297.683 299.017 285.412V241.264H311.806C320.052 241.264 324.142 241.264 324.272 238.472L324.142 237.174L295.77 141.931L296.29 143.879C288.044 112.067 265.127 85.7725 234.418 72.0737C219.68 65.1918 203.384 61.6211 186.115 61.6211C123.399 61.6211 72.8233 110.314 72.5636 170.108C72.5636 200.038 82.3022 236.85 127.229 248.146C131.709 249.25 134.501 254.054 133.462 258.404L118.659 337.805" fill="black"/>
<path d="M252.012 338V308.07H275.189C275.644 308.07 275.774 308.07 276.293 308.07C289.083 307.681 299.017 297.683 299.017 285.412V241.264H311.806C320.052 241.264 324.142 241.264 324.272 238.472L324.142 237.174L295.77 141.931L296.29 143.879C288.044 112.067 265.127 85.7725 234.418 72.0737C219.68 65.1918 203.384 61.6211 186.115 61.6211C123.399 61.6211 72.8233 110.314 72.5636 170.108C72.5636 200.038 82.3022 236.85 127.229 248.146C131.709 249.25 134.501 254.054 133.462 258.404L118.659 337.805" stroke="white" stroke-width="4" stroke-miterlimit="10" stroke-linecap="round"/>
<path d="M187.151 338V308.07H210.329C210.783 308.07 210.913 308.07 211.433 308.07C224.222 307.681 234.156 297.683 234.156 285.412V241.264H246.946C255.191 241.264 259.281 241.264 259.411 238.472L259.281 237.174L230.91 141.931L231.429 143.879C223.184 112.067 200.266 85.7725 169.557 72.0737C154.82 65.1918 138.524 61.6211 121.254 61.6211C58.5381 61.6211 7.96282 110.314 7.70312 170.108C7.70312 200.038 17.4415 236.85 62.3685 248.146C66.8482 249.25 69.6401 254.054 68.6013 258.404L53.7988 337.805" fill="black"/>
<path d="M187.151 338V308.07H210.329C210.783 308.07 210.913 308.07 211.433 308.07C224.222 307.681 234.156 297.683 234.156 285.412V241.264H246.946C255.191 241.264 259.281 241.264 259.411 238.472L259.281 237.174L230.91 141.931L231.429 143.879C223.184 112.067 200.266 85.7725 169.557 72.0737C154.82 65.1918 138.524 61.6211 121.254 61.6211C58.5381 61.6211 7.96282 110.314 7.70312 170.108C7.70312 200.038 17.4415 236.85 62.3685 248.146C66.8482 249.25 69.6401 254.054 68.6013 258.404L53.7988 337.805" stroke="white" stroke-width="4" stroke-miterlimit="10" stroke-linecap="round"/>
<path d="M202.004 163.163C202.004 172.786 194.186 180.671 184.496 180.671C174.807 180.671 166.988 172.853 166.988 163.163" stroke="white" stroke-width="4" stroke-linecap="round" stroke-linejoin="round"/>
</svg>
