<svg width="290" height="335" viewBox="0 0 290 335" fill="none" xmlns="http://www.w3.org/2000/svg">
<path d="M158.308 318H159.462V314.25L160.231 312.375C161 311.25 161 310.5 161 309.375V309H159.846V309.375C159.846 310.125 159.462 310.875 159.077 311.625L158.308 313.125L157.923 312C157.538 311.25 157.154 310.5 157.154 309.75V309.375H156V309.75C156 310.5 156.385 311.625 156.769 312.75L157.538 314.625V318H158.308Z" fill="white"/>
<path d="M41 181L90 165.184L41 149" stroke="white" stroke-width="4" stroke-miterlimit="10" stroke-linecap="round" stroke-linejoin="round"/>
<path d="M48 185C45.4545 178.033 44 170.7 44 163C44 155.3 45.4545 147.967 48 141" stroke="white" stroke-width="4" stroke-miterlimit="10" stroke-linecap="round" stroke-linejoin="round"/>
<path d="M157 19C156.273 19 153 74.8362 153 77.0117C153 79.1871 154.818 81 157 81C159.182 81 161 79.1871 161 77.0117C161 75.1988 157.727 19 157 19Z" stroke="white" stroke-width="4" stroke-miterlimit="10" stroke-linecap="round" stroke-linejoin="round"/>
<path d="M112 165H125" stroke="#E20613" stroke-width="4" stroke-miterlimit="10" stroke-linecap="round" stroke-linejoin="round"/>
<path d="M186 165H199" stroke="#E20613" stroke-width="4" stroke-miterlimit="10" stroke-linecap="round" stroke-linejoin="round"/>
<path d="M240 160L232 164.68L240 169V160Z" fill="#44AC34"/>
<path d="M214 176V179H215.125V178H221.875V179H223V176H221.875V177H215.125V176H214Z" fill="white"/>
<path d="M214.348 170.333V171H216.783L220.957 173.333C219.217 173.333 217.826 173 216.783 173H214V174H222V173L217.478 170.667C219.217 170.667 220.609 171 221.652 171H222V170H214.348V170.333Z" fill="white"/>
<path d="M215 167V168H223V166.333C223 165.667 222.652 165 222.304 164.667C221.957 164.333 221.261 164 220.913 164C220.217 164 219.522 164.333 219.174 164.667C218.826 165 218.478 165.667 218.478 166V166.667H215V167ZM219.522 167V166.333C219.522 166 219.522 165.667 219.87 165.333C220.217 165 220.565 165 220.913 165C221.261 165 221.609 165 221.957 165.333C222.304 165.667 222.304 165.667 222.304 166.333V167H219.522Z" fill="white"/>
<path d="M217.435 159C216.739 159 216.043 159.333 215.696 159.667C215.348 160 215 160.333 215 161C215 161.667 215.348 162 215.696 162.333C216.043 162.667 216.739 163 217.435 163H223V162H217.435C216.739 162 216.391 162 216.043 161.667C215.696 161.333 215.696 161.333 215.696 161C215.696 160.667 215.696 160.333 216.043 160.333C216.391 160 216.739 160 217.435 160H223V159H217.435Z" fill="white"/>
<path d="M157 244V294" stroke="white" stroke-width="4" stroke-linecap="round" stroke-linejoin="round"/>
<path d="M161 245L156.5 237L152 245H161Z" fill="white"/>
<path d="M156 109V123" stroke="#E20613" stroke-width="4" stroke-miterlimit="10" stroke-linecap="round" stroke-linejoin="round"/>
<path d="M156 205V219" stroke="#E20613" stroke-width="4" stroke-miterlimit="10" stroke-linecap="round" stroke-linejoin="round"/>
<path d="M127 193L115 205" stroke="#E20613" stroke-width="4" stroke-miterlimit="10" stroke-linecap="round" stroke-linejoin="round"/>
<path d="M116 124L127 135" stroke="#E20613" stroke-width="4" stroke-miterlimit="10" stroke-linecap="round" stroke-linejoin="round"/>
<path d="M181 193L192 205" stroke="#E20613" stroke-width="4" stroke-miterlimit="10" stroke-linecap="round" stroke-linejoin="round"/>
<path d="M192 124L181 135" stroke="#E20613" stroke-width="4" stroke-miterlimit="10" stroke-linecap="round" stroke-linejoin="round"/>
<path d="M69 99H61" stroke="white" stroke-width="4" stroke-miterlimit="10" stroke-linecap="round" stroke-linejoin="round"/>
<path d="M69 191H61" stroke="white" stroke-width="4" stroke-miterlimit="10" stroke-linecap="round" stroke-linejoin="round"/>
<path d="M69 283H61" stroke="white" stroke-width="4" stroke-miterlimit="10" stroke-linecap="round" stroke-linejoin="round"/>
<path d="M105 52C119.909 41.0909 137.727 36 157 36C176.273 36 194.091 41.0909 209 52" stroke="white" stroke-width="4" stroke-miterlimit="10" stroke-linecap="round" stroke-linejoin="round"/>
<path d="M83.8177 333V297.276H57.3899C57.0279 297.276 56.6658 297.276 56.3038 297.276C41.8228 296.911 30.6 284.881 30.6 269.935V249.521V217.078H16.119C6.70634 217.078 2.00001 217.078 2.00001 213.797V212.339L34.2203 97.8746L33.4962 100.426C42.9089 62.1501 68.9747 30.8 103.729 14.3959C120.382 6.0116 138.846 2.0017 158.757 2.0017C230.076 1.63716 287.638 59.9628 288 131.776C288 167.501 276.777 211.974 225.732 225.462C220.663 226.92 217.405 232.388 218.853 237.856L235.506 333" stroke="white" stroke-width="4" stroke-miterlimit="10" stroke-linecap="round"/>
<path d="M169 168C166.791 168 165 166.209 165 164C165 161.791 166.791 160 169 160C171.209 160 173 161.791 173 164C173 166.209 171.209 168 169 168Z" stroke="white" stroke-width="4" stroke-miterlimit="10" stroke-linecap="round" stroke-linejoin="round"/>
<path d="M162 182C159.791 182 158 180.209 158 178C158 175.791 159.791 174 162 174C164.209 174 166 175.791 166 178C166 180.209 164.209 182 162 182Z" stroke="white" stroke-width="4" stroke-miterlimit="10" stroke-linecap="round" stroke-linejoin="round"/>
<path d="M148 182C145.791 182 144 180.209 144 178C144 175.791 145.791 174 148 174C150.209 174 152 175.791 152 178C152 180.209 150.209 182 148 182Z" stroke="white" stroke-width="4" stroke-miterlimit="10" stroke-linecap="round" stroke-linejoin="round"/>
<path d="M162 155C159.791 155 158 153.209 158 151C158 148.791 159.791 147 162 147C164.209 147 166 148.791 166 151C166 153.209 164.209 155 162 155Z" stroke="white" stroke-width="4" stroke-miterlimit="10" stroke-linecap="round" stroke-linejoin="round"/>
<path d="M148 155C145.791 155 144 153.209 144 151C144 148.791 145.791 147 148 147C150.209 147 152 148.791 152 151C152 153.209 150.209 155 148 155Z" stroke="white" stroke-width="4" stroke-miterlimit="10" stroke-linecap="round" stroke-linejoin="round"/>
<path d="M155 168C152.791 168 151 166.209 151 164C151 161.791 152.791 160 155 160C157.209 160 159 161.791 159 164C159 166.209 157.209 168 155 168Z" stroke="white" stroke-width="4" stroke-miterlimit="10" stroke-linecap="round" stroke-linejoin="round"/>
<path d="M141 168C138.791 168 137 166.209 137 164C137 161.791 138.791 160 141 160C143.209 160 145 161.791 145 164C145 166.209 143.209 168 141 168Z" stroke="white" stroke-width="4" stroke-miterlimit="10" stroke-linecap="round" stroke-linejoin="round"/>
<path d="M161 154L157 160" stroke="white" stroke-width="4" stroke-miterlimit="10" stroke-linecap="round" stroke-linejoin="round"/>
<path d="M153 168L149 174" stroke="white" stroke-width="4" stroke-miterlimit="10" stroke-linecap="round" stroke-linejoin="round"/>
<path d="M149 154L153 160" stroke="white" stroke-width="4" stroke-miterlimit="10" stroke-linecap="round" stroke-linejoin="round"/>
<path d="M157 168L161 174" stroke="white" stroke-width="4" stroke-miterlimit="10" stroke-linecap="round" stroke-linejoin="round"/>
<path d="M165 164H159" stroke="white" stroke-width="4" stroke-miterlimit="10" stroke-linecap="round" stroke-linejoin="round"/>
<path d="M151 164H145" stroke="white" stroke-width="4" stroke-miterlimit="10" stroke-linecap="round" stroke-linejoin="round"/>
</svg>
