<svg width="103" height="99" viewBox="0 0 103 99" fill="none" xmlns="http://www.w3.org/2000/svg">
<path d="M69.5424 22.6095C75.2354 22.6095 79.8509 17.9957 79.8509 12.3045C79.8509 6.61365 75.2354 2 69.5424 2C63.849 2 59.2335 6.61365 59.2335 12.3045C59.2335 17.9957 63.849 22.6095 69.5424 22.6095Z" fill="white" stroke="white" stroke-width="3"/>
<path d="M50.9868 58.6812C56.6798 58.6812 61.2954 54.0678 61.2954 48.3766C61.2954 42.6858 56.6798 38.072 50.9868 38.072C45.2934 38.072 40.6779 42.6858 40.6779 48.3766C40.6779 54.0678 45.2934 58.6812 50.9868 58.6812Z" stroke="white" stroke-width="3"/>
<path d="M91.1915 58.6812C96.8849 58.6812 101.5 54.0678 101.5 48.3766C101.5 42.6858 96.8849 38.072 91.1915 38.072C85.4982 38.072 80.883 42.6858 80.883 48.3766C80.883 54.0678 85.4982 58.6812 91.1915 58.6812Z" fill="white" stroke="white" stroke-width="3"/>
<path d="M69.5424 95.784C75.2354 95.784 79.8509 91.1706 79.8509 85.4794C79.8509 79.7882 75.2354 75.1748 69.5424 75.1748C63.849 75.1748 59.2335 79.7882 59.2335 85.4794C59.2335 91.1706 63.849 95.784 69.5424 95.784Z" stroke="white" stroke-width="3"/>
<path d="M31.3975 96.8144C37.091 96.8144 41.7061 92.2007 41.7061 86.5098C41.7061 80.8186 37.091 76.2049 31.3975 76.2049C25.7043 76.2049 21.0889 80.8186 21.0889 86.5098C21.0889 92.2007 25.7043 96.8144 31.3975 96.8144Z" stroke="white" stroke-width="3"/>
<path d="M11.8086 58.6812C17.5019 58.6812 22.1172 54.0678 22.1172 48.3766C22.1172 42.6858 17.5019 38.072 11.8086 38.072C6.11531 38.072 1.5 42.6858 1.5 48.3766C1.5 54.0678 6.11531 58.6812 11.8086 58.6812Z" stroke="white" stroke-width="3"/>
<path d="M31.3975 22.6095C37.091 22.6095 41.7061 17.9957 41.7061 12.3045C41.7061 6.61365 37.091 2 31.3975 2C25.7043 2 21.0889 6.61365 21.0889 12.3045C21.0889 17.9957 25.7043 22.6095 31.3975 22.6095Z" stroke="white" stroke-width="3"/>
<path d="M65.2727 22.1042L54.9641 39.6222" stroke="white" stroke-width="3"/>
<path d="M45.7036 58.1539L35.3947 76.7027" stroke="white" stroke-width="3"/>
<path d="M81.9133 48.3777H61.2958" stroke="white" stroke-width="3"/>
<path d="M41.7088 48.3777H21.0916" stroke="white" stroke-width="3"/>
<path d="M35.392 21.0732L45.4285 38.7485" stroke="white" stroke-width="3"/>
<path d="M54.9801 58.1759L65.0165 75.8512" stroke="white" stroke-width="3"/>
</svg>
