<svg width="214" height="47" viewBox="0 0 214 47" fill="none" xmlns="http://www.w3.org/2000/svg">
<path d="M89.1061 35.6082H74.6318V32.6513H80.1478V7.42118H76.216V4.46362H83.5902V32.6513H89.1061V35.6082Z" fill="#1D1D1B"/>
<path d="M106.888 25.6148V22.4607C106.888 19.7272 106.487 17.8377 105.685 16.7936C104.883 15.7481 103.856 15.226 102.604 15.226C101.352 15.226 100.328 15.7481 99.5332 16.7936C98.7369 17.8377 98.3398 19.7272 98.3398 22.4607V25.6148C98.3398 28.3484 98.7369 30.2379 99.5332 31.282C100.328 32.3275 101.352 32.8495 102.604 32.8495C103.856 32.8495 104.882 32.3275 105.685 31.282C106.486 30.2372 106.888 28.3477 106.888 25.6148ZM110.33 25.6148C110.33 29.1501 109.609 31.7646 108.169 33.4603C106.728 35.1554 104.873 36.0029 102.604 36.0029C100.335 36.0029 98.4832 35.1554 97.0486 33.4603C95.614 31.7646 94.8975 29.1494 94.8975 25.6148V22.4607C94.8975 18.9255 95.614 16.311 97.0486 14.6152C98.4832 12.9202 100.334 12.0726 102.604 12.0726C104.873 12.0726 106.728 12.9202 108.169 14.6152C109.609 16.311 110.33 18.9262 110.33 22.4607V25.6148Z" fill="#1D1D1B"/>
<path d="M125.313 35.6082H121.362L117.391 23.5251C116.022 19.3853 115.272 16.2643 115.141 14.1621L115.043 12.5057H118.485L118.584 14.1621C118.701 16.1601 119.353 19.1162 120.54 23.0319L123.337 32.3357L126.135 23.0319C127.321 19.1155 127.974 16.1594 128.091 14.1621L128.189 12.5057H131.631L131.533 14.1621C131.403 16.2643 130.653 19.3853 129.284 23.5251L125.313 35.6082Z" fill="#1D1D1B"/>
<path d="M147.553 30.1876V24.8854H144.267C142.624 24.8854 141.384 25.2736 140.55 26.0493C139.716 26.8243 139.298 27.8691 139.298 29.183C139.298 31.6277 140.492 32.8493 142.878 32.8493C144.756 32.8479 146.314 31.9616 147.553 30.1876ZM150.996 35.6082H147.553V33.0057C146.092 35.0037 144.247 36.0027 142.018 36.0027C140.153 36.0027 138.644 35.3552 137.49 34.0611C136.336 32.7662 135.759 31.1408 135.759 29.1823C135.759 27.1723 136.479 25.4864 137.92 24.126C139.361 22.7663 141.476 22.0864 144.268 22.0864H147.553V19.5826C147.553 16.6792 146.185 15.2258 143.445 15.2258C141.424 15.2258 139.911 16.1269 138.908 17.9269L136.306 15.9557C138.106 13.3666 140.492 12.0731 143.466 12.0731C145.669 12.0731 147.475 12.7072 148.884 13.9746C150.292 15.2427 150.996 17.1125 150.996 19.5826V35.6082Z" fill="#1D1D1B"/>
<path d="M168.796 32.0012C168.796 33.0658 168.415 33.9992 167.652 34.8003C166.889 35.602 165.934 36.0022 164.787 36.0022C163.625 36.0022 162.677 35.602 161.94 34.8003C161.203 33.9985 160.834 33.0651 160.834 32.0012C160.834 30.9501 161.203 30.018 161.94 29.2029C162.677 28.3871 163.625 27.9799 164.787 27.9799C165.934 27.9799 166.889 28.3913 167.652 29.2121C168.415 30.0335 168.796 30.9635 168.796 32.0012Z" fill="#1D1D1B"/>
<path d="M187.73 4.67998C187.73 5.4162 187.477 6.04392 186.97 6.56244C186.463 7.08238 185.833 7.34164 185.08 7.34164C184.326 7.34164 183.699 7.08238 183.2 6.56244C182.699 6.04392 182.449 5.4162 182.449 4.67998C182.449 3.94517 182.699 3.31392 183.2 2.78835C183.699 2.26278 184.326 2 185.08 2C185.833 2 186.463 2.26278 186.97 2.78835C187.477 3.31392 187.73 3.94517 187.73 4.67998ZM192.933 35.6082H178.498V32.6514H183.994V15.4626H180.063V12.5057H187.437V32.6514H192.934V35.6082H192.933Z" fill="#1D1D1B"/>
<path d="M210.557 25.6148V22.4607C210.557 19.7272 210.156 17.8377 209.355 16.7936C208.553 15.7481 207.525 15.226 206.274 15.226C205.022 15.226 203.998 15.7481 203.203 16.7936C202.407 17.8377 202.009 19.7272 202.009 22.4607V25.6148C202.009 28.3484 202.407 30.2379 203.203 31.282C203.998 32.3275 205.021 32.8495 206.274 32.8495C207.525 32.8495 208.552 32.3275 209.355 31.282C210.155 30.2372 210.557 28.3477 210.557 25.6148ZM214 25.6148C214 29.1501 213.279 31.7646 211.839 33.4603C210.398 35.1554 208.543 36.0029 206.274 36.0029C204.005 36.0029 202.153 35.1554 200.718 33.4603C199.284 31.7646 198.566 29.1494 198.566 25.6148V22.4607C198.566 18.9255 199.284 16.311 200.718 14.6152C202.153 12.9202 204.004 12.0726 206.274 12.0726C208.543 12.0726 210.398 12.9202 211.839 14.6152C213.279 16.311 214 18.9262 214 22.4607V25.6148Z" fill="#1D1D1B"/>
<path d="M14.2588 25.1815H17.5698H14.2588ZM5.98143 25.1815H9.29239H5.98143ZM10.7444 27.5353L8.48702 31.3537L10.7444 27.5353ZM15.0285 19.3812L12.7711 23.1997L15.0285 19.3812ZM12.7711 27.5353L15.0285 31.3537L12.7711 27.5353ZM8.48702 19.3812L10.7444 23.1997L8.48702 19.3812ZM22.7229 25.359C22.7229 26.6835 21.6574 27.7572 20.3431 27.7572C19.0288 27.7572 17.9627 26.6835 17.9627 25.359C17.9627 24.0345 19.0288 22.9608 20.3431 22.9608C21.6574 22.9608 22.7229 24.0345 22.7229 25.359ZM14.1554 25.359C14.1554 26.6835 13.0899 27.7572 11.7756 27.7572C10.4613 27.7572 9.39516 26.6835 9.39516 25.359C9.39516 24.0345 10.4613 22.9608 11.7756 22.9608C13.0899 22.9608 14.1554 24.0345 14.1554 25.359ZM18.4388 17.2049C18.4388 18.5294 17.3733 19.6031 16.059 19.6031C14.7447 19.6031 13.6793 18.5294 13.6793 17.2049C13.6793 15.8804 14.7447 14.8068 16.059 14.8068C17.3733 14.8068 18.4388 15.8804 18.4388 17.2049ZM9.87195 17.2049C9.87195 18.5294 8.80581 19.6031 7.4915 19.6031C6.17718 19.6031 5.11175 18.5294 5.11175 17.2049C5.11175 15.8804 6.17718 14.8068 7.4915 14.8068C8.80581 14.8068 9.87195 15.8804 9.87195 17.2049ZM18.4388 33.9928C18.4388 35.3173 17.3733 36.391 16.059 36.391C14.7447 36.391 13.6793 35.3173 13.6793 33.9928C13.6793 32.6684 14.7447 31.5947 16.059 31.5947C17.3733 31.5954 18.4388 32.6684 18.4388 33.9928ZM9.87195 33.9928C9.87195 35.3173 8.80581 36.391 7.4915 36.391C6.17718 36.391 5.11175 35.3173 5.11175 33.9928C5.11175 32.6684 6.17718 31.5947 7.4915 31.5947C8.80581 31.5947 9.87195 32.6684 9.87195 33.9928ZM5.58784 25.359C5.58784 26.6835 4.5224 27.7572 3.20809 27.7572C1.89377 27.7572 0.827637 26.6835 0.827637 25.359C0.827637 24.0345 1.89377 22.9608 3.20809 22.9608C4.5224 22.9608 5.58784 24.0345 5.58784 25.359Z" fill="#1D1D1B"/>
<path d="M16.0591 37.2251C14.2904 37.2251 12.8516 35.7752 12.8516 33.9928C12.8516 32.9494 13.3452 32.0188 14.1086 31.4284L12.3958 28.5307C11.984 28.6103 11.5331 28.6103 11.1234 28.5244L9.41763 31.4094C10.1957 31.999 10.6998 32.9375 10.6998 33.9921C10.6998 35.7745 9.26033 37.2244 7.4916 37.2244C5.72287 37.2244 4.28411 35.7745 4.28411 33.9921C4.28411 32.2097 5.72287 30.7598 7.4916 30.7598C7.61674 30.7598 7.74048 30.7668 7.86213 30.7809L9.64274 27.7705C9.13869 27.3168 8.77725 26.706 8.63533 26.0149H6.34857C6.04725 27.4845 4.75391 28.5913 3.20819 28.5913C1.43946 28.5913 0 27.1414 0 25.359C0 23.5766 1.43946 22.1267 3.20819 22.1267C4.62667 22.1267 5.83263 23.0587 6.25489 24.3473H8.72902C8.90659 23.8055 9.22328 23.3265 9.63575 22.9531L8.11241 20.3759C7.91176 20.4161 7.70413 20.4365 7.4916 20.4365C5.72287 20.4365 4.28411 18.9866 4.28411 17.2042C4.28411 15.4218 5.72287 13.9719 7.4916 13.9719C9.26033 13.9719 10.6998 15.4218 10.6998 17.2042C10.6998 18.1729 10.2747 19.0437 9.6022 19.6362L11.1151 22.195C11.5317 22.1062 11.9875 22.1048 12.4056 22.188L13.9262 19.6151C13.2676 19.0226 12.8516 18.1609 12.8516 17.2035C12.8516 15.4211 14.2904 13.9712 16.0591 13.9712C17.8279 13.9712 19.2666 15.4211 19.2666 17.2035C19.2666 18.9859 17.8279 20.4358 16.0591 20.4358C15.8361 20.4358 15.618 20.4126 15.4076 20.3689L13.8926 22.9312C14.3163 23.3074 14.6413 23.7935 14.8224 24.3459H17.2958C17.7188 23.0573 18.9248 22.1253 20.3432 22.1253C22.112 22.1253 23.5507 23.5752 23.5507 25.3576C23.5507 27.14 22.112 28.5899 20.3432 28.5899C18.7975 28.5899 17.5035 27.4831 17.2015 26.0142H14.9161C14.7721 26.7152 14.4015 27.3344 13.8856 27.7903L15.6564 30.7845C15.7879 30.7683 15.9228 30.7591 16.0591 30.7591C17.8279 30.7591 19.2666 32.209 19.2666 33.9914C19.2666 35.7752 17.8279 37.2251 16.0591 37.2251ZM16.0591 32.4288C15.2034 32.4288 14.5071 33.1305 14.5071 33.9928C14.5071 34.8552 15.2034 35.5569 16.0591 35.5569C16.9148 35.5569 17.6111 34.8559 17.6111 33.9928C17.6111 33.1298 16.9148 32.4288 16.0591 32.4288ZM7.4916 32.4288C6.6359 32.4288 5.93959 33.1305 5.93959 33.9928C5.93959 34.8552 6.6359 35.5569 7.4916 35.5569C8.3473 35.5569 9.04431 34.8559 9.04431 33.9928C9.04431 33.1298 8.3473 32.4288 7.4916 32.4288ZM20.3439 23.795C19.4875 23.795 18.7905 24.4967 18.7905 25.359C18.7905 26.2213 19.4875 26.923 20.3439 26.923C21.1996 26.923 21.8959 26.222 21.8959 25.359C21.8959 24.496 21.1989 23.795 20.3439 23.795ZM11.0654 23.969C10.5656 24.2289 10.223 24.7552 10.223 25.3597C10.223 26.222 10.92 26.9237 11.7757 26.9237C11.9931 26.9237 12.2008 26.8779 12.3881 26.7969C12.4119 26.7849 12.4364 26.7729 12.4615 26.7624C12.974 26.5066 13.3277 25.974 13.3277 25.3597C13.3277 24.7806 13.0138 24.2747 12.5489 24.0042C12.4797 23.9845 12.4126 23.9556 12.3476 23.9168C12.3329 23.9077 12.3182 23.8992 12.3042 23.8894C11.9386 23.7541 11.494 23.7731 11.1409 23.9323C11.1158 23.9457 11.0906 23.9584 11.0654 23.969ZM3.20819 23.795C2.35249 23.795 1.65548 24.4967 1.65548 25.359C1.65548 26.2213 2.35249 26.923 3.20819 26.923C4.06389 26.923 4.7602 26.222 4.7602 25.359C4.7602 24.496 4.06389 23.795 3.20819 23.795ZM16.0591 15.6409C15.2034 15.6409 14.5071 16.3426 14.5071 17.2049C14.5071 18.0672 15.2034 18.7689 16.0591 18.7689C16.9148 18.7689 17.6111 18.0672 17.6111 17.2049C17.6111 16.3426 16.9148 15.6409 16.0591 15.6409ZM7.4916 15.6409C6.6359 15.6409 5.93959 16.3426 5.93959 17.2049C5.93959 18.0672 6.6359 18.7689 7.4916 18.7689C7.70762 18.7689 7.91386 18.7239 8.10122 18.6435C8.12779 18.6294 8.15435 18.6168 8.18162 18.6062C8.69266 18.3498 9.04431 17.8178 9.04431 17.2049C9.04431 16.3426 8.3473 15.6409 7.4916 15.6409Z" fill="#1D1D1B"/>
<path d="M44.5091 18.5583C44.5091 17.6248 44.1728 16.8111 43.501 16.1137C42.8298 15.4169 41.8154 15.0696 40.4599 15.0696C39.0903 15.0696 38.0696 15.3979 37.3985 16.0545C36.7274 16.7118 36.3911 17.5657 36.3911 18.6175C36.3911 19.8131 36.7434 20.7226 37.4474 21.3475C38.1521 21.9717 39.1358 22.2831 40.4018 22.2831C41.784 22.2831 42.8138 21.9611 43.4926 21.3172C44.1693 20.6733 44.5091 19.7532 44.5091 18.5583ZM46.015 35.7372C46.015 34.7277 45.6787 33.9252 45.0075 33.3292C44.3364 32.7325 43.1458 32.4345 41.4379 32.4345H40.0488C38.4842 32.4345 37.3726 32.7888 36.7141 33.4962C36.0555 34.2042 35.7269 35.1152 35.7269 36.229C35.7269 37.3823 36.1576 38.2735 37.0175 38.9033C37.8781 39.5325 39.0197 39.8467 40.441 39.8467C44.1567 39.8467 46.015 38.4771 46.015 35.7372ZM49.3595 15.2654H48.1668L46.289 15.0879C47.3188 16.3497 47.834 17.6312 47.834 18.9324C47.834 20.7191 47.1915 22.2042 45.9073 23.3864C44.6223 24.5693 42.8655 25.1603 40.6353 25.1603H38.3863C37.2901 25.8832 36.7434 26.5799 36.7434 27.2499C36.7434 27.934 36.9588 28.4427 37.3887 28.778C37.818 29.1134 38.5359 29.2804 39.5398 29.2804H41.4372C44.2931 29.2804 46.3596 29.8919 47.6376 31.1135C48.9155 32.3358 49.5545 33.8801 49.5545 35.7464C49.5545 37.8487 48.7401 39.5832 47.1104 40.95C45.4801 42.3174 43.3409 43.0001 40.6941 43.0001C37.9039 43.0001 35.7871 42.366 34.3469 41.0986C32.906 39.8298 32.1846 38.296 32.1846 36.496C32.1846 34.1302 33.3647 32.3436 35.7255 31.1339C33.9771 30.3984 33.1039 29.2804 33.1039 27.7826C33.1039 26.2587 34.0295 24.9638 35.8814 23.9C33.9904 22.6121 33.0452 20.8381 33.0452 18.5774C33.0452 16.6857 33.7128 15.1478 35.0502 13.9649C36.3869 12.782 38.2549 12.1909 40.6549 12.1909C41.3596 12.1909 43.0668 12.2966 45.7801 12.5065H49.3588V15.2654H49.3595Z" fill="#1D1D1B"/>
<path d="M65.4186 25.6148V22.4607C65.4186 19.7272 65.0173 17.8377 64.2161 16.7936C63.4135 15.7481 62.3865 15.226 61.1344 15.226C59.8831 15.226 58.8589 15.7481 58.0647 16.7936C57.2684 17.8377 56.8713 19.7272 56.8713 22.4607V25.6148C56.8713 28.3484 57.2684 30.2379 58.0647 31.282C58.8596 32.3275 59.8831 32.8495 61.1344 32.8495C62.3865 32.8495 63.4128 32.3275 64.2161 31.282C65.0173 30.2372 65.4186 28.3477 65.4186 25.6148ZM68.8616 25.6148C68.8616 29.1501 68.1409 31.7646 66.7007 33.4603C65.2599 35.1554 63.4044 36.0029 61.1351 36.0029C58.8666 36.0029 57.0146 35.1554 55.5801 33.4603C54.1455 31.7646 53.4282 29.1494 53.4282 25.6148V22.4607C53.4282 18.9255 54.1455 16.311 55.5801 14.6152C57.0146 12.9202 58.8659 12.0726 61.1351 12.0726C63.4044 12.0726 65.2599 12.9202 66.7007 14.6152C68.1409 16.311 68.8616 18.9262 68.8616 22.4607V25.6148Z" fill="#1D1D1B"/>
</svg>
