<svg width="34" height="33" viewBox="0 0 34 33" fill="none" xmlns="http://www.w3.org/2000/svg">
<path d="M20.1893 15.4856H24.8772H20.1893ZM8.46931 15.4856H13.1573H8.46931ZM15.2132 18.737L12.017 24.0117L15.2132 18.737ZM21.2791 7.47325L18.0828 12.748L21.2791 7.47325ZM18.0828 18.737L21.2791 24.0117L18.0828 18.737ZM12.017 7.47325L15.2132 12.748L12.017 7.47325ZM32.1735 15.7308C32.1735 17.5604 30.665 19.0436 28.804 19.0436C26.9431 19.0436 25.4335 17.5604 25.4335 15.7308C25.4335 13.9012 26.9431 12.4181 28.804 12.4181C30.665 12.4181 32.1735 13.9012 32.1735 15.7308ZM20.0428 15.7308C20.0428 17.5604 18.5342 19.0436 16.6733 19.0436C14.8123 19.0436 13.3028 17.5604 13.3028 15.7308C13.3028 13.9012 14.8123 12.4181 16.6733 12.4181C18.5342 12.4181 20.0428 13.9012 20.0428 15.7308ZM26.1076 4.46705C26.1076 6.29666 24.5991 7.77981 22.7382 7.77981C20.8772 7.77981 19.3687 6.29666 19.3687 4.46705C19.3687 2.63745 20.8772 1.1543 22.7382 1.1543C24.5991 1.1543 26.1076 2.63745 26.1076 4.46705ZM13.9779 4.46705C13.9779 6.29666 12.4683 7.77981 10.6074 7.77981C8.74647 7.77981 7.23792 6.29666 7.23792 4.46705C7.23792 2.63745 8.74647 1.1543 10.6074 1.1543C12.4683 1.1543 13.9779 2.63745 13.9779 4.46705ZM26.1076 27.6573C26.1076 29.4869 24.5991 30.9701 22.7382 30.9701C20.8772 30.9701 19.3687 29.4869 19.3687 27.6573C19.3687 25.8277 20.8772 24.3446 22.7382 24.3446C24.5991 24.3455 26.1076 25.8277 26.1076 27.6573ZM13.9779 27.6573C13.9779 29.4869 12.4683 30.9701 10.6074 30.9701C8.74647 30.9701 7.23792 29.4869 7.23792 27.6573C7.23792 25.8277 8.74647 24.3446 10.6074 24.3446C12.4683 24.3446 13.9779 25.8277 13.9779 27.6573ZM7.91202 15.7308C7.91202 17.5604 6.40347 19.0436 4.54253 19.0436C2.68159 19.0436 1.17205 17.5604 1.17205 15.7308C1.17205 13.9012 2.68159 12.4181 4.54253 12.4181C6.40347 12.4181 7.91202 13.9012 7.91202 15.7308Z" fill="white"/>
<path d="M22.7381 32.1222C20.2338 32.1222 18.1966 30.1194 18.1966 27.6572C18.1966 26.2159 18.8955 24.9303 19.9764 24.1148L17.5512 20.112C16.9682 20.222 16.3298 20.222 15.7497 20.1033L13.3344 24.0885C14.4361 24.9031 15.1498 26.1994 15.1498 27.6562C15.1498 30.1184 13.1117 32.1212 10.6074 32.1212C8.10301 32.1212 6.06587 30.1184 6.06587 27.6562C6.06587 25.194 8.10301 23.1912 10.6074 23.1912C10.7845 23.1912 10.9598 23.2009 11.132 23.2204L13.6532 19.062C12.9395 18.4352 12.4277 17.5915 12.2268 16.6368H8.98894C8.56231 18.6668 6.73106 20.1957 4.54248 20.1957C2.03813 20.1957 0 18.1929 0 15.7307C0 13.2685 2.03813 11.2657 4.54248 11.2657C6.55091 11.2657 8.25842 12.5532 8.8563 14.3332H12.3594C12.6108 13.5848 13.0592 12.923 13.6433 12.4073L11.4864 8.84731C11.2023 8.90278 10.9083 8.931 10.6074 8.931C8.10301 8.931 6.06587 6.92817 6.06587 4.46599C6.06587 2.00381 8.10301 0.00097266 10.6074 0.00097266C13.1117 0.00097266 15.1498 2.00381 15.1498 4.46599C15.1498 5.80413 14.548 7.007 13.5958 7.82545L15.7378 11.3601C16.3278 11.2375 16.9732 11.2355 17.5651 11.3504L19.7181 7.79626C18.7856 6.9778 18.1966 5.78759 18.1966 4.46501C18.1966 2.00283 20.2338 0 22.7381 0C25.2425 0 27.2796 2.00283 27.2796 4.46501C27.2796 6.9272 25.2425 8.93003 22.7381 8.93003C22.4224 8.93003 22.1135 8.89791 21.8156 8.83758L19.6705 12.3771C20.2704 12.8968 20.7307 13.5683 20.9871 14.3313H24.4892C25.0881 12.5513 26.7956 11.2637 28.804 11.2637C31.3083 11.2637 33.3455 13.2666 33.3455 15.7288C33.3455 18.1909 31.3083 20.1938 28.804 20.1938C26.6154 20.1938 24.7832 18.6649 24.3556 16.6358H21.1197C20.9158 17.6041 20.3912 18.4595 19.6606 19.0892L22.168 23.2253C22.3541 23.2029 22.5451 23.1902 22.7381 23.1902C25.2425 23.1902 27.2796 25.1931 27.2796 27.6553C27.2796 30.1194 25.2425 32.1222 22.7381 32.1222ZM22.7381 25.4967C21.5265 25.4967 20.5406 26.466 20.5406 27.6572C20.5406 28.8484 21.5265 29.8177 22.7381 29.8177C23.9497 29.8177 24.9356 28.8494 24.9356 27.6572C24.9356 26.465 23.9497 25.4967 22.7381 25.4967ZM10.6074 25.4967C9.39577 25.4967 8.40987 26.466 8.40987 27.6572C8.40987 28.8484 9.39577 29.8177 10.6074 29.8177C11.819 29.8177 12.8058 28.8494 12.8058 27.6572C12.8058 26.465 11.819 25.4967 10.6074 25.4967ZM28.805 13.5702C27.5924 13.5702 26.6055 14.5395 26.6055 15.7307C26.6055 16.9219 27.5924 17.8912 28.805 17.8912C30.0166 17.8912 31.0025 16.9229 31.0025 15.7307C31.0025 14.5385 30.0156 13.5702 28.805 13.5702ZM15.6675 13.8106C14.9598 14.1697 14.4748 14.8967 14.4748 15.7317C14.4748 16.9229 15.4616 17.8922 16.6732 17.8922C16.9811 17.8922 17.2751 17.8289 17.5404 17.717C17.574 17.7005 17.6087 17.6839 17.6443 17.6693C18.3699 17.316 18.8707 16.5803 18.8707 15.7317C18.8707 14.9317 18.4263 14.233 17.768 13.8593C17.67 13.832 17.575 13.7921 17.4829 13.7386C17.4622 13.7259 17.4414 13.7143 17.4216 13.7006C16.9039 13.5138 16.2743 13.54 15.7744 13.76C15.7388 13.7785 15.7032 13.796 15.6675 13.8106ZM4.54248 13.5702C3.33089 13.5702 2.34399 14.5395 2.34399 15.7307C2.34399 16.9219 3.33089 17.8912 4.54248 17.8912C5.75407 17.8912 6.73997 16.9229 6.73997 15.7307C6.73997 14.5385 5.75407 13.5702 4.54248 13.5702ZM22.7381 2.30647C21.5265 2.30647 20.5406 3.27577 20.5406 4.46696C20.5406 5.65815 21.5265 6.62745 22.7381 6.62745C23.9497 6.62745 24.9356 5.65815 24.9356 4.46696C24.9356 3.27577 23.9497 2.30647 22.7381 2.30647ZM10.6074 2.30647C9.39577 2.30647 8.40987 3.27577 8.40987 4.46696C8.40987 5.65815 9.39577 6.62745 10.6074 6.62745C10.9132 6.62745 11.2052 6.56517 11.4705 6.45422C11.5081 6.43476 11.5458 6.41724 11.5844 6.40264C12.3079 6.0484 12.8058 5.31364 12.8058 4.46696C12.8058 3.27577 11.819 2.30647 10.6074 2.30647Z" fill="white"/>
</svg>
