<svg width="24" height="25" viewBox="0 0 24 25" fill="none" xmlns="http://www.w3.org/2000/svg">
<path d="M14.2588 12.1815H17.5698H14.2588ZM5.98143 12.1815H9.29239H5.98143ZM10.7444 14.5353L8.48702 18.3537L10.7444 14.5353ZM15.0285 6.38119L12.7711 10.1997L15.0285 6.38119ZM12.7711 14.5353L15.0285 18.3537L12.7711 14.5353ZM8.48702 6.38119L10.7444 10.1997L8.48702 6.38119ZM22.7229 12.359C22.7229 13.6835 21.6574 14.7572 20.3431 14.7572C19.0288 14.7572 17.9627 13.6835 17.9627 12.359C17.9627 11.0345 19.0288 9.96083 20.3431 9.96083C21.6574 9.96083 22.7229 11.0345 22.7229 12.359ZM14.1554 12.359C14.1554 13.6835 13.0899 14.7572 11.7756 14.7572C10.4613 14.7572 9.39516 13.6835 9.39516 12.359C9.39516 11.0345 10.4613 9.96083 11.7756 9.96083C13.0899 9.96083 14.1554 11.0345 14.1554 12.359ZM18.4388 4.20494C18.4388 5.52943 17.3733 6.60311 16.059 6.60311C14.7447 6.60311 13.6793 5.52943 13.6793 4.20494C13.6793 2.88045 14.7447 1.80676 16.059 1.80676C17.3733 1.80676 18.4388 2.88045 18.4388 4.20494ZM9.87195 4.20494C9.87195 5.52943 8.80581 6.60311 7.4915 6.60311C6.17718 6.60311 5.11175 5.52943 5.11175 4.20494C5.11175 2.88045 6.17718 1.80676 7.4915 1.80676C8.80581 1.80676 9.87195 2.88045 9.87195 4.20494ZM18.4388 20.9928C18.4388 22.3173 17.3733 23.391 16.059 23.391C14.7447 23.391 13.6793 22.3173 13.6793 20.9928C13.6793 19.6684 14.7447 18.5947 16.059 18.5947C17.3733 18.5954 18.4388 19.6684 18.4388 20.9928ZM9.87195 20.9928C9.87195 22.3173 8.80581 23.391 7.4915 23.391C6.17718 23.391 5.11175 22.3173 5.11175 20.9928C5.11175 19.6684 6.17718 18.5947 7.4915 18.5947C8.80581 18.5947 9.87195 19.6684 9.87195 20.9928ZM5.58784 12.359C5.58784 13.6835 4.5224 14.7572 3.20809 14.7572C1.89377 14.7572 0.827637 13.6835 0.827637 12.359C0.827637 11.0345 1.89377 9.96083 3.20809 9.96083C4.5224 9.96083 5.58784 11.0345 5.58784 12.359Z" fill="#1D1D1B"/>
<path d="M16.0591 24.2251C14.2904 24.2251 12.8516 22.7752 12.8516 20.9928C12.8516 19.9494 13.3452 19.0188 14.1086 18.4284L12.3958 15.5307C11.984 15.6103 11.5331 15.6103 11.1234 15.5244L9.41763 18.4094C10.1957 18.999 10.6998 19.9375 10.6998 20.9921C10.6998 22.7745 9.26033 24.2244 7.4916 24.2244C5.72287 24.2244 4.28411 22.7745 4.28411 20.9921C4.28411 19.2097 5.72287 17.7598 7.4916 17.7598C7.61674 17.7598 7.74048 17.7668 7.86213 17.7809L9.64274 14.7705C9.13869 14.3168 8.77725 13.706 8.63533 13.0149H6.34857C6.04725 14.4845 4.75391 15.5913 3.20819 15.5913C1.43946 15.5913 0 14.1414 0 12.359C0 10.5766 1.43946 9.12667 3.20819 9.12667C4.62667 9.12667 5.83263 10.0587 6.25489 11.3473H8.72902C8.90659 10.8055 9.22328 10.3265 9.63575 9.95306L8.11241 7.37594C7.91176 7.4161 7.70413 7.43653 7.4916 7.43653C5.72287 7.43653 4.28411 5.98664 4.28411 4.20421C4.28411 2.42179 5.72287 0.971896 7.4916 0.971896C9.26033 0.971896 10.6998 2.42179 10.6998 4.20421C10.6998 5.17292 10.2747 6.0437 9.6022 6.6362L11.1151 9.195C11.5317 9.10623 11.9875 9.10483 12.4056 9.18796L13.9262 6.61507C13.2676 6.02257 12.8516 5.16095 12.8516 4.20351C12.8516 2.42109 14.2904 0.971191 16.0591 0.971191C17.8279 0.971191 19.2666 2.42109 19.2666 4.20351C19.2666 5.98593 17.8279 7.43583 16.0591 7.43583C15.8361 7.43583 15.618 7.41258 15.4076 7.3689L13.8926 9.93122C14.3163 10.3074 14.6413 10.7935 14.8224 11.3459H17.2958C17.7188 10.0573 18.9248 9.12526 20.3432 9.12526C22.112 9.12526 23.5507 10.5752 23.5507 12.3576C23.5507 14.14 22.112 15.5899 20.3432 15.5899C18.7975 15.5899 17.5035 14.4831 17.2015 13.0142H14.9161C14.7721 13.7152 14.4015 14.3344 13.8856 14.7903L15.6564 17.7845C15.7879 17.7683 15.9228 17.7591 16.0591 17.7591C17.8279 17.7591 19.2666 19.209 19.2666 20.9914C19.2666 22.7752 17.8279 24.2251 16.0591 24.2251ZM16.0591 19.4288C15.2034 19.4288 14.5071 20.1305 14.5071 20.9928C14.5071 21.8552 15.2034 22.5569 16.0591 22.5569C16.9148 22.5569 17.6111 21.8559 17.6111 20.9928C17.6111 20.1298 16.9148 19.4288 16.0591 19.4288ZM7.4916 19.4288C6.6359 19.4288 5.93959 20.1305 5.93959 20.9928C5.93959 21.8552 6.6359 22.5569 7.4916 22.5569C8.3473 22.5569 9.04431 21.8559 9.04431 20.9928C9.04431 20.1298 8.3473 19.4288 7.4916 19.4288ZM20.3439 10.795C19.4875 10.795 18.7905 11.4967 18.7905 12.359C18.7905 13.2213 19.4875 13.923 20.3439 13.923C21.1996 13.923 21.8959 13.222 21.8959 12.359C21.8959 11.496 21.1989 10.795 20.3439 10.795ZM11.0654 10.969C10.5656 11.2289 10.223 11.7552 10.223 12.3597C10.223 13.222 10.92 13.9237 11.7757 13.9237C11.9931 13.9237 12.2008 13.8779 12.3881 13.7969C12.4119 13.7849 12.4364 13.7729 12.4615 13.7624C12.974 13.5066 13.3277 12.974 13.3277 12.3597C13.3277 11.7806 13.0138 11.2747 12.5489 11.0042C12.4797 10.9845 12.4126 10.9556 12.3476 10.9168C12.3329 10.9077 12.3182 10.8992 12.3042 10.8894C11.9386 10.7541 11.494 10.7731 11.1409 10.9323C11.1158 10.9457 11.0906 10.9584 11.0654 10.969ZM3.20819 10.795C2.35249 10.795 1.65548 11.4967 1.65548 12.359C1.65548 13.2213 2.35249 13.923 3.20819 13.923C4.06389 13.923 4.7602 13.222 4.7602 12.359C4.7602 11.496 4.06389 10.795 3.20819 10.795ZM16.0591 2.64089C15.2034 2.64089 14.5071 3.34259 14.5071 4.20492C14.5071 5.06725 15.2034 5.76894 16.0591 5.76894C16.9148 5.76894 17.6111 5.06725 17.6111 4.20492C17.6111 3.34259 16.9148 2.64089 16.0591 2.64089ZM7.4916 2.64089C6.6359 2.64089 5.93959 3.34259 5.93959 4.20492C5.93959 5.06725 6.6359 5.76894 7.4916 5.76894C7.70762 5.76894 7.91386 5.72386 8.10122 5.64354C8.12779 5.62945 8.15435 5.61677 8.18162 5.6062C8.69266 5.34976 9.04431 4.81785 9.04431 4.20492C9.04431 3.34259 8.3473 2.64089 7.4916 2.64089Z" fill="#1D1D1B"/>
</svg>
