<svg xmlns="http://www.w3.org/2000/svg">
<defs>
<font id="PragmataProMono" horiz-adv-x="1060" >
  <font-face 
    font-family="Pragmata Pro Mono"
    font-weight="400"
    font-stretch="normal"
    units-per-em="2048"
    panose-1="2 0 5 9 3 0 0 2 0 4"
    ascent="1679"
    descent="-369"
    x-height="1171"
    cap-height="1579"
    bbox="-168 -375 1913 1952"
    underline-thickness="59"
    underline-position="-394"
    unicode-range="U+000D-1F0DF"
  />
<missing-glyph 
d="M799 918q0 -87 -37 -127q-33 -39 -160 -39q-128 0 -158 34q-28 36 -34 80q-6 -44 -37 -80q-30 -34 -158 -34q-127 0 -160 39q-35 41 -35 127q0 83 35 124q33 39 160 39q128 0 158 -34q31 -36 37 -101q6 65 34 101q30 34 158 34q127 0 160 -39q37 -40 37 -124zM45 102v166
q152 -155 385 -155q197 0 309.5 118t112.5 353v245h156v-245q0 -286 -156 -445t-422 -162q-239 0 -385 125zM733 653q-49 -368 -323 -368q-275 0 -324 368q126 -182 324 -182q197 0 323 182zM45 1286v178l115 19q31 6 55.5 12t49.5 15t39.5 14.5t42 20t39 20.5t48.5 27
t53 30q-39 39 -65 55q-44 33 -105 33q-59 0 -149 -82q-24 -23 -63 -65t-60 -64v193q85 80 142 110.5t130 36.5q133 0 248 -115l39 -43q37 15 74 15q32 0 70 -15q2 12 10 31q16 62 16 115v80h129v-80q0 -76 -20 -146q-7 -29 -25 -69q21 -15 43 -37q82 -79 150 -156l-97 -86
q-56 63 -120 131l-33 35q-9 -14 -45 -61l53 -107q59 -115 104.5 -174t94.5 -59v-129q-46 0 -89 22t-76 53.5t-69 85t-60 98t-57 111.5q-21 -18 -53 -36q-151 -99 -321 -99q-55 0 -107.5 18.5t-130.5 63.5zM596 1458l-31 53l-10 -8q-36 -22 -115 -61q-84 -41 -164 -64
q-52 -15 -86 -22l27 -10q37 -13 66 -13q129 0 252 78q26 16 61 47zM281 918q0 53 -66 53q-63 0 -63 -53q0 -58 63 -58q66 0 66 58zM668 918q0 53 -66 53q-63 0 -63 -53q0 -58 63 -58q66 0 66 58z" />
    <glyph glyph-name="LamLam.init" unicode="&#xfedf;&#xfee0;" 
d="M561 100q-180 0 -258 66q-111 -66 -256 -66h-67v181h77q98 0 140.5 42t42.5 134q0 459 -31 1122h156q30 -642 30 -1153q0 -145 166 -145q193 3 193 168q0 440 -29 1130h156q28 -666 28 -1130q0 -183 -84 -266t-264 -83z" />
    <glyph glyph-name="AlefMaksuraThal.liga" unicode="&#x630;&#x670;" arabic-form="isolated" 
d="M768 453q0 122 -115 179t-374 68v181q358 -9 503 -115q148 -103 148 -303q0 -365 -449 -365h-407v181h413q281 0 281 174zM375 1135q0 39 27.5 66.5t68.5 27.5q38 0 66 -28t28 -66q0 -41 -27.5 -69t-66.5 -28q-41 0 -68.5 28t-27.5 69zM526 1812v-442h-116v442h116z" />
    <glyph glyph-name="AlefMaksuraReh.liga" unicode="&#x631;&#x670;" arabic-form="isolated" 
d="M768 453q0 122 -115 179t-374 68v181q358 -9 503 -115q148 -103 148 -303q0 -365 -449 -365h-407v181h413q281 0 281 174zM526 1497v-442h-116v442h116z" />
    <glyph glyph-name="AlefMaksuraAlef.liga" unicode="&#x649;&#x670;" arabic-form="isolated" 
d="M518 -190h60q217 0 217 221q0 118 -113 145q-176 47 -176 301q0 196 84 309q82 113 196 113q105 0 175 -76l-82 -129q-47 29 -82 29q-62 0 -98.5 -57.5t-36.5 -151.5q0 -140 96 -164q192 -52 192 -299q0 -422 -397 -422h-41q-383 0 -383 432q0 146 27 439h153
q-22 -306 -22 -439q0 -251 231 -251zM356 1276v-442h-116v442h116z" />
    <glyph glyph-name="ShaddaDammatan" unicode="&#x651;&#x64c;" arabic-form="isolated" 
d="M680 1460h80q14 -46 14 -104q0 -91 -40 -146t-107 -55q-71 0 -99 72q-41 -109 -131 -109q-112 0 -112 144q0 51 22 122h78q-4 -54 -4 -65q0 -74 39 -74q66 0 78 172h82q0 -139 61 -139q43 0 43 108q0 12 -4 74zM268 1841h101q22 -64 22 -133q0 -38 -6 -78l125 58
q-43 70 -43 122q0 62 44 101t118 39q73 0 118.5 -39t45.5 -101q0 -104 -99 -147l-41 -18l47 -74l-90 -45l-49 78l-293 -136q23 122 23 205q0 87 -23 168zM688 1800q0 18 -17.5 29.5t-43.5 11.5t-42 -11t-16 -30q0 -22 15 -43l16 -26l47 20q41 18 41 49z" />
    <glyph glyph-name="ShaddaKastratan" unicode="&#x651;&#x64d;" arabic-form="isolated" 
d="M680 1939h80q14 -46 14 -104q0 -91 -40 -146t-107 -55q-71 0 -99 72q-41 -109 -131 -109q-112 0 -112 144q0 52 22 123h78q-4 -54 -4 -66q0 -74 39 -74q66 0 78 172h82q0 -139 61 -139q43 0 43 109q0 11 -4 73zM733 1567v-107l-405 -127v107zM733 1378v-104l-405 -129
v106z" />
    <glyph glyph-name="ShaddaFatha" unicode="&#x651;&#x64e;" arabic-form="isolated" 
d="M680 1681h80q14 -46 14 -104q0 -91 -40 -146t-107 -55q-71 0 -99 72q-41 -109 -131 -109q-112 0 -112 144q0 52 22 123h78q-4 -54 -4 -66q0 -74 39 -74q66 0 78 172h82q0 -139 61 -139q43 0 43 109q0 11 -4 73zM733 1950v-107l-407 -127v107z" />
    <glyph glyph-name="ShaddaDamma" unicode="&#x651;&#x64f;" arabic-form="isolated" 
d="M680 1487h80q14 -46 14 -105q0 -91 -40 -145.5t-107 -54.5q-72 0 -99 71q-40 -108 -131 -108q-112 0 -112 143q0 52 22 123h78q-4 -54 -4 -65q0 -74 39 -74q66 0 78 172h82q0 -139 61 -139q43 0 43 108q0 12 -4 74zM793 1810q0 -104 -99 -147l-41 -18l47 -74l-90 -45
l-49 78l-293 -136v111l242 109q-43 70 -43 122q0 62 44 101t118 39q73 0 118.5 -39t45.5 -101zM688 1800q0 18 -17.5 29.5t-43.5 11.5t-42 -11t-16 -30q0 -22 15 -43l16 -26l47 20q41 21 41 49z" />
    <glyph glyph-name="ShaddaKasra" unicode="&#x651;&#x650;" arabic-form="isolated" 
d="M680 1939h80q14 -46 14 -104q0 -91 -40 -146t-107 -55q-71 0 -99 72q-41 -109 -131 -109q-112 0 -112 144q0 52 22 123h78q-4 -54 -4 -66q0 -74 39 -74q66 0 78 172h82q0 -139 61 -139q43 0 43 109q0 11 -4 73zM733 1567v-107l-407 -127v107z" />
    <glyph glyph-name="ShaddaAlefSuper" unicode="&#x651;&#x670;" arabic-form="isolated" 
d="M680 1450h80q14 -46 14 -104q0 -91 -40 -146t-107 -55q-71 0 -99 72q-41 -109 -131 -109q-112 0 -112 143q0 52 22 123h78q-4 -54 -4 -65q0 -74 39 -74q66 0 78 172h82q0 -139 61 -139q43 0 43 108q0 12 -4 74zM588 1939v-442h-117v442h117z" />
    <glyph glyph-name="NoonAlefMakFina.liga" unicode="&#x646;&#xfef0;" arabic-form="final" 
d="M1083 281v-181h-39q-181 0 -208 189l-21 162q-9 61 -63 61q-41 0 -63.5 -34.5t-22.5 -100.5q0 -15 6 -62l35 -264q6 -46 6 -88q0 -164 -76 -251t-217 -87q-291 0 -291 418q0 164 27 457h153q-22 -306 -22 -457q0 -227 133 -227t133 170q0 15 -4 65l-31 225q-8 49 -8 99
q0 152 76 237q76 88 176 88q179 0 209 -231l14 -102q9 -86 80 -86h18zM604 1065q0 39 27.5 66.5t68.5 27.5q38 0 66.5 -28t28.5 -66q0 -41 -28 -68.5t-67 -27.5q-41 0 -68.5 27.5t-27.5 68.5z" />
    <glyph glyph-name="NoonYehFina.liga" unicode="&#x646;&#xfef2;" arabic-form="final" 
d="M604 1065q0 39 27.5 66.5t68.5 27.5q38 0 66.5 -28t28.5 -66q0 -41 -28 -68.5t-67 -27.5q-41 0 -68.5 27.5t-27.5 68.5zM1083 281v-181h-18q-207 0 -242 271l-12 80q-6 71 -57 71q-76 0 -76 -112q0 -43 8 -84l12 -56q11 -50 11 -82q0 -113 -74 -202q-72 -90 -215 -90
q-291 0 -291 360q0 88 27 244h153q-22 -163 -22 -238q0 -186 133 -186q60 0 92.5 29.5t32.5 80.5q0 30 -13 84l-4 23q-14 55 -14 115q0 127 70.5 209.5t179.5 82.5q92 0 144 -56.5t69 -174.5l14 -102q12 -86 74 -86h18zM188 -281q0 41 28 69t69 28q39 0 66.5 -28t27.5 -69
q0 -38 -28 -66t-66 -28q-41 0 -69 27.5t-28 66.5zM500 -281q0 41 27.5 69t66.5 28q41 0 67.5 -27.5t26.5 -69.5q0 -39 -26.5 -66.5t-67.5 -27.5q-38 0 -66 28t-28 66z" />
    <glyph glyph-name="AlefFinaFathatan.liga" unicode="&#xfe8e;&#x64b;" arabic-form="final" 
d="M1079 100h-295q-304 0 -313 398l-16 903h155l15 -903q0 -217 159 -217h295v-181zM733 1950v-107l-405 -127v107zM733 1761v-104l-405 -129v106z" />
    <glyph glyph-name="AlefFathatan.liga" unicode="&#x627;&#x64b;" arabic-form="isolated" 
d="M645 100h-145q-39 272 -39 1200h155q0 -897 29 -1200zM733 1950v-107l-405 -127v107zM733 1761v-104l-405 -129v106z" />
    <glyph glyph-name="LamAlefMadda.isol" unicode="&#xfedf;&#xfe82;" arabic-form="isolated" 
d="M600 80q-227 0 -227 190q0 115 100 256l98 142q-137 355 -430 702h195q221 -259 334 -563q80 115 80 543v229h155v-229q0 -432 -147 -660l-25 -39q107 -270 107 -391q0 -87 -68.5 -133.5t-171.5 -46.5zM633 508l-45 -72q-60 -97 -60 -127q0 -49 70 -49q84 0 84 49
q-3 80 -49 199zM567 1751l109 -65q-86 -164 -225 -164q-49 0 -101 30l-86 43l-47 -82l-100 62l112 184l119 -61q56 -29 103 -29q67 0 116 82z" />
    <glyph glyph-name="LamAlefMadda.fina" unicode="&#xfee0;&#xfe82;" arabic-form="final" 
d="M676 238q-146 -158 -395 -158h-191v199h162q184 3 184 243q0 182 -67 350l-199 498h172l174 -446q76 -192 76 -365q0 -83 -21 -160q91 97 91 330v850h153v-954q0 -344 178 -344h86v-181h-110q-217 0 -293 138zM537 1751l108 -65q-86 -164 -225 -164q-48 0 -101 30l-86 43
l-47 -82l-100 62l113 184l118 -61q56 -29 103 -29q68 0 117 82z" />
    <glyph glyph-name="LamAlefHamza.isol" unicode="&#xfedf;&#xfe84;" arabic-form="isolated" 
d="M846 1579v-1036q-3 -463 -514 -463h-242v199h170q96 0 136 43t40 157q0 147 -69 342l-197 549h178l166 -498q90 -272 90 -393q0 -101 -24 -160q110 64 110 279v981h156zM555 1579v-94h-453v94h107v94q0 142 133 142h164v-95h-127q-47 0 -47 -49v-92h223z" />
    <glyph glyph-name="LamAlefHamza.fina" unicode="&#xfee0;&#xfe84;" arabic-form="final" 
d="M676 238q-146 -158 -395 -158h-191v199h162q184 3 184 243q0 182 -67 350l-199 498h172l174 -446q76 -192 76 -365q0 -83 -21 -160q91 97 91 330v850h153v-954q0 -344 178 -344h86v-181h-110q-217 0 -293 138zM565 1579v-96h-450v96h104v92q0 141 133 141h164v-92h-127
q-47 0 -47 -49v-92h223z" />
    <glyph glyph-name="LamAlefHamzaB.isol" unicode="&#xfedf;&#xfe88;" arabic-form="isolated" 
d="M846 1579v-1036q-3 -463 -514 -463h-242v199h170q96 0 136 43t40 157q0 147 -69 342l-197 549h178l166 -498q90 -272 90 -393q0 -101 -24 -160q110 64 110 279v981h156zM616 -270v-95h-452v95h104v94q0 141 135 141h164v-94h-129q-48 0 -45 -49v-92h223z" />
    <glyph glyph-name="LamAlefHamzaB.fina" unicode="&#xfee0;&#xfe88;" arabic-form="final" 
d="M676 238q-146 -158 -395 -158h-191v199h162q184 3 184 243q0 182 -67 350l-199 498h172l174 -446q76 -192 76 -365q0 -83 -21 -160q91 97 91 330v850h153v-954q0 -344 178 -344h86v-181h-110q-217 0 -293 138zM645 -270v-97h-450v97h104v92q0 141 133 141h164v-92h-127
q-47 0 -47 -49v-92h223z" />
    <glyph glyph-name="LamAlef.isol" unicode="&#xfedf;&#xfe8e;" arabic-form="isolated" 
d="M600 80q-227 0 -227 190q0 115 100 256l98 142q-137 355 -430 702h195q221 -259 334 -563q80 115 80 543v229h155v-229q0 -432 -147 -660l-25 -39q107 -270 107 -391q0 -87 -68.5 -133.5t-171.5 -46.5zM633 508l-45 -72q-60 -97 -60 -127q0 -49 70 -49q84 0 84 49
q-3 80 -49 199z" />
    <glyph glyph-name="LamAlef.fina" unicode="&#xfee0;&#xfe8e;" arabic-form="final" 
d="M676 238q-146 -158 -395 -158h-191v199h162q184 3 184 243q0 182 -67 350l-199 498h172l174 -446q76 -192 76 -365q0 -83 -21 -160q91 97 91 330v850h153v-954q0 -344 178 -344h86v-181h-110q-217 0 -293 138z" />
    <glyph glyph-name="Beeh.isol" unicode="&#x67b;" arabic-form="isolated" 
d="M756 457q0 208 -70 424h156q69 -213 69 -435q0 -366 -356 -366h-59q-349 0 -349 418q0 151 21 362h156q-21 -211 -21 -362q0 -238 201 -238h53q199 0 199 197zM455 -299q0 32 27.5 53t68.5 21q39 0 66.5 -21t27.5 -53q0 -35 -27 -55.5t-67 -20.5q-43 0 -69.5 20t-26.5 56
zM455 -80q0 35 27 55.5t69 20.5q40 0 67 -21t27 -55q0 -35 -27 -55.5t-67 -20.5q-43 0 -69.5 20t-26.5 56z" />
    <glyph glyph-name="Beeh.fina" unicode="&#x67b;" arabic-form="final" 
d="M1069 281v-181q-154 0 -231 47q-85 -67 -281 -67h-61q-349 0 -349 418q0 151 21 362h156q-21 -211 -21 -362q0 -238 201 -238h53q199 0 199 186q0 243 -39 435h155q39 -192 39 -455q0 -145 158 -145zM455 -299q0 32 27.5 53t68.5 21q39 0 66.5 -21t27.5 -53
q0 -35 -27 -55.5t-67 -20.5q-43 0 -69.5 20t-26.5 56zM455 -80q0 35 27 55.5t69 20.5q40 0 67 -21t27 -55q0 -35 -27 -55.5t-67 -20.5q-43 0 -69.5 20t-26.5 56z" />
    <glyph glyph-name="Beeh.init" unicode="&#x67b;" arabic-form="initial" 
d="M518 487q0 197 -37 394h156q39 -192 39 -394q0 -193 -98 -290t-320 -97h-278v181h286q141 0 196.5 50t55.5 156zM403 -299q0 32 28 53t69 21q39 0 66.5 -21t27.5 -53q0 -35 -27 -55.5t-67 -20.5q-43 0 -70 20t-27 56zM403 -80q0 35 27.5 55.5t69.5 20.5q40 0 67 -21
t27 -55q0 -35 -27 -55.5t-67 -20.5q-43 0 -70 20t-27 56z" />
    <glyph glyph-name="Beeh.medi" unicode="&#x67b;" arabic-form="medial" 
d="M1079 100h-276q-172 0 -250 66q-107 -66 -254 -66h-319v181h327q98 0 140 42t42 134q0 227 -40 424h155q41 -202 41 -455q0 -145 158 -145h276v-181zM475 -299q0 32 27.5 53t68.5 21q39 0 67 -21t28 -53q0 -35 -27.5 -55.5t-67.5 -20.5q-43 0 -69.5 20t-26.5 56zM475 -80
q0 35 27 55.5t69 20.5q40 0 67.5 -21t27.5 -55q0 -35 -27.5 -55.5t-67.5 -20.5q-43 0 -69.5 20t-26.5 56z" />
    <glyph glyph-name="Peh.isol" unicode="&#x67e;" arabic-form="isolated" 
d="M756 457q0 208 -70 424h156q69 -213 69 -435q0 -366 -356 -366h-59q-349 0 -349 418q0 151 21 362h156q-21 -211 -21 -362q0 -238 201 -238h53q199 0 199 197zM330 -80q0 36 26.5 56t69.5 20q40 0 67 -20.5t27 -55.5q0 -34 -27 -55t-67 -21q-42 0 -69 20.5t-27 55.5z
M580 -80q0 36 26.5 56t69.5 20q40 0 67 -20.5t27 -55.5q0 -34 -27 -55t-67 -21q-42 0 -69 20.5t-27 55.5zM455 -299q0 34 27 54t69 20q40 0 67 -20t27 -54t-27 -55t-67 -21q-42 0 -69 20.5t-27 55.5z" />
    <glyph glyph-name="Peh.fina" unicode="&#x67e;" arabic-form="final" 
d="M1069 281v-181q-154 0 -231 47q-85 -67 -281 -67h-61q-349 0 -349 418q0 151 21 362h156q-21 -211 -21 -362q0 -238 201 -238h53q199 0 199 186q0 243 -39 435h155q39 -192 39 -455q0 -145 158 -145zM330 -80q0 36 26.5 56t69.5 20q40 0 67 -20.5t27 -55.5q0 -34 -27 -55
t-67 -21q-42 0 -69 20.5t-27 55.5zM580 -80q0 36 26.5 56t69.5 20q40 0 67 -20.5t27 -55.5q0 -34 -27 -55t-67 -21q-42 0 -69 20.5t-27 55.5zM455 -299q0 34 27 54t69 20q40 0 67 -20t27 -54t-27 -55t-67 -21q-42 0 -69 20.5t-27 55.5z" />
    <glyph glyph-name="Peh.init" unicode="&#x67e;" arabic-form="initial" 
d="M518 487q0 197 -37 394h156q39 -192 39 -394q0 -193 -98 -290t-320 -97h-278v181h286q141 0 196.5 50t55.5 156zM219 -80q0 36 26.5 56t69.5 20q40 0 67.5 -20.5t27.5 -55.5q0 -34 -27.5 -55t-67.5 -21q-42 0 -69 20.5t-27 55.5zM469 -80q0 36 26.5 56t69.5 20
q40 0 67 -20.5t27 -55.5q0 -34 -27 -55t-67 -21q-42 0 -69 20.5t-27 55.5zM344 -299q0 34 27 54t69 20q40 0 67.5 -20t27.5 -54t-27.5 -55t-67.5 -21q-42 0 -69 20.5t-27 55.5z" />
    <glyph glyph-name="Peh.medi" unicode="&#x67e;" arabic-form="medial" 
d="M1079 100h-276q-172 0 -250 66q-107 -66 -254 -66h-319v181h327q98 0 140 42t42 134q0 227 -40 424h155q41 -202 41 -455q0 -145 158 -145h276v-181zM350 -80q0 36 26.5 56t69.5 20q40 0 67.5 -20.5t27.5 -55.5q0 -34 -27.5 -55t-67.5 -21q-42 0 -69 20.5t-27 55.5z
M600 -80q0 36 26.5 56t69.5 20q40 0 67.5 -20.5t27.5 -55.5q0 -34 -27.5 -55t-67.5 -21q-42 0 -69 20.5t-27 55.5zM475 -299q0 34 27 54t69 20q40 0 67.5 -20t27.5 -54t-27.5 -55t-67.5 -21q-42 0 -69 20.5t-27 55.5z" />
    <glyph glyph-name="Beheh.isol" unicode="&#x680;" arabic-form="isolated" 
d="M756 457q0 208 -70 424h156q69 -213 69 -435q0 -366 -356 -366h-59q-349 0 -349 418q0 151 21 362h156q-21 -211 -21 -362q0 -238 201 -238h53q199 0 199 197zM309 -299q0 32 28 53t69 21q39 0 66.5 -21t27.5 -53q0 -35 -27 -55.5t-67 -20.5q-43 0 -70 20t-27 56z
M309 -80q0 35 27.5 55.5t69.5 20.5q40 0 67 -21t27 -55q0 -35 -27 -55.5t-67 -20.5q-43 0 -70 20t-27 56zM559 -281q0 35 27 55.5t69 20.5q40 0 67.5 -21t27.5 -55t-27.5 -53.5t-67.5 -19.5q-43 0 -69.5 19.5t-26.5 53.5zM559 -59q0 32 27 52.5t69 20.5q39 0 67 -20.5
t28 -52.5q0 -35 -27.5 -55.5t-67.5 -20.5q-43 0 -69.5 20t-26.5 56z" />
    <glyph glyph-name="Beheh.fina" unicode="&#x680;" arabic-form="final" 
d="M330 -299q0 32 27.5 53t68.5 21q39 0 66.5 -21t27.5 -53q0 -35 -27 -55.5t-67 -20.5q-43 0 -69.5 20t-26.5 56zM330 -80q0 35 27 55.5t69 20.5q40 0 67 -21t27 -55q0 -35 -27 -55.5t-67 -20.5q-43 0 -69.5 20t-26.5 56zM580 -281q0 35 27 55.5t69 20.5q40 0 67 -21
t27 -55t-27 -53.5t-67 -19.5q-43 0 -69.5 19.5t-26.5 53.5zM580 -59q0 32 27 52.5t69 20.5q39 0 66.5 -20.5t27.5 -52.5q0 -35 -27 -55.5t-67 -20.5q-43 0 -69.5 20t-26.5 56zM1069 281v-181q-154 0 -231 47q-85 -67 -281 -67h-61q-349 0 -349 418q0 151 21 362h156
q-21 -211 -21 -362q0 -238 201 -238h53q199 0 199 186q0 243 -39 435h155q39 -192 39 -455q0 -145 158 -145z" />
    <glyph glyph-name="Beheh.init" unicode="&#x680;" arabic-form="initial" 
d="M518 487q0 197 -37 394h156q39 -192 39 -394q0 -193 -98 -290t-320 -97h-278v181h286q141 0 196.5 50t55.5 156zM219 -299q0 32 27.5 53t68.5 21q39 0 67 -21t28 -53q0 -35 -27.5 -55.5t-67.5 -20.5q-43 0 -69.5 20t-26.5 56zM219 -80q0 35 27 55.5t69 20.5
q40 0 67.5 -21t27.5 -55q0 -35 -27.5 -55.5t-67.5 -20.5q-43 0 -69.5 20t-26.5 56zM469 -281q0 35 27 55.5t69 20.5q40 0 67 -21t27 -55t-27 -53.5t-67 -19.5q-43 0 -69.5 19.5t-26.5 53.5zM469 -59q0 32 27 52.5t69 20.5q39 0 66.5 -20.5t27.5 -52.5q0 -35 -27 -55.5
t-67 -20.5q-43 0 -69.5 20t-26.5 56z" />
    <glyph glyph-name="Beheh.medi" unicode="&#x680;" arabic-form="medial" 
d="M1079 100h-276q-172 0 -250 66q-107 -66 -254 -66h-319v181h327q98 0 140 42t42 134q0 227 -40 424h155q41 -202 41 -455q0 -145 158 -145h276v-181zM350 -299q0 32 27.5 53t68.5 21q39 0 67 -21t28 -53q0 -35 -27.5 -55.5t-67.5 -20.5q-43 0 -69.5 20t-26.5 56zM350 -80
q0 35 27 55.5t69 20.5q40 0 67.5 -21t27.5 -55q0 -35 -27.5 -55.5t-67.5 -20.5q-43 0 -69.5 20t-26.5 56zM600 -281q0 35 27 55.5t69 20.5q40 0 67.5 -21t27.5 -55t-27.5 -53.5t-67.5 -19.5q-43 0 -69.5 19.5t-26.5 53.5zM600 -59q0 32 27 52.5t69 20.5q39 0 67 -20.5
t28 -52.5q0 -35 -27.5 -55.5t-67.5 -20.5q-43 0 -69.5 20t-26.5 56z" />
    <glyph glyph-name="Tteheh.isol" unicode="&#x67a;" arabic-form="isolated" 
d="M756 457q0 208 -70 424h156q69 -213 69 -435q0 -366 -356 -366h-59q-349 0 -349 418q0 151 21 362h156q-21 -211 -21 -362q0 -238 201 -238h53q199 0 199 197zM424 1141q0 35 27 55.5t69 20.5q40 0 67 -21t27 -55t-27 -54t-67 -20q-42 0 -69 20t-27 54zM424 1362
q0 32 27.5 53t68.5 21q39 0 66.5 -21t27.5 -53q0 -35 -27 -55.5t-67 -20.5q-43 0 -69.5 20t-26.5 56z" />
    <glyph glyph-name="Tteheh.fina" unicode="&#x67a;" arabic-form="final" 
d="M1069 281v-181q-154 0 -231 47q-85 -67 -281 -67h-61q-349 0 -349 418q0 151 21 362h156q-21 -211 -21 -362q0 -238 201 -238h53q199 0 199 186q0 243 -39 435h155q39 -192 39 -455q0 -145 158 -145zM424 1141q0 35 27 55.5t69 20.5q40 0 67 -21t27 -55t-27 -54t-67 -20
q-42 0 -69 20t-27 54zM424 1362q0 32 27.5 53t68.5 21q39 0 66.5 -21t27.5 -53q0 -35 -27 -55.5t-67 -20.5q-43 0 -69.5 20t-26.5 56z" />
    <glyph glyph-name="Tteheh.init" unicode="&#x67a;" arabic-form="initial" 
d="M518 487q0 197 -37 394h156q39 -192 39 -394q0 -193 -98 -290t-320 -97h-278v181h286q141 0 196.5 50t55.5 156zM403 1141q0 35 27.5 55.5t69.5 20.5q40 0 67 -21t27 -55t-27 -54t-67 -20q-42 0 -69.5 20t-27.5 54zM403 1362q0 32 28 53t69 21q39 0 66.5 -21t27.5 -53
q0 -35 -27 -55.5t-67 -20.5q-43 0 -70 20t-27 56z" />
    <glyph glyph-name="Tteheh.medi" unicode="&#x67a;" arabic-form="medial" 
d="M1079 100h-276q-172 0 -250 66q-107 -66 -254 -66h-319v181h327q98 0 140 42t42 134q0 227 -40 424h155q41 -202 41 -455q0 -145 158 -145h276v-181zM375 1141q0 35 27 55.5t69 20.5q40 0 67 -21t27 -55t-27 -54t-67 -20q-42 0 -69 20t-27 54zM375 1362q0 32 27.5 53
t68.5 21q39 0 66.5 -21t27.5 -53q0 -35 -27 -55.5t-67 -20.5q-43 0 -69.5 20t-26.5 56z" />
    <glyph glyph-name="Teheh.isol" unicode="&#x67f;" arabic-form="isolated" 
d="M756 457q0 208 -70 424h156q69 -213 69 -435q0 -366 -356 -366h-59q-349 0 -349 418q0 151 21 362h156q-21 -211 -21 -362q0 -238 201 -238h53q199 0 199 197zM289 1130q0 35 27 55.5t69 20.5q40 0 67 -21t27 -55t-27 -53.5t-67 -19.5q-43 0 -69.5 19.5t-26.5 53.5z
M289 1352q0 32 27 52.5t69 20.5q39 0 66.5 -20.5t27.5 -52.5q0 -35 -27 -55.5t-67 -20.5q-43 0 -69.5 20t-26.5 56zM539 1151q0 35 27 55.5t69 20.5q40 0 67 -21t27 -55t-27 -55t-67 -21q-42 0 -69 20.5t-27 55.5zM539 1372q0 32 27.5 53t68.5 21q39 0 66.5 -21t27.5 -53
q0 -35 -27 -55.5t-67 -20.5q-43 0 -69.5 20t-26.5 56z" />
    <glyph glyph-name="Teheh.fina" unicode="&#x67f;" arabic-form="final" 
d="M1069 281v-181q-154 0 -231 47q-85 -67 -281 -67h-61q-349 0 -349 418q0 151 21 362h156q-21 -211 -21 -362q0 -238 201 -238h53q199 0 199 186q0 243 -39 435h155q39 -192 39 -455q0 -145 158 -145zM289 1130q0 35 27 55.5t69 20.5q40 0 67 -21t27 -55t-27 -53.5
t-67 -19.5q-43 0 -69.5 19.5t-26.5 53.5zM289 1352q0 32 27 52.5t69 20.5q39 0 66.5 -20.5t27.5 -52.5q0 -35 -27 -55.5t-67 -20.5q-43 0 -69.5 20t-26.5 56zM539 1151q0 35 27 55.5t69 20.5q40 0 67 -21t27 -55t-27 -55t-67 -21q-42 0 -69 20.5t-27 55.5zM539 1372
q0 32 27.5 53t68.5 21q39 0 66.5 -21t27.5 -53q0 -35 -27 -55.5t-67 -20.5q-43 0 -69.5 20t-26.5 56z" />
    <glyph glyph-name="Teheh.init" unicode="&#x67f;" arabic-form="initial" 
d="M518 487q0 197 -37 394h156q39 -192 39 -394q0 -193 -98 -290t-320 -97h-278v181h286q141 0 196.5 50t55.5 156zM268 1130q0 35 27.5 55.5t69.5 20.5q40 0 67 -21t27 -55t-27 -53.5t-67 -19.5q-43 0 -70 19.5t-27 53.5zM268 1352q0 32 27.5 52.5t69.5 20.5
q39 0 66.5 -20.5t27.5 -52.5q0 -35 -27 -55.5t-67 -20.5q-43 0 -70 20t-27 56zM518 1151q0 35 27 55.5t69 20.5q40 0 67.5 -21t27.5 -55t-27.5 -55t-67.5 -21q-42 0 -69 20.5t-27 55.5zM518 1372q0 32 27.5 53t68.5 21q39 0 67 -21t28 -53q0 -35 -27.5 -55.5t-67.5 -20.5
q-43 0 -69.5 20t-26.5 56z" />
    <glyph glyph-name="Teheh.medi" unicode="&#x67f;" arabic-form="medial" 
d="M1079 100h-276q-172 0 -250 66q-107 -66 -254 -66h-319v181h327q98 0 140 42t42 134q0 227 -40 424h155q41 -202 41 -455q0 -145 158 -145h276v-181zM250 1130q0 35 27 55.5t69 20.5q40 0 67 -21t27 -55t-27 -53.5t-67 -19.5q-43 0 -69.5 19.5t-26.5 53.5zM250 1352
q0 32 27 52.5t69 20.5q39 0 66.5 -20.5t27.5 -52.5q0 -35 -27 -55.5t-67 -20.5q-43 0 -69.5 20t-26.5 56zM500 1151q0 35 27 55.5t69 20.5q40 0 67 -21t27 -55t-27 -55t-67 -21q-42 0 -69 20.5t-27 55.5zM500 1372q0 32 27.5 53t68.5 21q39 0 66.5 -21t27.5 -53
q0 -35 -27 -55.5t-67 -20.5q-43 0 -69.5 20t-26.5 56z" />
    <glyph glyph-name="Tteh.isol" unicode="&#x679;" arabic-form="isolated" 
d="M756 457q0 208 -70 424h156q69 -213 69 -435q0 -366 -356 -366h-59q-349 0 -349 418q0 151 21 362h156q-21 -211 -21 -362q0 -238 201 -238h53q199 0 199 197zM461 1194h59q142 0 142 59q0 45 -62 45q-69 0 -139 -104zM557 1102h-278v92h77v350h105v-223q72 72 157 72
q73 0 111.5 -36.5t38.5 -103.5q0 -151 -211 -151z" />
    <glyph glyph-name="Tteh.fina" unicode="&#x679;" arabic-form="final" 
d="M1069 281v-181q-154 0 -231 47q-85 -67 -281 -67h-61q-349 0 -349 418q0 151 21 362h156q-21 -211 -21 -362q0 -238 201 -238h53q199 0 199 186q0 243 -39 435h155q39 -192 39 -455q0 -145 158 -145zM461 1194h59q142 0 142 59q0 45 -62 45q-69 0 -139 -104zM557 1102
h-278v92h77v350h105v-223q72 72 157 72q73 0 111.5 -36.5t38.5 -103.5q0 -151 -211 -151z" />
    <glyph glyph-name="Tteh.init" unicode="&#x679;" arabic-form="initial" 
d="M518 487q0 197 -37 394h156q39 -192 39 -394q0 -193 -98 -290t-320 -97h-278v181h286q141 0 196.5 50t55.5 156zM451 1194h59q141 0 141 59q0 45 -61 45q-69 0 -139 -104zM547 1102h-279v92h78v350h105v-223q72 72 157 72q73 0 111.5 -36.5t38.5 -103.5q0 -151 -211 -151
z" />
    <glyph glyph-name="Tteh.medi" unicode="&#x679;" arabic-form="medial" 
d="M1079 100h-276q-172 0 -250 66q-107 -66 -254 -66h-319v181h327q98 0 140 42t42 134q0 227 -40 424h155q41 -202 41 -455q0 -145 158 -145h276v-181zM451 1194h59q141 0 141 59q0 45 -61 45q-69 0 -139 -104zM547 1102h-279v92h78v350h105v-223q72 72 157 72
q73 0 111.5 -36.5t38.5 -103.5q0 -151 -211 -151z" />
    <glyph glyph-name="Veh.isol" unicode="&#x6a4;" arabic-form="isolated" 
d="M930 578v-117q0 -163 -101 -273q-99 -108 -333 -108q-383 0 -383 371q0 114 14 229h154q-13 -136 -13 -229q0 -191 228 -191q169 0 223 45q55 46 55 94q-34 -18 -92 -18q-110 0 -170.5 67t-60.5 185q0 113 69 188q72 78 174 78q236 0 236 -321zM610 639q0 -38 22.5 -59
t61.5 -21q43 0 80 16v31q0 115 -80 115q-38 0 -61 -23t-23 -59zM457 1141q0 35 27 55.5t69 20.5q40 0 67 -21t27 -55t-27 -54t-67 -20q-42 0 -69 20t-27 54zM707 1141q0 35 27 55.5t69 20.5q40 0 67 -21t27 -55t-27 -54t-67 -20q-42 0 -69 20t-27 54zM582 1362q0 32 27.5 53
t68.5 21q39 0 66.5 -21t27.5 -53q0 -35 -27 -55.5t-67 -20.5q-43 0 -69.5 20t-26.5 56z" />
    <glyph glyph-name="Veh.fina" unicode="&#x6a4;" arabic-form="final" 
d="M930 598q-3 -121 -74 -236q115 -81 182 -81h41v-181h-41q-115 0 -254 109q-94 -129 -288 -129q-383 0 -383 371q0 114 14 229h154q-13 -136 -13 -229q0 -191 228 -191q109 0 155 49l-90 70q-110 85 -110 254q0 113 69 188q72 78 174 78q236 0 236 -301zM610 618
q0 -73 60 -118l65 -49q39 85 39 155q0 117 -80 117q-38 0 -61 -30t-23 -75zM457 1141q0 35 27 55.5t69 20.5q40 0 67 -21t27 -55t-27 -54t-67 -20q-42 0 -69 20t-27 54zM707 1141q0 35 27 55.5t69 20.5q40 0 67 -21t27 -55t-27 -54t-67 -20q-42 0 -69 20t-27 54zM582 1362
q0 32 27.5 53t68.5 21q39 0 66.5 -21t27.5 -53q0 -35 -27 -55.5t-67 -20.5q-43 0 -69.5 20t-26.5 56z" />
    <glyph glyph-name="Veh.init" unicode="&#x6a4;" arabic-form="initial" 
d="M850 578v-117q0 -153 -100 -256q-99 -105 -334 -105h-436v181h436q148 0 213 37.5t65 99.5q-82 -27 -141 -27q-134 0 -208.5 60.5t-74.5 181.5q0 119 74 192.5t221 73.5q285 0 285 -321zM430 639q0 -70 135 -70q35 0 129 17v20q0 115 -129 115q-135 0 -135 -82zM317 1141
q0 35 27.5 55.5t69.5 20.5q40 0 67 -21t27 -55t-27 -54t-67 -20q-42 0 -69.5 20t-27.5 54zM567 1141q0 35 27.5 55.5t69.5 20.5q40 0 67 -21t27 -55t-27 -54t-67 -20q-42 0 -69.5 20t-27.5 54zM442 1362q0 32 28 53t69 21q39 0 66.5 -21t27.5 -53q0 -35 -27 -55.5t-67 -20.5
q-43 0 -70 20t-27 56z" />
    <glyph glyph-name="Veh.medi" unicode="&#x6a4;" arabic-form="medial" 
d="M535 184q-125 -84 -291 -84h-264v181h227q139 0 178 26q-145 121 -145 287q0 131 86 217q85 88 204 88q120 0 205 -88q86 -86 86 -217q0 -167 -147 -287q39 -26 180 -26h225v-181h-264q-164 0 -280 84zM530 721q-64 0 -97.5 -38.5t-33.5 -96.5q0 -96 131 -197
q129 102 129 197q0 58 -32.5 96.5t-96.5 38.5zM309 1141q0 35 27.5 55.5t69.5 20.5q40 0 67 -21t27 -55t-27 -54t-67 -20q-42 0 -69.5 20t-27.5 54zM559 1141q0 35 27 55.5t69 20.5q40 0 67.5 -21t27.5 -55t-27.5 -54t-67.5 -20q-42 0 -69 20t-27 54zM434 1362q0 32 27.5 53
t68.5 21q39 0 67 -21t28 -53q0 -35 -27.5 -55.5t-67.5 -20.5q-43 0 -69.5 20t-26.5 56z" />
    <glyph glyph-name="Peheh.isol" unicode="&#x6a6;" arabic-form="isolated" 
d="M930 578v-117q0 -163 -101 -273q-99 -108 -333 -108q-383 0 -383 371q0 114 14 229h154q-13 -136 -13 -229q0 -191 228 -191q169 0 223 45q55 46 55 94q-34 -18 -92 -18q-110 0 -170.5 67t-60.5 185q0 113 69 188q72 78 174 78q236 0 236 -321zM610 639q0 -38 22.5 -59
t61.5 -21q43 0 80 16v31q0 115 -80 115q-38 0 -61 -23t-23 -59zM457 1130q0 35 27 55.5t69 20.5q40 0 67 -21t27 -55t-27 -53.5t-67 -19.5q-43 0 -69.5 19.5t-26.5 53.5zM457 1352q0 32 27 52.5t69 20.5q39 0 66.5 -20.5t27.5 -52.5q0 -35 -27 -55.5t-67 -20.5
q-43 0 -69.5 20t-26.5 56zM707 1151q0 35 27 55.5t69 20.5q40 0 67 -21t27 -55t-27 -55t-67 -21q-42 0 -69 20.5t-27 55.5zM707 1372q0 32 27.5 53t68.5 21q39 0 66.5 -21t27.5 -53q0 -35 -27 -55.5t-67 -20.5q-43 0 -69.5 20t-26.5 56z" />
    <glyph glyph-name="Peheh.fina" unicode="&#x6a6;" arabic-form="final" 
d="M930 598q-3 -121 -74 -236q115 -81 182 -81h41v-181h-41q-115 0 -254 109q-94 -129 -288 -129q-383 0 -383 371q0 114 14 229h154q-13 -136 -13 -229q0 -191 228 -191q109 0 155 49l-90 70q-110 85 -110 254q0 113 69 188q72 78 174 78q236 0 236 -301zM610 618
q0 -73 60 -118l65 -49q39 85 39 155q0 117 -80 117q-38 0 -61 -30t-23 -75zM457 1130q0 35 27 55.5t69 20.5q40 0 67 -21t27 -55t-27 -53.5t-67 -19.5q-43 0 -69.5 19.5t-26.5 53.5zM457 1352q0 32 27 52.5t69 20.5q39 0 66.5 -20.5t27.5 -52.5q0 -35 -27 -55.5t-67 -20.5
q-43 0 -69.5 20t-26.5 56zM707 1151q0 35 27 55.5t69 20.5q40 0 67 -21t27 -55t-27 -55t-67 -21q-42 0 -69 20.5t-27 55.5zM707 1372q0 32 27.5 53t68.5 21q39 0 66.5 -21t27.5 -53q0 -35 -27 -55.5t-67 -20.5q-43 0 -69.5 20t-26.5 56z" />
    <glyph glyph-name="Peheh.init" unicode="&#x6a6;" arabic-form="initial" 
d="M850 578v-117q0 -153 -100 -256q-99 -105 -334 -105h-436v181h436q148 0 213 37.5t65 99.5q-82 -27 -141 -27q-134 0 -208.5 60.5t-74.5 181.5q0 119 74 192.5t221 73.5q285 0 285 -321zM430 639q0 -70 135 -70q35 0 129 17v20q0 115 -129 115q-135 0 -135 -82zM317 1130
q0 35 27.5 55.5t69.5 20.5q40 0 67 -21t27 -55t-27 -53.5t-67 -19.5q-43 0 -70 19.5t-27 53.5zM317 1352q0 32 27.5 52.5t69.5 20.5q39 0 66.5 -20.5t27.5 -52.5q0 -35 -27 -55.5t-67 -20.5q-43 0 -70 20t-27 56zM567 1151q0 35 27.5 55.5t69.5 20.5q40 0 67 -21t27 -55
t-27 -55t-67 -21q-42 0 -69.5 20.5t-27.5 55.5zM567 1372q0 32 28 53t69 21q39 0 66.5 -21t27.5 -53q0 -35 -27 -55.5t-67 -20.5q-43 0 -70 20t-27 56z" />
    <glyph glyph-name="Peheh.medi" unicode="&#x6a6;" arabic-form="medial" 
d="M535 184q-125 -84 -291 -84h-264v181h227q139 0 178 26q-145 121 -145 287q0 131 86 217q85 88 204 88q120 0 205 -88q86 -86 86 -217q0 -167 -147 -287q39 -26 180 -26h225v-181h-264q-164 0 -280 84zM530 721q-64 0 -97.5 -38.5t-33.5 -96.5q0 -96 131 -197
q129 102 129 197q0 58 -32.5 96.5t-96.5 38.5zM309 1130q0 35 27.5 55.5t69.5 20.5q40 0 67 -21t27 -55t-27 -53.5t-67 -19.5q-43 0 -70 19.5t-27 53.5zM309 1352q0 32 27.5 52.5t69.5 20.5q39 0 66.5 -20.5t27.5 -52.5q0 -35 -27 -55.5t-67 -20.5q-43 0 -70 20t-27 56z
M559 1151q0 35 27 55.5t69 20.5q40 0 67.5 -21t27.5 -55t-27.5 -55t-67.5 -21q-42 0 -69 20.5t-27 55.5zM559 1372q0 32 27.5 53t68.5 21q39 0 67 -21t28 -53q0 -35 -27.5 -55.5t-67.5 -20.5q-43 0 -69.5 20t-26.5 56z" />
    <glyph glyph-name="Dyeh.isol" unicode="&#x684;" arabic-form="isolated" 
d="M643 -375h-2q-234 0 -371 137q-135 135 -135 353q0 400 500 581q-106 4 -174 4h-285v181h285q281 0 491 -88v-103l-272 -119q-387 -170 -387 -456q0 -147 90.5 -228.5t249.5 -81.5q152 0 338 80l53 -155q-164 -105 -381 -105zM598 78q0 35 27 55.5t69 20.5q40 0 67 -21
t27 -55t-27 -54t-67 -20q-42 0 -69 20t-27 54zM598 299q0 32 27.5 53t68.5 21q39 0 66.5 -21t27.5 -53q0 -35 -27 -55.5t-67 -20.5q-43 0 -69.5 20t-26.5 56z" />
    <glyph glyph-name="Dyeh.fina" unicode="&#x684;" arabic-form="final" 
d="M1079 281v-181h-123l-452 -2q-211 0 -211 -178q0 -108 59 -285h-153q-64 174 -64 316q0 330 369 330h192q-37 46 -37 141v104q0 174 -186 174h-297v181h297q340 0 340 -342v-117q0 -141 143 -141h123zM573 -299q0 32 28 53t69 21q39 0 66.5 -21t27.5 -53q0 -35 -27 -55.5
t-67 -20.5q-43 0 -70 20t-27 56zM573 -80q0 35 27.5 55.5t69.5 20.5q40 0 67 -21t27 -55q0 -35 -27 -55.5t-67 -20.5q-43 0 -70 20t-27 56z" />
    <glyph glyph-name="Dyeh.init" unicode="&#x684;" arabic-form="initial" 
d="M0 100h-20v181h20q225 0 444 145l336 221q-136 53 -319 53h-285v181h285q276 0 491 -140v-151q-170 -118 -430 -305q-262 -185 -522 -185zM434 -199q0 32 27.5 53t68.5 21q39 0 67 -21t28 -53q0 -35 -27.5 -55t-67.5 -20q-43 0 -69.5 19.5t-26.5 55.5zM434 20
q0 35 27 55.5t69 20.5q40 0 67.5 -21t27.5 -55q0 -35 -27.5 -55t-67.5 -20q-43 0 -69.5 19.5t-26.5 55.5z" />
    <glyph glyph-name="Dyeh.medi" unicode="&#x684;" arabic-form="medial" 
d="M1079 281v-181h-123q-297 0 -297 336v62l-161 -162q-236 -236 -478 -236h-40v181h40q195 0 363 165l221 220q-27 34 -129 34h-299v181h297q340 0 340 -342v-109q0 -149 143 -149h123zM465 -199q0 32 27.5 53t68.5 21q39 0 66.5 -21t27.5 -53q0 -35 -27 -55t-67 -20
q-43 0 -69.5 19.5t-26.5 55.5zM465 20q0 35 27 55.5t69 20.5q40 0 67 -21t27 -55q0 -35 -27 -55t-67 -20q-43 0 -69.5 19.5t-26.5 55.5z" />
    <glyph glyph-name="Nyeh.isol" unicode="&#x683;" arabic-form="isolated" 
d="M643 -375h-2q-234 0 -371 137q-135 135 -135 353q0 400 500 581q-106 4 -174 4h-285v181h285q281 0 491 -88v-103l-272 -119q-387 -170 -387 -456q0 -147 90.5 -228.5t249.5 -81.5q152 0 338 80l53 -155q-164 -105 -381 -105zM475 184q0 38 28 66.5t66 28.5q41 0 69 -28
t28 -67q0 -41 -28 -68.5t-69 -27.5q-39 0 -66.5 27.5t-27.5 68.5zM735 184q0 38 28 66.5t66 28.5q41 0 69 -28t28 -67q0 -41 -28 -68.5t-69 -27.5q-39 0 -66.5 27.5t-27.5 68.5z" />
    <glyph glyph-name="Nyeh.fina" unicode="&#x683;" arabic-form="final" 
d="M1079 281v-181h-123l-452 -2q-211 0 -211 -178q0 -108 59 -285h-153q-64 174 -64 316q0 330 369 330h192q-37 46 -37 141v104q0 174 -186 174h-297v181h297q340 0 340 -342v-117q0 -141 143 -141h123zM426 -145q0 41 27.5 68.5t66.5 27.5q41 0 68.5 -27.5t27.5 -68.5
q0 -39 -27.5 -67t-68.5 -28q-38 0 -66 28.5t-28 66.5zM686 -145q0 41 27.5 68.5t66.5 27.5q41 0 69 -27.5t28 -68.5q0 -39 -28 -67t-69 -28q-38 0 -66 28.5t-28 66.5z" />
    <glyph glyph-name="Nyeh.init" unicode="&#x683;" arabic-form="initial" 
d="M0 100h-20v181h20q225 0 444 145l336 221q-136 53 -319 53h-285v181h285q276 0 491 -140v-151q-170 -118 -430 -305q-262 -185 -522 -185zM295 -96q0 41 27.5 68.5t66.5 27.5q41 0 68.5 -27.5t27.5 -68.5q0 -39 -27.5 -66.5t-68.5 -27.5q-38 0 -66 28t-28 66zM555 -96
q0 41 27.5 68.5t66.5 27.5q41 0 68.5 -27.5t27.5 -68.5q0 -39 -27.5 -66.5t-68.5 -27.5q-38 0 -66 28t-28 66z" />
    <glyph glyph-name="Nyeh.medi" unicode="&#x683;" arabic-form="medial" 
d="M1079 281v-181h-123q-297 0 -297 336v62l-161 -162q-236 -236 -478 -236h-40v181h40q195 0 363 165l221 220q-27 34 -129 34h-299v181h297q340 0 340 -342v-109q0 -149 143 -149h123zM336 -96q0 41 27.5 68.5t66.5 27.5q41 0 68.5 -27.5t27.5 -68.5q0 -39 -27.5 -66.5
t-68.5 -27.5q-38 0 -66 28t-28 66zM596 -96q0 41 27.5 68.5t66.5 27.5q41 0 68.5 -27.5t27.5 -68.5q0 -39 -27.5 -66.5t-68.5 -27.5q-38 0 -66 28t-28 66z" />
    <glyph glyph-name="Tcheh.isol" unicode="&#x686;" arabic-form="isolated" 
d="M643 -375h-2q-234 0 -371 137q-135 135 -135 353q0 400 500 581q-106 4 -174 4h-285v181h285q281 0 491 -88v-103l-272 -119q-387 -170 -387 -456q0 -147 90.5 -228.5t249.5 -81.5q152 0 338 80l53 -155q-164 -105 -381 -105zM477 104q0 35 27 55.5t69 20.5
q40 0 67.5 -21t27.5 -55t-27.5 -53.5t-67.5 -19.5q-43 0 -69.5 19.5t-26.5 53.5zM727 104q0 35 27 55.5t69 20.5q40 0 67.5 -21t27.5 -55t-27.5 -53.5t-67.5 -19.5q-43 0 -69.5 19.5t-26.5 53.5zM602 326q0 32 27 52.5t69 20.5q39 0 67 -20.5t28 -52.5q0 -35 -27.5 -55.5
t-67.5 -20.5q-43 0 -69.5 20t-26.5 56z" />
    <glyph glyph-name="Tcheh.fina" unicode="&#x686;" arabic-form="final" 
d="M1079 281v-181h-123l-452 -2q-211 0 -211 -178q0 -108 59 -285h-153q-64 174 -64 316q0 330 369 330h192q-37 46 -37 141v104q0 174 -186 174h-297v181h297q340 0 340 -342v-117q0 -141 143 -141h123zM430 -80q0 36 26.5 56t69.5 20q40 0 67.5 -20.5t27.5 -55.5
q0 -34 -27.5 -55t-67.5 -21q-42 0 -69 20.5t-27 55.5zM680 -80q0 36 26.5 56t69.5 20q40 0 67 -20.5t27 -55.5q0 -34 -27 -55t-67 -21q-42 0 -69 20.5t-27 55.5zM555 -299q0 34 27 54t69 20q40 0 67 -20t27 -54t-27 -55t-67 -21q-42 0 -69 20.5t-27 55.5z" />
    <glyph glyph-name="Tcheh.init" unicode="&#x686;" arabic-form="initial" 
d="M0 100h-20v181h20q225 0 444 145l336 221q-136 53 -319 53h-285v181h285q276 0 491 -140v-151q-170 -118 -430 -305q-262 -185 -522 -185zM309 -80q0 36 27 56t70 20q40 0 67 -20.5t27 -55.5q0 -34 -27 -55t-67 -21q-42 0 -69.5 20.5t-27.5 55.5zM559 -80q0 36 26.5 56
t69.5 20q40 0 67.5 -20.5t27.5 -55.5q0 -34 -27.5 -55t-67.5 -21q-42 0 -69 20.5t-27 55.5zM434 -299q0 34 27 54t69 20q40 0 67.5 -20t27.5 -54t-27.5 -55t-67.5 -21q-42 0 -69 20.5t-27 55.5z" />
    <glyph glyph-name="Tcheh.medi" unicode="&#x686;" arabic-form="medial" 
d="M1079 281v-181h-123q-297 0 -297 336v62l-161 -162q-236 -236 -478 -236h-40v181h40q195 0 363 165l221 220q-27 34 -129 34h-299v181h297q340 0 340 -342v-109q0 -149 143 -149h123zM340 -80q0 36 26.5 56t69.5 20q40 0 67 -20.5t27 -55.5q0 -34 -27 -55t-67 -21
q-42 0 -69 20.5t-27 55.5zM590 -80q0 36 26.5 56t69.5 20q40 0 67 -20.5t27 -55.5q0 -34 -27 -55t-67 -21q-42 0 -69 20.5t-27 55.5zM465 -299q0 34 27 54t69 20q40 0 67 -20t27 -54t-27 -55t-67 -21q-42 0 -69 20.5t-27 55.5z" />
    <glyph glyph-name="Tcheheh.isol" unicode="&#x687;" arabic-form="isolated" 
d="M643 -375h-2q-234 0 -371 137q-135 135 -135 353q0 400 500 581q-106 4 -174 4h-285v181h285q281 0 491 -88v-103l-272 -119q-387 -170 -387 -456q0 -147 90.5 -228.5t249.5 -81.5q152 0 338 80l53 -155q-164 -105 -381 -105zM522 76q0 35 27 55.5t69 20.5q40 0 67.5 -21
t27.5 -55t-27.5 -54t-67.5 -20q-42 0 -69 20t-27 54zM522 297q0 32 27.5 53t68.5 21q39 0 67 -21t28 -53q0 -35 -27.5 -55.5t-67.5 -20.5q-43 0 -69.5 20t-26.5 56zM772 96q0 35 27 55.5t69 20.5q40 0 67.5 -21t27.5 -55t-27.5 -55t-67.5 -21q-42 0 -69 20.5t-27 55.5z
M772 317q0 32 27.5 53t68.5 21q39 0 67 -21t28 -53q0 -35 -27.5 -55t-67.5 -20q-43 0 -69.5 19.5t-26.5 55.5z" />
    <glyph glyph-name="Tcheheh.fina" unicode="&#x687;" arabic-form="final" 
d="M1079 281v-181h-123l-452 -2q-211 0 -211 -178q0 -108 59 -285h-153q-64 174 -64 316q0 330 369 330h192q-37 46 -37 141v104q0 174 -186 174h-297v181h297q340 0 340 -342v-117q0 -141 143 -141h123zM438 -299q0 32 28 53t69 21q39 0 66.5 -21t27.5 -53q0 -35 -27 -55.5
t-67 -20.5q-43 0 -70 20t-27 56zM438 -80q0 35 27.5 55.5t69.5 20.5q40 0 67 -21t27 -55q0 -35 -27 -55.5t-67 -20.5q-43 0 -70 20t-27 56zM688 -281q0 35 27 55.5t69 20.5q40 0 67.5 -21t27.5 -55t-27.5 -53.5t-67.5 -19.5q-43 0 -69.5 19.5t-26.5 53.5zM688 -59
q0 32 27 52.5t69 20.5q39 0 67 -20.5t28 -52.5q0 -35 -27.5 -55.5t-67.5 -20.5q-43 0 -69.5 20t-26.5 56z" />
    <glyph glyph-name="Tcheheh.init" unicode="&#x687;" arabic-form="initial" 
d="M0 100h-20v181h20q225 0 444 145l336 221q-136 53 -319 53h-285v181h285q276 0 491 -140v-151q-170 -118 -430 -305q-262 -185 -522 -185zM309 -299q0 32 28 53t69 21q39 0 66.5 -21t27.5 -53q0 -35 -27 -55.5t-67 -20.5q-43 0 -70 20t-27 56zM309 -80q0 35 27.5 55.5
t69.5 20.5q40 0 67 -21t27 -55q0 -35 -27 -55.5t-67 -20.5q-43 0 -70 20t-27 56zM559 -281q0 35 27 55.5t69 20.5q40 0 67.5 -21t27.5 -55t-27.5 -53.5t-67.5 -19.5q-43 0 -69.5 19.5t-26.5 53.5zM559 -59q0 32 27 52.5t69 20.5q39 0 67 -20.5t28 -52.5q0 -35 -27.5 -55.5
t-67.5 -20.5q-43 0 -69.5 20t-26.5 56z" />
    <glyph glyph-name="Tcheheh.medi" unicode="&#x687;" arabic-form="medial" 
d="M1079 281v-181h-123q-297 0 -297 336v62l-161 -162q-236 -236 -478 -236h-40v181h40q195 0 363 165l221 220q-27 34 -129 34h-299v181h297q340 0 340 -342v-109q0 -149 143 -149h123zM338 -299q0 32 27.5 53t68.5 21q39 0 66.5 -21t27.5 -53q0 -35 -27 -55.5t-67 -20.5
q-43 0 -69.5 20t-26.5 56zM338 -80q0 35 27 55.5t69 20.5q40 0 67 -21t27 -55q0 -35 -27 -55.5t-67 -20.5q-43 0 -69.5 20t-26.5 56zM588 -281q0 35 27 55.5t69 20.5q40 0 67 -21t27 -55t-27 -53.5t-67 -19.5q-43 0 -69.5 19.5t-26.5 53.5zM588 -59q0 32 27 52.5t69 20.5
q39 0 66.5 -20.5t27.5 -52.5q0 -35 -27 -55.5t-67 -20.5q-43 0 -69.5 20t-26.5 56z" />
    <glyph glyph-name="Ddahal.isol" unicode="&#x68d;" arabic-form="isolated" 
d="M768 453q0 122 -115 179t-374 68v181q358 -9 503 -115q148 -103 148 -303q0 -365 -449 -365h-407v181h413q281 0 281 174zM223 -190q0 41 27.5 68.5t66.5 27.5q41 0 69 -27.5t28 -68.5q0 -39 -28 -67t-69 -28q-38 0 -66 28.5t-28 66.5zM483 -190q0 41 28 68.5t67 27.5
q41 0 68.5 -27.5t27.5 -68.5q0 -39 -27.5 -67t-68.5 -28q-38 0 -66.5 28.5t-28.5 66.5z" />
    <glyph glyph-name="Ddahal.fina" unicode="&#x68d;" arabic-form="final" 
d="M1079 100h-28q-199 0 -263 82q-115 -74 -348 -86l-346 -16v180l355 14q278 18 278 152q0 148 -117 207q-116 58 -311 67v181q306 -11 449 -116.5t143 -338.5q0 -145 160 -145h28v-181zM223 -190q0 41 27.5 68.5t66.5 27.5q41 0 69 -27.5t28 -68.5q0 -39 -28 -67t-69 -28
q-38 0 -66 28.5t-28 66.5zM483 -190q0 41 28 68.5t67 27.5q41 0 68.5 -27.5t27.5 -68.5q0 -39 -27.5 -67t-68.5 -28q-38 0 -66.5 28.5t-28.5 66.5z" />
    <glyph glyph-name="Dahal.isol" unicode="&#x68c;" arabic-form="isolated" 
d="M768 453q0 122 -115 179t-374 68v181q358 -9 503 -115q148 -103 148 -303q0 -365 -449 -365h-407v181h413q281 0 281 174zM221 1165q0 38 28 66.5t66 28.5q41 0 69 -28t28 -67q0 -41 -28 -68.5t-69 -27.5q-39 0 -66.5 27.5t-27.5 68.5zM481 1165q0 38 28 66.5t66 28.5
q41 0 69 -28t28 -67q0 -41 -28 -68.5t-69 -27.5q-39 0 -66.5 27.5t-27.5 68.5z" />
    <glyph glyph-name="Dahal.fina" unicode="&#x68c;" arabic-form="final" 
d="M1079 100h-28q-199 0 -263 82q-115 -74 -348 -86l-346 -16v180l355 14q278 18 278 152q0 148 -117 207q-116 58 -311 67v181q306 -11 449 -116.5t143 -338.5q0 -145 160 -145h28v-181zM221 1165q0 38 28 66.5t66 28.5q41 0 69 -28t28 -67q0 -41 -28 -68.5t-69 -27.5
q-39 0 -66.5 27.5t-27.5 68.5zM481 1165q0 38 28 66.5t66 28.5q41 0 69 -28t28 -67q0 -41 -28 -68.5t-69 -27.5q-39 0 -66.5 27.5t-27.5 68.5z" />
    <glyph glyph-name="Dul.isol" unicode="&#x68e;" arabic-form="isolated" 
d="M768 453q0 122 -115 179t-374 68v181q358 -9 503 -115q148 -103 148 -303q0 -365 -449 -365h-407v181h413q281 0 281 174zM213 1141q0 35 27 55.5t69 20.5q40 0 67 -21t27 -55t-27 -54t-67 -20q-42 0 -69 20t-27 54zM463 1141q0 35 27 55.5t69 20.5q40 0 67 -21t27 -55
t-27 -54t-67 -20q-42 0 -69 20t-27 54zM338 1362q0 32 27.5 53t68.5 21q39 0 66.5 -21t27.5 -53q0 -35 -27 -55.5t-67 -20.5q-43 0 -69.5 20t-26.5 56z" />
    <glyph glyph-name="Dul.fina" unicode="&#x68e;" arabic-form="final" 
d="M1079 100h-28q-199 0 -263 82q-115 -74 -348 -86l-346 -16v180l355 14q278 18 278 152q0 148 -117 207q-116 58 -311 67v181q306 -11 449 -116.5t143 -338.5q0 -145 160 -145h28v-181zM221 1165q0 38 28 66.5t66 28.5q41 0 69 -28t28 -67q0 -41 -28 -68.5t-69 -27.5
q-39 0 -66.5 27.5t-27.5 68.5zM481 1165q0 38 28 66.5t66 28.5q41 0 69 -28t28 -67q0 -41 -28 -68.5t-69 -27.5q-39 0 -66.5 27.5t-27.5 68.5z" />
    <glyph glyph-name="Ddal.isol" unicode="&#x688;" arabic-form="isolated" 
d="M768 453q0 122 -115 179t-374 68v181q358 -9 503 -115q148 -103 148 -303q0 -365 -449 -365h-407v181h413q281 0 281 174zM391 1171h60q141 0 141 60q0 45 -62 45q-68 0 -139 -105zM487 1079h-278v92h78v351h104v-224q72 72 158 72q73 0 111 -36t38 -103
q0 -152 -211 -152z" />
    <glyph glyph-name="Ddal.fina" unicode="&#x688;" arabic-form="final" 
d="M1079 100h-28q-199 0 -263 82q-115 -74 -348 -86l-346 -16v180l355 14q278 18 278 152q0 148 -117 207q-116 58 -311 67v181q306 -11 449 -116.5t143 -338.5q0 -145 160 -145h28v-181zM391 1171h60q141 0 141 60q0 45 -62 45q-68 0 -139 -105zM487 1079h-278v92h78v351
h104v-224q72 72 158 72q73 0 111 -36t38 -103q0 -152 -211 -152z" />
    <glyph glyph-name="Jeh.isol" unicode="&#x698;" arabic-form="isolated" 
d="M723 418q0 211 -41 463h147q52 -247 52 -463q0 -345 -121 -510q-119 -162 -445 -162h-278v180h268q237 0 326 127q92 127 92 365zM510 1141q0 35 27 55.5t69 20.5q40 0 67 -21t27 -55t-27 -54t-67 -20q-42 0 -69 20t-27 54zM760 1141q0 35 27 55.5t69 20.5q40 0 67 -21
t27 -55t-27 -54t-67 -20q-42 0 -69 20t-27 54zM635 1362q0 32 27.5 53t68.5 21q39 0 66.5 -21t27.5 -53q0 -35 -27 -55.5t-67 -20.5q-43 0 -69.5 20t-26.5 56z" />
    <glyph glyph-name="Jeh.fina" unicode="&#x698;" arabic-form="final" 
d="M1079 100h-41q-113 0 -178 35q-68 -391 -555 -391h-268v180h268q240 0 328 119q90 122 90 365q0 168 -41 473h147q52 -247 52 -463q0 -137 157 -137h41v-181zM510 1141q0 35 27 55.5t69 20.5q40 0 67 -21t27 -55t-27 -54t-67 -20q-42 0 -69 20t-27 54zM760 1141
q0 35 27 55.5t69 20.5q40 0 67 -21t27 -55t-27 -54t-67 -20q-42 0 -69 20t-27 54zM635 1362q0 32 27.5 53t68.5 21q39 0 66.5 -21t27.5 -53q0 -35 -27 -55.5t-67 -20.5q-43 0 -69.5 20t-26.5 56z" />
    <glyph glyph-name="Rreh.isol" unicode="&#x691;" arabic-form="isolated" 
d="M723 418q0 211 -41 463h147q52 -247 52 -463q0 -345 -121 -510q-119 -162 -445 -162h-278v180h268q237 0 326 127q92 127 92 365zM684 1178h59q142 0 142 59q0 45 -62 45q-69 0 -139 -104zM780 1085h-278v93h78v350h104v-223q71 71 158 71q73 0 111 -36t38 -103
q0 -152 -211 -152z" />
    <glyph glyph-name="Rreh.fina" unicode="&#x691;" arabic-form="final" 
d="M1079 100h-41q-113 0 -178 35q-68 -391 -555 -391h-268v180h268q240 0 328 119q90 122 90 365q0 168 -41 473h147q52 -247 52 -463q0 -137 157 -137h41v-181zM664 1178h59q141 0 141 59q0 45 -61 45q-69 0 -139 -104zM760 1085h-279v93h78v350h105v-223q71 71 157 71
q73 0 111.5 -36t38.5 -103q0 -152 -211 -152z" />
    <glyph glyph-name="Keheh.isol" unicode="&#x6a9;" arabic-form="isolated" 
d="M557 80h-2h-80q-348 0 -348 371q0 86 20 229h156q-18 -150 -18 -229q0 -191 198 -191h74q174 0 174 139q0 51 -45 131l-186 338q-51 89 -51 183q0 186 215 272l278 113v-187l-258 -104q-82 -34 -82 -105q0 -52 21 -92l192 -348q70 -125 70 -221q0 -139 -81.5 -219
t-246.5 -80z" />
    <glyph glyph-name="Keheh.fina" unicode="&#x6a9;" arabic-form="final" 
d="M557 80h-82q-348 0 -348 371q0 86 20 229h156q-18 -150 -18 -229q0 -191 198 -191h41q174 0 174 139q0 49 -43 131l-180 328q-51 92 -51 184q0 185 215 271l303 123v-187l-283 -116q-81 -34 -81 -101q0 -53 20 -92l281 -512q83 -147 153 -147h47v-181h-57q-110 0 -186 88
q-76 -108 -279 -108z" />
    <glyph glyph-name="Keheh.init" unicode="&#x6a9;" arabic-form="initial" 
d="M455 100h-475v181h475q174 0 174 118q0 53 -56 109l-321 323q-77 74 -74 189q0 164 178 240l484 196v-186l-447 -183q-57 -26 -57 -83q0 -41 37 -78l307 -312q102 -102 102 -215q0 -139 -81.5 -219t-245.5 -80z" />
    <glyph glyph-name="Keheh.medi" unicode="&#x6a9;" arabic-form="medial" 
d="M1079 100h-47q-170 0 -327 195q-53 -195 -302 -195h-423v181h423q175 0 175 118q0 54 -56 113l-270 319q-77 83 -74 189q0 164 178 240l484 196v-186l-447 -183q-57 -26 -57 -83q0 -41 37 -78l426 -502q119 -143 233 -143h47v-181z" />
    <glyph glyph-name="Gaf.isol" unicode="&#x6af;" arabic-form="isolated" 
d="M942 1642v-118l-467 -191v117zM557 80h-2h-80q-348 0 -348 371q0 86 20 229h156q-18 -150 -18 -229q0 -191 198 -191h74q174 0 174 139q0 48 -53 131l-170 267q-59 92 -59 182q0 184 215 270l278 115v-186l-258 -107q-82 -34 -82 -102q0 -51 27 -92l176 -277
q80 -127 80 -221q0 -139 -81.5 -219t-246.5 -80z" />
    <glyph glyph-name="Gaf.fina" unicode="&#x6af;" arabic-form="final" 
d="M557 80h-82q-348 0 -348 371q0 86 20 229h156q-18 -150 -18 -229q0 -191 198 -191h41q174 0 174 139q0 49 -43 131l-147 267q-59 106 -59 182q0 184 215 270l278 115v-186l-258 -109q-82 -34 -82 -100q0 -45 27 -92l250 -449q83 -147 153 -147h47v-181h-57
q-110 0 -186 88q-76 -108 -279 -108zM942 1642v-118l-467 -191v117z" />
    <glyph glyph-name="Gaf.init" unicode="&#x6af;" arabic-form="initial" 
d="M455 100h-475v181h475q174 0 174 118q0 65 -64 111l-284 209q-106 77 -103 209q0 163 178 239l484 197v-186l-447 -183q-57 -26 -57 -84q0 -49 47 -84l264 -194q135 -99 135 -234q0 -139 -81.5 -219t-245.5 -80zM840 1645v-121l-613 -250v119z" />
    <glyph glyph-name="Gaf.medi" unicode="&#x6af;" arabic-form="medial" 
d="M1079 100h-47q-171 0 -321 170q-68 -170 -308 -170h-423v181h423q88 0 131 27t41 81q0 37 -51 88l-272 262q-77 71 -74 189q0 163 178 239l484 197v-186l-447 -183q-57 -26 -57 -84q0 -40 37 -77l481 -463q96 -90 178 -90h47v-181zM840 1645v-121l-613 -252v121z" />
    <glyph glyph-name="Gueh.isol" unicode="&#x6b3;" arabic-form="isolated" 
d="M942 1642v-118l-467 -191v117zM557 80h-2h-80q-348 0 -348 371q0 86 20 229h156q-18 -150 -18 -229q0 -191 198 -191h74q174 0 174 139q0 48 -53 131l-170 267q-59 92 -59 182q0 184 215 270l278 115v-186l-258 -107q-82 -34 -82 -102q0 -51 27 -92l176 -277
q80 -127 80 -221q0 -139 -81.5 -219t-246.5 -80zM434 -299q0 32 27.5 53t68.5 21q39 0 67 -21t28 -53q0 -35 -27.5 -55.5t-67.5 -20.5q-43 0 -69.5 20t-26.5 56zM434 -80q0 35 27 55.5t69 20.5q40 0 67.5 -21t27.5 -55q0 -35 -27.5 -55.5t-67.5 -20.5q-43 0 -69.5 20
t-26.5 56z" />
    <glyph glyph-name="Gueh.fina" unicode="&#x6b3;" arabic-form="final" 
d="M557 80h-82q-348 0 -348 371q0 86 20 229h156q-18 -150 -18 -229q0 -191 198 -191h41q174 0 174 139q0 49 -43 131l-147 267q-59 106 -59 182q0 184 215 270l278 115v-186l-258 -109q-82 -34 -82 -100q0 -45 27 -92l250 -449q83 -147 153 -147h47v-181h-57
q-110 0 -186 88q-76 -108 -279 -108zM942 1642v-118l-467 -191v117zM434 -299q0 32 27.5 53t68.5 21q39 0 67 -21t28 -53q0 -35 -27.5 -55.5t-67.5 -20.5q-43 0 -69.5 20t-26.5 56zM434 -80q0 35 27 55.5t69 20.5q40 0 67.5 -21t27.5 -55q0 -35 -27.5 -55.5t-67.5 -20.5
q-43 0 -69.5 20t-26.5 56z" />
    <glyph glyph-name="Gueh.init" unicode="&#x6b3;" arabic-form="initial" 
d="M455 100h-475v181h475q174 0 174 118q0 65 -64 111l-284 209q-106 77 -103 209q0 163 178 239l484 197v-186l-447 -183q-57 -26 -57 -84q0 -49 47 -84l264 -194q135 -99 135 -234q0 -139 -81.5 -219t-245.5 -80zM840 1645v-121l-613 -250v119zM354 -299q0 32 28 53t69 21
q39 0 66.5 -21t27.5 -53q0 -35 -27 -55.5t-67 -20.5q-43 0 -70 20t-27 56zM354 -80q0 35 27.5 55.5t69.5 20.5q40 0 67 -21t27 -55q0 -35 -27 -55.5t-67 -20.5q-43 0 -70 20t-27 56z" />
    <glyph glyph-name="Gueh.medi" unicode="&#x6b3;" arabic-form="medial" 
d="M1079 100h-47q-171 0 -321 170q-68 -170 -308 -170h-423v181h423q88 0 131 27t41 81q0 37 -51 88l-272 262q-77 71 -74 189q0 163 178 239l484 197v-186l-447 -183q-57 -26 -57 -84q0 -40 37 -77l481 -463q96 -90 178 -90h47v-181zM840 1645v-121l-613 -252v121z
M434 -299q0 32 27.5 53t68.5 21q39 0 67 -21t28 -53q0 -35 -27.5 -55.5t-67.5 -20.5q-43 0 -69.5 20t-26.5 56zM434 -80q0 35 27 55.5t69 20.5q40 0 67.5 -21t27.5 -55q0 -35 -27.5 -55.5t-67.5 -20.5q-43 0 -69.5 20t-26.5 56z" />
    <glyph glyph-name="Ngoeh.isol" unicode="&#x6b1;" arabic-form="isolated" 
d="M942 1642v-118l-467 -191v117zM557 80h-2h-80q-348 0 -348 371q0 86 20 229h156q-18 -150 -18 -229q0 -191 198 -191h74q174 0 174 139q0 48 -53 131l-170 267q-59 92 -59 182q0 184 215 270l278 115v-186l-258 -107q-82 -34 -82 -102q0 -51 27 -92l176 -277
q80 -127 80 -221q0 -139 -81.5 -219t-246.5 -80zM160 1675q0 38 28 66t66 28q41 0 68.5 -27.5t27.5 -66.5q0 -41 -27.5 -68.5t-68.5 -27.5q-39 0 -66.5 27.5t-27.5 68.5zM420 1675q0 38 28 66t66 28q41 0 68.5 -27.5t27.5 -66.5q0 -41 -27.5 -68.5t-68.5 -27.5
q-39 0 -66.5 27.5t-27.5 68.5z" />
    <glyph glyph-name="Ngoeh.fina" unicode="&#x6b1;" arabic-form="final" 
d="M557 80h-82q-348 0 -348 371q0 86 20 229h156q-18 -150 -18 -229q0 -191 198 -191h41q174 0 174 139q0 49 -43 131l-147 267q-59 106 -59 182q0 184 215 270l278 115v-186l-258 -109q-82 -34 -82 -100q0 -45 27 -92l250 -449q83 -147 153 -147h47v-181h-57
q-110 0 -186 88q-76 -108 -279 -108zM942 1642v-118l-467 -191v117zM160 1675q0 38 28 66t66 28q41 0 68.5 -27.5t27.5 -66.5q0 -41 -27.5 -68.5t-68.5 -27.5q-39 0 -66.5 27.5t-27.5 68.5zM420 1675q0 38 28 66t66 28q41 0 68.5 -27.5t27.5 -66.5q0 -41 -27.5 -68.5
t-68.5 -27.5q-39 0 -66.5 27.5t-27.5 68.5z" />
    <glyph glyph-name="Ngoeh.init" unicode="&#x6b1;" arabic-form="initial" 
d="M455 100h-475v181h475q174 0 174 118q0 65 -64 111l-284 209q-106 77 -103 209q0 163 178 239l484 197v-186l-447 -183q-57 -26 -57 -84q0 -49 47 -84l264 -194q135 -99 135 -234q0 -139 -81.5 -219t-245.5 -80zM840 1645v-121l-613 -250v119zM80 1675q0 38 28 66t66 28
q41 0 68.5 -27.5t27.5 -66.5q0 -41 -27.5 -68.5t-68.5 -27.5q-39 0 -66.5 27.5t-27.5 68.5zM340 1675q0 38 28 66t66 28q41 0 68.5 -27.5t27.5 -66.5q0 -41 -27.5 -68.5t-68.5 -27.5q-39 0 -66.5 27.5t-27.5 68.5z" />
    <glyph glyph-name="Ngoeh.medi" unicode="&#x6b1;" arabic-form="medial" 
d="M1079 100h-47q-171 0 -321 170q-68 -170 -308 -170h-423v181h423q88 0 131 27t41 81q0 37 -51 88l-272 262q-77 71 -74 189q0 163 178 239l484 197v-186l-447 -183q-57 -26 -57 -84q0 -40 37 -77l481 -463q96 -90 178 -90h47v-181zM840 1645v-121l-613 -252v121z
M111 1675q0 38 28 66t66 28q41 0 68.5 -27.5t27.5 -66.5q0 -41 -27.5 -68.5t-68.5 -27.5q-39 0 -66.5 27.5t-27.5 68.5zM371 1675q0 38 28 66t66 28q41 0 68.5 -27.5t27.5 -66.5q0 -41 -27.5 -68.5t-68.5 -27.5q-39 0 -66.5 27.5t-27.5 68.5z" />
    <glyph glyph-name="NoonGhunna.isol" unicode="&#x6ba;" arabic-form="isolated" 
d="M756 12q0 206 -70 422h156q69 -213 69 -432q0 -367 -356 -367h-59q-349 0 -349 416q0 154 21 365h156q-21 -212 -21 -365q0 -235 201 -235h53q199 0 199 196z" />
    <glyph glyph-name="NoonGhunna.fina" unicode="&#x6ba;" arabic-form="final" 
d="M1079 100h-47q-74 0 -127 27q6 -73 6 -125q0 -367 -356 -367h-59q-349 0 -349 416q0 154 21 365h156q-21 -212 -21 -365q0 -235 201 -235h53q199 0 199 196q0 206 -70 422h156q40 -153 190 -153h47v-181z" />
    <glyph glyph-name="Rnoon.isol" unicode="&#x6bb;" arabic-form="isolated" 
d="M756 12q0 206 -70 422h156q69 -213 69 -432q0 -367 -356 -367h-59q-349 0 -349 416q0 154 21 365h156q-21 -212 -21 -365q0 -235 201 -235h53q199 0 199 196zM451 799h59q141 0 141 59q0 45 -61 45q-69 0 -139 -104zM547 707h-279v92h78v350h105v-223q71 71 157 71
q73 0 111.5 -36t38.5 -103q0 -151 -211 -151z" />
    <glyph glyph-name="Rnoon.fina" unicode="&#x6bb;" arabic-form="final" 
d="M1079 100h-47q-74 0 -127 27q6 -73 6 -125q0 -367 -356 -367h-59q-349 0 -349 416q0 154 21 365h156q-21 -212 -21 -365q0 -235 201 -235h53q199 0 199 196q0 206 -70 422h156q40 -153 190 -153h47v-181zM451 799h59q141 0 141 59q0 45 -61 45q-69 0 -139 -104zM547 707
h-279v92h78v350h105v-223q71 71 157 71q73 0 111.5 -36t38.5 -103q0 -151 -211 -151z" />
    <glyph glyph-name="Rnoon.init" unicode="&#x6bb;" arabic-form="initial" 
d="M266 100h-286v181h286q240 0 240 153h156q0 -334 -396 -334zM451 799h59q141 0 141 59q0 45 -61 45q-69 0 -139 -104zM547 707h-279v92h78v350h105v-223q71 71 157 71q73 0 111.5 -36t38.5 -103q0 -151 -211 -151z" />
    <glyph glyph-name="Rnoon.medi" unicode="&#x6bb;" arabic-form="medial" 
d="M451 799h59q141 0 141 59q0 45 -61 45q-69 0 -139 -104zM547 707h-279v92h78v350h105v-223q71 71 157 71q73 0 111.5 -36t38.5 -103q0 -151 -211 -151zM1079 100h-231q-218 0 -318 103q-100 -103 -317 -103h-233v181h233q240 0 240 153h155q0 -153 240 -153h231v-181z
" />
    <glyph glyph-name="HehHamza.isol" unicode="&#x6c0;" arabic-form="isolated" 
d="M530 723q-63 0 -147 -96q-80 -95 -80 -181q0 -94 54 -140t171 -46q119 0 173.5 46t54.5 140q0 86 -80 181q-81 96 -146 96zM530 80q-200 0 -295.5 91t-95.5 247q0 154 117 317q117 164 274 164q159 0 273 -164q117 -163 117 -317q0 -156 -95 -247t-295 -91zM764 1174v-97
h-451v97h105v92q0 141 133 141h164v-92h-127q-47 0 -47 -49v-92h223z" />
    <glyph glyph-name="HehHamza.fina" unicode="&#x6c0;" arabic-form="final" 
d="M1079 100h-86q-171 0 -260 99q-134 -70 -295 -70q-225 0 -225 240q0 321 393 450q0 42 2 62h158q-4 -86 -4 -121q0 -182 47 -328q47 -141 184 -141h86v-191zM367 399q0 -80 90 -80q99 0 209 37q-47 115 -56 285q-243 -95 -243 -242zM764 1174v-97h-451v97h105v92
q0 141 133 141h164v-92h-127q-47 0 -47 -49v-92h223z" />
    <glyph glyph-name="Goal.isol" unicode="&#x6c1;" arabic-form="isolated" 
d="M934 281v-181h-72q-188 0 -235 191l-37 160q-27 112 -121 112q-92 0 -119 -110l-90 -394h-160l97 410q64 295 272 295t260 -229l33 -136q27 -118 133 -118h39z" />
    <glyph glyph-name="Goal.fina" unicode="&#x6c1;" arabic-form="final" 
d="M1079 281v-181h-125q-209 0 -292 191l-72 160q-46 112 -121 112q-92 0 -119 -110l-90 -394h-160l97 410q64 295 272 295q170 0 268 -229l62 -136q52 -118 155 -118h125z" />
    <glyph glyph-name="HehDoach.isol" unicode="&#x6be;" arabic-form="isolated" 
d="M528 819l316 -280q117 -105 117 -211q0 -118 -84.5 -183t-223.5 -65q-152 0 -301 113q-122 -93 -274 -93h-98v181h98q118 0 160 22q-138 132 -138 287q0 135 71 222t183 87q85 0 174 -80zM469 305q68 -45 184 -45q152 0 152 70q0 40 -41 78l-156 137q-18 -119 -139 -240z
M354 721q-47 0 -72.5 -36t-25.5 -103q0 -92 96 -185q101 91 101 185q0 66 -27.5 102.5t-71.5 36.5z" />
    <glyph glyph-name="HehDoach.fina" unicode="&#x6be;" arabic-form="final" 
d="M1040 281h39v-181h-49q-107 0 -166 50q-79 -70 -211 -70q-152 0 -301 113q-122 -93 -274 -93h-98v181h98q118 0 160 22q-138 132 -138 287q0 135 71 222t183 87q85 0 174 -80l316 -280q96 -84 96 -191q0 -67 100 -67zM469 305q68 -45 184 -45q131 0 131 80q0 48 -41 86
l-135 119q-18 -119 -139 -240zM354 721q-47 0 -72.5 -36t-25.5 -103q0 -92 96 -185q101 91 101 185q0 66 -27.5 102.5t-71.5 36.5z" />
    <glyph glyph-name="HehDoach.init" unicode="&#x6be;" arabic-form="initial" 
d="M528 819l316 -280q117 -105 117 -211q0 -118 -84.5 -183t-223.5 -65q-152 0 -301 113q-122 -93 -274 -93h-98v181h98q118 0 160 22q-138 132 -138 287q0 135 71 222t183 87q85 0 174 -80zM469 305q68 -45 184 -45q152 0 152 70q0 40 -41 78l-156 137q-18 -119 -139 -240z
M354 721q-47 0 -72.5 -36t-25.5 -103q0 -92 96 -185q101 91 101 185q0 66 -27.5 102.5t-71.5 36.5z" />
    <glyph glyph-name="HehDoach.medi" unicode="&#x6be;" arabic-form="medial" 
d="M1040 281h39v-181h-49q-107 0 -166 50q-79 -70 -211 -70q-152 0 -301 113q-122 -93 -274 -93h-98v181h98q118 0 160 22q-138 132 -138 287q0 135 71 222t183 87q85 0 174 -80l316 -280q96 -84 96 -191q0 -67 100 -67zM469 305q68 -45 184 -45q131 0 131 80q0 48 -41 86
l-135 119q-18 -119 -139 -240zM354 721q-47 0 -72.5 -36t-25.5 -103q0 -92 96 -185q101 91 101 185q0 66 -27.5 102.5t-71.5 36.5z" />
    <glyph glyph-name="YehBarree.isol" unicode="&#x6d2;" arabic-form="isolated" 
d="M989 100h-538q-202 0 -283 72q-78 75 -78 186q0 141 143 248l177 142q86 151 211 151q148 0 221 -192l-129 -62q-34 76 -88 76q-61 0 -107 -100l-233 -187q-41 -35 -41 -76q0 -77 147 -77h598v-181z" />
    <glyph glyph-name="YehBarree.fina" unicode="&#x6d2;" arabic-form="final" 
d="M1079 100h-628q-202 0 -283 72q-78 75 -78 186q0 141 143 248l359 293l108 -127l-415 -338q-41 -35 -41 -76q0 -77 147 -77h688v-181z" />
    <glyph glyph-name="YehBarreeHamza.isol" unicode="&#x6d3;" arabic-form="isolated" 
d="M989 100h-538q-202 0 -283 72q-78 75 -78 186q0 141 143 248l177 142q86 151 211 151q148 0 221 -192l-129 -62q-34 76 -88 76q-61 0 -107 -100l-233 -187q-41 -35 -41 -76q0 -77 147 -77h598v-181zM743 1182v-97h-450v97h104v92q0 141 133 141h164v-92h-127
q-47 0 -47 -49v-92h223z" />
    <glyph glyph-name="YehBarreeHamza.fina" unicode="&#x6d3;" arabic-form="final" 
d="M743 1182v-97h-450v97h104v92q0 141 133 141h164v-92h-127q-47 0 -47 -49v-92h223zM1079 100h-628q-202 0 -283 72q-78 75 -78 186q0 141 143 248l359 293l108 -127l-415 -338q-41 -35 -41 -76q0 -77 147 -77h688v-181z" />
    <glyph glyph-name="KafThreeDots.isol" unicode="&#x6ad;" arabic-form="isolated" 
d="M338 887h158q71 0 71 -72v-106q0 -142 -135 -142h-219v95h184q48 0 45 49v82h-157q-72 0 -72 71v107q0 141 133 141h211v-94h-174q-48 0 -45 -49v-82zM754 254q0 452 -70 1325h156q69 -860 69 -1325q0 -528 -444 -528q-348 0 -348 407q0 118 18 268h158
q-21 -150 -21 -268q0 -225 205 -225q138 0 207.5 89t69.5 257zM160 1305q0 35 27 55t69 20q40 0 67 -20.5t27 -54.5t-27 -54t-67 -20q-42 0 -69 20t-27 54zM410 1305q0 35 27 55t69 20q40 0 67 -20.5t27 -54.5t-27 -54t-67 -20q-42 0 -69 20t-27 54zM285 1526q0 32 27 52.5
t69 20.5q39 0 66.5 -20.5t27.5 -52.5q0 -35 -27 -55.5t-67 -20.5q-43 0 -69.5 20t-26.5 56z" />
    <glyph glyph-name="KafThreeDots.fina" unicode="&#x6ad;" arabic-form="final" 
d="M160 1305q0 35 27 55t69 20q40 0 67 -20.5t27 -54.5t-27 -54t-67 -20q-42 0 -69 20t-27 54zM410 1305q0 35 27 55t69 20q40 0 67 -20.5t27 -54.5t-27 -54t-67 -20q-42 0 -69 20t-27 54zM285 1526q0 32 27 52.5t69 20.5q39 0 66.5 -20.5t27.5 -52.5q0 -35 -27 -55.5
t-67 -20.5q-43 0 -69.5 20t-26.5 56zM1079 100h-28q-93 0 -142 43q-6 -159 -110 -284q-112 -133 -334 -133q-348 0 -348 407q0 118 18 268h158q-21 -150 -21 -268q0 -225 205 -225q138 0 207.5 89t69.5 257q0 416 -49 1325h155q32 -627 45 -1169q9 -129 146 -129h28v-181z
M338 887h158q71 0 71 -72v-106q0 -142 -135 -142h-219v95h184q48 0 45 49v82h-157q-72 0 -72 71v107q0 141 133 141h211v-94h-174q-48 0 -45 -49v-82z" />
    <glyph glyph-name="Ng.init" unicode="&#x6ad;" arabic-form="initial" 
d="M455 100h-475v181h475q174 0 174 118q0 53 -56 109l-321 323q-77 74 -74 189q0 164 178 240l484 196v-186l-447 -183q-57 -26 -57 -83q0 -41 37 -78l307 -312q102 -102 102 -215q0 -139 -81.5 -219t-245.5 -80zM160 1505q0 35 27 55.5t69 20.5q40 0 67 -21t27 -55
t-27 -53.5t-67 -19.5q-43 0 -69.5 19.5t-26.5 53.5zM410 1505q0 35 27 55.5t69 20.5q40 0 67 -21t27 -55t-27 -53.5t-67 -19.5q-43 0 -69.5 19.5t-26.5 53.5zM285 1726q0 32 27.5 53t68.5 21q39 0 66.5 -21t27.5 -53q0 -35 -27 -55t-67 -20q-43 0 -69.5 19.5t-26.5 55.5z
" />
    <glyph glyph-name="Ng.medi" unicode="&#x6ad;" arabic-form="medial" 
d="M1079 100h-47q-170 0 -327 195q-53 -195 -302 -195h-423v181h423q175 0 175 118q0 54 -56 113l-270 319q-77 83 -74 189q0 164 178 240l484 196v-186l-447 -183q-57 -26 -57 -83q0 -41 37 -78l426 -502q119 -143 233 -143h47v-181zM160 1505q0 35 27 55.5t69 20.5
q40 0 67 -21t27 -55t-27 -53.5t-67 -19.5q-43 0 -69.5 19.5t-26.5 53.5zM410 1505q0 35 27 55.5t69 20.5q40 0 67 -21t27 -55t-27 -53.5t-67 -19.5q-43 0 -69.5 19.5t-26.5 53.5zM285 1726q0 32 27.5 53t68.5 21q39 0 66.5 -21t27.5 -53q0 -35 -27 -55t-67 -20
q-43 0 -69.5 19.5t-26.5 55.5z" />
    <glyph glyph-name="ArabU.isol" unicode="&#x6c7;" arabic-form="isolated" 
d="M909 410v-281q0 -383 -438 -383h-381v180h381q283 0 283 203v66q-70 -15 -131 -15q-158 0 -240 91.5t-82 254.5q0 165 88 269t215 104q305 0 305 -489zM463 526q0 -74 43 -120t119 -46q69 0 129 17v84q0 260 -150 260q-59 0 -100 -53.5t-41 -141.5zM807 1352
q0 -105 -98 -148l-41 -18l47 -74l-90 -45l-50 78l-292 -135v110l241 109q-43 70 -43 123q0 62 44 100.5t118 38.5q73 0 118.5 -38.5t45.5 -100.5zM702 1341q0 18 -17.5 29.5t-43.5 11.5t-41.5 -11t-15.5 -30q0 -23 14 -43l16 -26l48 20q40 21 40 49z" />
    <glyph glyph-name="ArabU.fina" unicode="&#x6c7;" arabic-form="final" 
d="M807 1352q0 -105 -98 -148l-41 -18l47 -74l-90 -45l-50 78l-292 -135v110l241 109q-43 70 -43 123q0 62 44 100.5t118 38.5q73 0 118.5 -38.5t45.5 -100.5zM702 1341q0 18 -17.5 29.5t-43.5 11.5t-41.5 -11t-15.5 -30q0 -23 14 -43l16 -26l48 20q40 21 40 49zM1079 100
h-170q-41 -354 -497 -354h-322v180h359q294 0 303 174h-90q-177 0 -269 100.5t-92 280.5q0 202 84.5 310t218.5 108q305 0 305 -489v-129h170v-181zM463 481q0 -102 44.5 -151t158.5 -49h88v129q0 311 -150 311q-63 0 -102 -61.5t-39 -178.5z" />
    <glyph glyph-name="ArabOE.isol" unicode="&#x6c6;" arabic-form="isolated" 
d="M909 410v-281q0 -383 -438 -383h-381v180h381q283 0 283 203v66q-70 -15 -131 -15q-158 0 -240 91.5t-82 254.5q0 165 88 269t215 104q305 0 305 -489zM463 526q0 -74 43 -120t119 -46q69 0 129 17v84q0 260 -150 260q-59 0 -100 -53.5t-41 -141.5zM655 1094h-127
l-196 295h149l111 -164l108 164h150z" />
    <glyph glyph-name="ArabOE.fina" unicode="&#x6c6;" arabic-form="final" 
d="M655 1094h-127l-196 295h149l111 -164l108 164h150zM1079 100h-170q-41 -354 -497 -354h-322v180h359q294 0 303 174h-90q-177 0 -269 100.5t-92 280.5q0 202 84.5 310t218.5 108q305 0 305 -489v-129h170v-181zM463 481q0 -102 44.5 -151t158.5 -49h88v129
q0 311 -150 311q-63 0 -102 -61.5t-39 -178.5z" />
    <glyph glyph-name="ArabYu.isol" unicode="&#x6c8;" arabic-form="isolated" 
d="M909 410v-281q0 -383 -438 -383h-381v180h381q283 0 283 203v66q-70 -15 -131 -15q-158 0 -240 91.5t-82 254.5q0 165 88 269t215 104q305 0 305 -489zM463 526q0 -74 43 -120t119 -46q69 0 129 17v84q0 260 -150 260q-59 0 -100 -53.5t-41 -141.5zM653 1540v-442h-116
v442h116z" />
    <glyph glyph-name="ArabYu.fina" unicode="&#x6c8;" arabic-form="final" 
d="M653 1540v-442h-116v442h116zM1079 100h-170q-41 -354 -497 -354h-322v180h359q294 0 303 174h-90q-177 0 -269 100.5t-92 280.5q0 202 84.5 310t218.5 108q305 0 305 -489v-129h170v-181zM463 481q0 -102 44.5 -151t158.5 -49h88v129q0 311 -150 311q-63 0 -102 -61.5
t-39 -178.5z" />
    <glyph glyph-name="ArabUHamza.isol" unicode="&#x677;" arabic-form="isolated" 
d="M909 410v-281q0 -383 -438 -383h-381v180h381q283 0 283 203v66q-70 -15 -131 -15q-158 0 -240 91.5t-82 254.5q0 165 88 269t215 104q305 0 305 -489zM463 526q0 -74 43 -120t119 -46q69 0 129 17v84q0 260 -150 260q-59 0 -100 -53.5t-41 -141.5zM1030 1192v-96h-450
v96h104v92q0 141 133 141h164v-92h-127q-47 0 -47 -49v-92h223zM565 1341q0 -104 -98 -147l-41 -18l47 -74l-90 -45l-49 78l-293 -136v111l242 109q-43 70 -43 122q0 62 43.5 101t117.5 39q73 0 118.5 -39t45.5 -101zM461 1331q0 18 -18 29.5t-44 11.5t-41.5 -11t-15.5 -30
q0 -23 14 -43l17 -26l47 20q41 21 41 49z" />
    <glyph glyph-name="ArabVe.isol" unicode="&#x6cb;" arabic-form="isolated" 
d="M909 410v-281q0 -383 -438 -383h-381v180h381q283 0 283 203v66q-70 -15 -131 -15q-158 0 -240 91.5t-82 254.5q0 165 88 269t215 104q305 0 305 -489zM463 526q0 -74 43 -120t119 -46q69 0 129 17v84q0 260 -150 260q-59 0 -100 -53.5t-41 -141.5zM367 1141
q0 35 27 55.5t69 20.5q40 0 67 -21t27 -55t-27 -54t-67 -20q-42 0 -69 20t-27 54zM616 1141q0 35 27.5 55.5t69.5 20.5q40 0 67 -21t27 -55t-27 -54t-67 -20q-42 0 -69.5 20t-27.5 54zM492 1362q0 32 27.5 53t68.5 21q39 0 66.5 -21t27.5 -53q0 -35 -27 -55.5t-67 -20.5
q-43 0 -69.5 20t-26.5 56z" />
    <glyph glyph-name="ArabVe.fina" unicode="&#x6cb;" arabic-form="final" 
d="M367 1141q0 35 27 55.5t69 20.5q40 0 67 -21t27 -55t-27 -54t-67 -20q-42 0 -69 20t-27 54zM616 1141q0 35 27.5 55.5t69.5 20.5q40 0 67 -21t27 -55t-27 -54t-67 -20q-42 0 -69.5 20t-27.5 54zM492 1362q0 32 27.5 53t68.5 21q39 0 66.5 -21t27.5 -53q0 -35 -27 -55.5
t-67 -20.5q-43 0 -69.5 20t-26.5 56zM1079 100h-170q-41 -354 -497 -354h-322v180h359q294 0 303 174h-90q-177 0 -269 100.5t-92 280.5q0 202 84.5 310t218.5 108q305 0 305 -489v-129h170v-181zM463 481q0 -102 44.5 -151t158.5 -49h88v129q0 311 -150 311
q-63 0 -102 -61.5t-39 -178.5z" />
    <glyph glyph-name="KirghizOE.isol" unicode="&#x6c5;" arabic-form="isolated" 
d="M909 410v-281q0 -383 -438 -383h-381v180h381q220 0 270 127h-440v160h453v102q-75 -16 -131 -16q-159 0 -240.5 78t-81.5 221q0 135 88 217q90 84 215 84q305 0 305 -489zM463 598q0 -55 42.5 -87t119.5 -32q69 0 129 17v14q0 211 -150 211q-59 0 -100 -34t-41 -89z" />
    <glyph glyph-name="KirghizOE.fina" unicode="&#x6c5;" arabic-form="final" 
d="M909 410v-129h170v-181h-172q-12 -354 -436 -354h-381v180h381q256 0 283 174h-453v181h453v84q-70 -15 -131 -15q-322 0 -322 248q0 135 88 217q90 84 215 84q305 0 305 -489zM463 598q0 -51 39 -69.5t123 -18.5q73 0 129 16q0 195 -150 195q-59 0 -100 -34t-41 -89z
" />
    <glyph glyph-name="KirghizYu.isol" unicode="&#x6c9;" arabic-form="isolated" 
d="M909 410v-281q0 -383 -438 -383h-381v180h381q283 0 283 203v66q-70 -15 -131 -15q-158 0 -240 91.5t-82 254.5q0 165 88 269t215 104q305 0 305 -489zM463 526q0 -74 43 -120t119 -46q69 0 129 17v84q0 260 -150 260q-59 0 -100 -53.5t-41 -141.5zM526 1370h127
l195 -295h-150l-108 164l-111 -164h-149z" />
    <glyph glyph-name="KirghizYu.fina" unicode="&#x6c9;" arabic-form="final" 
d="M526 1370h127l195 -295h-150l-108 164l-111 -164h-149zM1079 100h-170q-41 -354 -497 -354h-322v180h359q294 0 303 174h-90q-177 0 -269 100.5t-92 280.5q0 202 84.5 310t218.5 108q305 0 305 -489v-129h170v-181zM463 481q0 -102 44.5 -151t158.5 -49h88v129
q0 311 -150 311q-63 0 -102 -61.5t-39 -178.5z" />
    <glyph glyph-name="ArabE.isol" unicode="&#x6d0;" arabic-form="isolated" 
d="M485 236q169 0 238.5 20.5t69.5 75.5q0 45 -105 63q-182 35 -182 203q0 140 72 220.5t190 80.5q125 0 188 -106l-100 -146q-34 76 -98 76q-39 0 -67.5 -28t-28.5 -70q0 -60 102 -78q184 -34 184 -197q0 -147 -110.5 -221t-356.5 -74q-352 0 -352 291q0 80 27 154h153
q-22 -77 -22 -127q0 -137 198 -137zM434 -80q0 36 26.5 56t69.5 20q40 0 67.5 -20.5t27.5 -55.5q0 -34 -27.5 -55t-67.5 -21q-42 0 -69 20.5t-27 55.5zM434 -299q0 34 27 54t69 20q40 0 67.5 -20t27.5 -54t-27.5 -55t-67.5 -21q-42 0 -69 20.5t-27 55.5z" />
    <glyph glyph-name="ArabE.fina" unicode="&#x6d0;" arabic-form="final" 
d="M1083 281v-181h-39q-181 0 -208 189l-21 162q-9 61 -63 61q-41 0 -63.5 -40.5t-22.5 -115.5q0 -155 -65 -227t-181 -72q-291 0 -291 289q0 60 16 154h154q-12 -80 -12 -140q0 -112 112 -112q111 0 111 139q0 152 72.5 232.5t179.5 80.5q179 0 209 -231l14 -102
q9 -86 80 -86h18zM434 -80q0 36 26.5 56t69.5 20q40 0 67.5 -20.5t27.5 -55.5q0 -34 -27.5 -55t-67.5 -21q-42 0 -69 20.5t-27 55.5zM434 -299q0 34 27 54t69 20q40 0 67.5 -20t27.5 -54t-27.5 -55t-67.5 -21q-42 0 -69 20.5t-27 55.5z" />
    <glyph glyph-name="ArabE.init" unicode="&#x6d0;" arabic-form="initial" 
d="M266 100h-286v181h286q240 0 240 153h156q0 -334 -396 -334zM403 -299q0 32 28 53t69 21q39 0 66.5 -21t27.5 -53q0 -35 -27 -55.5t-67 -20.5q-43 0 -70 20t-27 56zM403 -80q0 35 27.5 55.5t69.5 20.5q40 0 67 -21t27 -55q0 -35 -27 -55.5t-67 -20.5q-43 0 -70 20t-27 56
z" />
    <glyph glyph-name="ArabE.medi" unicode="&#x6d0;" arabic-form="medial" 
d="M1079 100h-231q-218 0 -318 103q-100 -103 -317 -103h-233v181h233q240 0 240 153h155q0 -153 240 -153h231v-181zM434 -299q0 32 27.5 53t68.5 21q39 0 67 -21t28 -53q0 -35 -27.5 -55.5t-67.5 -20.5q-43 0 -69.5 20t-26.5 56zM434 -80q0 35 27 55.5t69 20.5
q40 0 67.5 -21t27.5 -55q0 -35 -27.5 -55.5t-67.5 -20.5q-43 0 -69.5 20t-26.5 56z" />
    <glyph glyph-name="AlefMaksura.init" unicode="&#x649;" arabic-form="initial" 
d="M518 487q0 197 -37 394h156q39 -192 39 -394q0 -193 -98 -290t-320 -97h-278v181h286q141 0 196.5 50t55.5 156z" />
    <glyph glyph-name="AlefMaksura.medi" unicode="&#x649;" arabic-form="medial" 
d="M1079 100h-276q-172 0 -250 66q-107 -66 -254 -66h-319v181h327q98 0 140 42t42 134q0 227 -40 424h155q41 -202 41 -455q0 -145 158 -145h276v-181z" />
    <glyph glyph-name="YehFarsi.isol" unicode="&#x6cc;" arabic-form="isolated" 
d="M518 -190h60q217 0 217 221q0 118 -113 145q-176 47 -176 301q0 196 84 309q82 113 196 113q105 0 175 -76l-82 -129q-47 29 -82 29q-62 0 -98.5 -57.5t-36.5 -151.5q0 -140 96 -164q192 -52 192 -299q0 -422 -397 -422h-41q-383 0 -383 432q0 146 27 439h153
q-22 -306 -22 -439q0 -251 231 -251z" />
    <glyph glyph-name="YehFarsi.fina" unicode="&#x6cc;" arabic-form="final" 
d="M1083 281v-181h-39q-181 0 -208 189l-21 162q-9 61 -63 61q-41 0 -63.5 -34.5t-22.5 -100.5q0 -15 6 -62l35 -264q6 -46 6 -88q0 -164 -76 -251t-217 -87q-291 0 -291 418q0 164 27 457h153q-22 -306 -22 -457q0 -227 133 -227t133 170q0 15 -4 65l-31 225q-8 49 -8 99
q0 152 76 237q76 88 176 88q179 0 209 -231l14 -102q9 -86 80 -86h18z" />
    <glyph glyph-name="YehFarsi.init" unicode="&#x6cc;" arabic-form="initial" 
d="M518 487q0 197 -37 394h156q39 -192 39 -394q0 -193 -98 -290t-320 -97h-278v181h286q141 0 196.5 50t55.5 156zM205 -156q0 41 27.5 69t66.5 28q41 0 68.5 -28t27.5 -69q0 -39 -27.5 -66.5t-68.5 -27.5q-38 0 -66 28t-28 66zM465 -156q0 41 27.5 69t66.5 28
q41 0 68.5 -28t27.5 -69q0 -39 -27.5 -66.5t-68.5 -27.5q-38 0 -66 28t-28 66z" />
    <glyph glyph-name="YehFarsi.medi" unicode="&#x6cc;" arabic-form="medial" 
d="M1079 100h-276q-172 0 -250 66q-107 -66 -254 -66h-319v181h327q98 0 140 42t42 134q0 227 -40 424h155q41 -202 41 -455q0 -145 158 -145h276v-181zM285 -156q0 41 27.5 69t66.5 28q41 0 68.5 -28t27.5 -69q0 -39 -27.5 -66.5t-68.5 -27.5q-38 0 -66 28t-28 66z
M545 -156q0 41 27.5 69t66.5 28q41 0 68.5 -28t27.5 -69q0 -39 -27.5 -66.5t-68.5 -27.5q-38 0 -66 28t-28 66z" />
    <glyph glyph-name="AlefMaksuraAlefFina.liga" unicode="&#xfc90;" arabic-form="final" 
d="M356 1276v-442h-116v442h116zM1083 281v-181h-39q-181 0 -208 189l-21 162q-9 61 -63 61q-41 0 -63.5 -34.5t-22.5 -100.5q0 -15 6 -62l35 -264q6 -46 6 -88q0 -164 -76 -251t-217 -87q-291 0 -291 418q0 164 27 457h153q-22 -306 -22 -457q0 -227 133 -227t133 170
q0 15 -4 65l-31 225q-8 49 -8 99q0 152 76 237q76 88 176 88q179 0 209 -231l14 -102q9 -86 80 -86h18z" />
    <glyph glyph-name="Fathatan.isol" unicode="&#xfe70;" arabic-form="isolated" 
d="M795 1599v-137l-529 -166v138zM795 1356v-137l-529 -166v137z" />
    <glyph glyph-name="TatwelFathatan" unicode="&#xfe71;" arabic-form="medial" 
d="M1071 291v-191h-1081v191h1081zM795 1599v-137l-529 -166v138zM795 1356v-137l-529 -166v137z" />
    <glyph glyph-name="Dammatan.isol" unicode="&#xfe72;" arabic-form="isolated" 
d="M188 1460h134q26 -79 26 -174q0 -48 -6 -100l162 74q-55 88 -55 157q0 81 56 131.5t154 50.5q96 0 153.5 -51t57.5 -131q0 -135 -127 -188l-53 -25l62 -98l-117 -57l-66 100l-381 -174q29 151 29 264q0 115 -29 221zM735 1405q0 24 -24 38.5t-56 14.5q-33 0 -53 -14.5
t-20 -38.5q0 -27 16 -53l23 -37l61 26q53 24 53 64z" />
    <glyph glyph-name="Kasratan.isol" unicode="&#xfe74;" arabic-form="isolated" 
d="M795 172v-137l-529 -166v137zM795 -72v-137l-529 -166v137z" />
    <glyph glyph-name="Fatha.isol" unicode="&#xfe76;" arabic-form="isolated" 
d="M795 1599v-137l-529 -166v138z" />
    <glyph glyph-name="Fatha.medi" unicode="&#xfe77;" arabic-form="medial" 
d="M1071 291v-191h-1081v191h1081zM795 1599v-137l-529 -166v138z" />
    <glyph glyph-name="Damma.isol" unicode="&#xfe78;" arabic-form="isolated" 
d="M870 1417q0 -135 -127 -188l-53 -25l62 -98l-117 -57l-66 100l-381 -174v141l316 144q-55 88 -55 157q0 81 56 131.5t154 50.5q96 0 153.5 -51t57.5 -131zM735 1405q0 24 -24 38.5t-56 14.5q-33 0 -53 -14.5t-20 -38.5t16 -53l23 -37l61 26q53 24 53 64z" />
    <glyph glyph-name="Damma.medi" unicode="&#xfe79;" arabic-form="medial" 
d="M870 1417q0 -135 -127 -188l-53 -25l62 -98l-117 -57l-66 100l-381 -174v141l316 144q-55 88 -55 157q0 81 56 131.5t154 50.5q96 0 153.5 -51t57.5 -131zM735 1405q0 24 -24 38.5t-56 14.5q-33 0 -53 -14.5t-20 -38.5t16 -53l23 -37l61 26q53 24 53 64zM1071 291v-191
h-1081v191h1081z" />
    <glyph glyph-name="Kasra.isol" unicode="&#xfe7a;" arabic-form="isolated" 
d="M795 -72v-137l-529 -166v137z" />
    <glyph glyph-name="Kasra.medi" unicode="&#xfe7b;" arabic-form="medial" 
d="M795 -72v-137l-529 -166v137zM1071 291v-191h-1081v191h1081z" />
    <glyph glyph-name="Shadda.isol" unicode="&#xfe7c;" arabic-form="isolated" 
d="M725 1579h102q23 -67 23 -135q0 -119 -52.5 -189.5t-142.5 -70.5q-92 0 -127 92q-52 -141 -172 -141q-145 0 -145 186q0 67 29 162h102q-6 -55 -6 -86q0 -97 51 -97q87 0 102 226h105q0 -183 82 -183q53 0 53 140q0 18 -4 96z" />
    <glyph glyph-name="Shadda.medi" unicode="&#xfe7d;" arabic-form="medial" 
d="M725 1579h102q23 -67 23 -135q0 -119 -52.5 -189.5t-142.5 -70.5q-92 0 -127 92q-52 -141 -172 -141q-145 0 -145 186q0 67 29 162h102q-6 -55 -6 -86q0 -97 51 -97q87 0 102 226h105q0 -183 82 -183q53 0 53 140q0 18 -4 96zM1071 291v-191h-1081v191h1081z" />
    <glyph glyph-name="Sukun.isol" unicode="&#xfe7e;" arabic-form="isolated" 
d="M530 1481q-34 0 -56.5 -32.5t-22.5 -78.5q0 -42 21.5 -66t57.5 -24q33 0 55.5 24.5t22.5 65.5q0 45 -23 78t-55 33zM530 1159q-93 0 -148.5 56t-55.5 149q0 102 58 168.5t146 66.5q87 0 145 -66.5t58 -168.5q0 -93 -55 -149t-148 -56z" />
    <glyph glyph-name="Sukun.medi" unicode="&#xfe7f;" arabic-form="medial" 
d="M530 1481q-34 0 -56.5 -32.5t-22.5 -78.5q0 -42 21.5 -66t57.5 -24q33 0 55.5 24.5t22.5 65.5q0 45 -23 78t-55 33zM530 1159q-93 0 -148.5 56t-55.5 149q0 102 58 168.5t146 66.5q87 0 145 -66.5t58 -168.5q0 -93 -55 -149t-148 -56zM1071 291v-191h-1081v191h1081z" />
    <glyph glyph-name="Hamza.isol" unicode="&#x621;" arabic-form="isolated" 
d="M891 281v-181h-707v181h164v258q0 360 297 360q115 0 225 -76l-73 -149q-62 47 -135 47q-160 0 -160 -174v-266h389z" />
    <glyph glyph-name="AlefMadda.isol" unicode="&#x622;" arabic-form="isolated" 
d="M612 1692l103 -62q-79 -196 -238 -196q-51 0 -135 34l-182 78l-74 -106l-113 59l133 217l275 -114q46 -21 96 -21q73 0 135 111zM465 100h-146q-38 265 -38 1200h155q0 -897 29 -1200z" />
    <glyph glyph-name="AlefMadda.fina" unicode="&#x622;" arabic-form="final" 
d="M793 1692l102 -62q-79 -196 -238 -196q-51 0 -135 34l-182 78l-74 -106l-112 59l133 217l274 -114q46 -21 96 -21q75 0 136 111zM1079 100h-295q-304 0 -313 398l-10 802h155l9 -802q0 -217 159 -217h295v-181z" />
    <glyph glyph-name="AlefHamza.isol" unicode="&#x623;" arabic-form="isolated" 
d="M602 1536v-96h-450v96h104v92q0 141 133 141h164v-92h-127q-47 0 -47 -49v-92h223zM444 100h-145q-39 272 -39 1200h156q0 -908 28 -1200z" />
    <glyph glyph-name="AlefHamza.fina" unicode="&#x623;" arabic-form="final" 
d="M1079 100h-295q-304 0 -313 398l-10 802h155l9 -802q0 -217 159 -217h295v-181zM803 1536v-96h-453v96h107v92q0 141 133 141h164v-94h-127q-47 0 -47 -49v-90h223z" />
    <glyph glyph-name="WawHamza.isol" unicode="&#x624;" arabic-form="isolated" 
d="M909 410v-281q0 -383 -438 -383h-381v180h381q283 0 283 203v66q-70 -15 -131 -15q-158 0 -240 91.5t-82 254.5q0 165 88 269t215 104q305 0 305 -489zM463 526q0 -74 43 -120t119 -46q69 0 129 17v84q0 260 -150 260q-59 0 -100 -53.5t-41 -141.5zM838 1174v-97h-451v97
h105v92q0 141 133 141h163v-92h-126q-48 0 -48 -49v-92h224z" />
    <glyph glyph-name="WawHamza.fina" unicode="&#x624;" arabic-form="final" 
d="M1079 100h-170q-41 -354 -497 -354h-322v180h359q294 0 303 174h-90q-177 0 -269 100.5t-92 280.5q0 202 84.5 310t218.5 108q305 0 305 -489v-129h170v-181zM463 481q0 -102 44.5 -151t158.5 -49h88v129q0 311 -150 311q-63 0 -102 -61.5t-39 -178.5zM838 1174v-97h-451
v97h105v92q0 141 133 141h163v-92h-126q-48 0 -48 -49v-92h224z" />
    <glyph glyph-name="AlefHamzaB.isol" unicode="&#x625;" arabic-form="isolated" 
d="M604 -270v-95h-450v95h104v94q0 141 133 141h164v-94h-127q-47 0 -47 -49v-92h223zM467 100h-145q-41 285 -41 1479h155q0 -1188 31 -1479z" />
    <glyph glyph-name="AlefHamzaB.fina" unicode="&#x625;" arabic-form="final" 
d="M813 -270v-95h-451v95h105v94q0 141 133 141h164v-94h-127q-47 0 -47 -49v-92h223zM1079 100h-295q-304 0 -313 398l-16 1081h155l15 -1081q0 -217 159 -217h295v-181z" />
    <glyph glyph-name="YehHamza.isol" unicode="&#x626;" arabic-form="isolated" 
d="M518 -190h60q217 0 217 221q0 118 -113 145q-176 47 -176 301q0 196 84 309q82 113 196 113q105 0 175 -76l-82 -129q-47 29 -82 29q-62 0 -98.5 -57.5t-36.5 -151.5q0 -140 96 -164q192 -52 192 -299q0 -422 -397 -422h-41q-383 0 -383 432q0 146 27 439h153
q-22 -306 -22 -439q0 -251 231 -251zM596 1108v-96h-451v96h105v92q0 141 133 141h164v-92h-127q-47 0 -47 -49v-92h223z" />
    <glyph glyph-name="YehHamza.fina" unicode="&#x626;" arabic-form="final" 
d="M1083 281v-181h-39q-181 0 -208 189l-21 162q-9 61 -63 61q-41 0 -63.5 -34.5t-22.5 -100.5q0 -15 6 -62l35 -264q6 -46 6 -88q0 -164 -76 -251t-217 -87q-291 0 -291 418q0 164 27 457h153q-22 -306 -22 -457q0 -227 133 -227t133 170q0 15 -4 65l-31 225q-8 49 -8 99
q0 152 76 237q76 88 176 88q179 0 209 -231l14 -102q9 -86 80 -86h18zM596 1108v-96h-451v96h105v92q0 141 133 141h164v-92h-127q-47 0 -47 -49v-92h223z" />
    <glyph glyph-name="YehHamza.init" unicode="&#x626;" arabic-form="initial" 
d="M727 1174v-97h-451v97h105v92q0 141 133 141h164v-92h-127q-47 0 -47 -49v-92h223zM518 487q0 197 -37 394h156q39 -192 39 -394q0 -193 -98 -290t-320 -97h-278v181h286q141 0 196.5 50t55.5 156z" />
    <glyph glyph-name="YehHamza.medi" unicode="&#x626;" arabic-form="medial" 
d="M1079 100h-276q-172 0 -250 66q-107 -66 -254 -66h-319v181h327q98 0 140 42t42 134q0 227 -40 424h155q41 -202 41 -455q0 -145 158 -145h276v-181zM727 1174v-97h-451v97h105v92q0 141 133 141h164v-92h-127q-47 0 -47 -49v-92h223z" />
    <glyph glyph-name="Alef.isol" unicode="&#x627;" arabic-form="isolated" 
d="M391 100h-145q-41 285 -41 1479h155q0 -1188 31 -1479z" />
    <glyph glyph-name="Alef.fina" unicode="&#x627;" arabic-form="final" 
d="M1079 100h-295q-304 0 -313 398l-16 1081h155l15 -1081q0 -217 159 -217h295v-181z" />
    <glyph glyph-name="Beh.isol" unicode="&#x628;" arabic-form="isolated" 
d="M756 457q0 208 -70 424h156q69 -213 69 -435q0 -366 -356 -366h-59q-349 0 -349 418q0 151 21 362h156q-21 -211 -21 -362q0 -238 201 -238h53q199 0 199 197zM434 -190q0 41 27.5 68.5t68.5 27.5q39 0 67 -27.5t28 -68.5q0 -38 -28.5 -66.5t-66.5 -28.5q-41 0 -68.5 28
t-27.5 67z" />
    <glyph glyph-name="Beh.fina" unicode="&#x628;" arabic-form="final" 
d="M1069 281v-181q-154 0 -231 47q-85 -67 -281 -67h-61q-349 0 -349 418q0 151 21 362h156q-21 -211 -21 -362q0 -238 201 -238h53q199 0 199 186q0 243 -39 435h155q39 -192 39 -455q0 -145 158 -145zM455 -190q0 41 27.5 68.5t68.5 27.5q39 0 66.5 -27.5t27.5 -68.5
q0 -38 -28 -66.5t-66 -28.5q-41 0 -68.5 28t-27.5 67z" />
    <glyph glyph-name="Beh.init" unicode="&#x628;" arabic-form="initial" 
d="M518 487q0 197 -37 394h156q39 -192 39 -394q0 -193 -98 -290t-320 -97h-278v181h286q141 0 196.5 50t55.5 156zM434 -190q0 41 27.5 68.5t68.5 27.5q39 0 67 -27.5t28 -68.5q0 -38 -28.5 -66.5t-66.5 -28.5q-41 0 -68.5 28t-27.5 67z" />
    <glyph glyph-name="Beh.medi" unicode="&#x628;" arabic-form="medial" 
d="M1079 100h-276q-172 0 -250 66q-107 -66 -254 -66h-319v181h327q98 0 140 42t42 134q0 227 -40 424h155q41 -202 41 -455q0 -145 158 -145h276v-181zM475 -190q0 41 27.5 68.5t68.5 27.5q39 0 67 -27.5t28 -68.5q0 -38 -28.5 -66.5t-66.5 -28.5q-41 0 -68.5 28t-27.5 67z
" />
    <glyph glyph-name="TehMarbuta.isol" unicode="&#x629;" arabic-form="isolated" 
d="M530 723q-63 0 -147 -96q-80 -95 -80 -181q0 -94 54 -140t171 -46q119 0 173.5 46t54.5 140q0 86 -80 181q-81 96 -146 96zM530 80q-200 0 -295.5 91t-95.5 247q0 154 117 317q117 164 274 164q159 0 273 -164q117 -163 117 -317q0 -156 -95 -247t-295 -91zM264 1165
q0 38 28 66.5t66 28.5q41 0 69 -28t28 -67q0 -41 -28 -68.5t-69 -27.5q-39 0 -66.5 27.5t-27.5 68.5zM524 1165q0 38 28 66.5t66 28.5q41 0 69 -28t28 -67q0 -41 -28 -68.5t-69 -27.5q-39 0 -66.5 27.5t-27.5 68.5z" />
    <glyph glyph-name="TehMarbuta.fina" unicode="&#x629;" arabic-form="final" 
d="M1079 100h-86q-171 0 -260 99q-134 -70 -295 -70q-225 0 -225 240q0 321 393 450q0 42 2 62h158q-4 -86 -4 -121q0 -182 47 -328q47 -141 184 -141h86v-191zM367 399q0 -80 90 -80q99 0 209 37q-47 115 -56 285q-243 -95 -243 -242zM285 1165q0 38 28 66.5t66 28.5
q41 0 68.5 -28t27.5 -67q0 -41 -27.5 -68.5t-68.5 -27.5q-39 0 -66.5 27.5t-27.5 68.5zM545 1165q0 38 28 66.5t66 28.5q41 0 68.5 -28t27.5 -67q0 -41 -27.5 -68.5t-68.5 -27.5q-39 0 -66.5 27.5t-27.5 68.5z" />
    <glyph glyph-name="Teh.isol" unicode="&#x62a;" arabic-form="isolated" 
d="M756 457q0 208 -70 424h156q69 -213 69 -435q0 -366 -356 -366h-59q-349 0 -349 418q0 151 21 362h156q-21 -211 -21 -362q0 -238 201 -238h53q199 0 199 197zM285 1165q0 38 28 66.5t66 28.5q41 0 68.5 -28t27.5 -67q0 -41 -27.5 -68.5t-68.5 -27.5q-39 0 -66.5 27.5
t-27.5 68.5zM545 1165q0 38 28 66.5t66 28.5q41 0 68.5 -28t27.5 -67q0 -41 -27.5 -68.5t-68.5 -27.5q-39 0 -66.5 27.5t-27.5 68.5z" />
    <glyph glyph-name="Teh.fina" unicode="&#x62a;" arabic-form="final" 
d="M1069 281v-181q-154 0 -231 47q-85 -67 -281 -67h-61q-349 0 -349 418q0 151 21 362h156q-21 -211 -21 -362q0 -238 201 -238h53q199 0 199 186q0 243 -39 435h155q39 -192 39 -455q0 -145 158 -145zM285 1165q0 38 28 66.5t66 28.5q41 0 68.5 -28t27.5 -67
q0 -41 -27.5 -68.5t-68.5 -27.5q-39 0 -66.5 27.5t-27.5 68.5zM545 1165q0 38 28 66.5t66 28.5q41 0 68.5 -28t27.5 -67q0 -41 -27.5 -68.5t-68.5 -27.5q-39 0 -66.5 27.5t-27.5 68.5z" />
    <glyph glyph-name="Teh.init" unicode="&#x62a;" arabic-form="initial" 
d="M518 487q0 197 -37 394h156q39 -192 39 -394q0 -193 -98 -290t-320 -97h-278v181h286q141 0 196.5 50t55.5 156zM264 1165q0 38 28 66.5t66 28.5q41 0 69 -28t28 -67q0 -41 -28 -68.5t-69 -27.5q-39 0 -66.5 27.5t-27.5 68.5zM524 1165q0 38 28 66.5t66 28.5q41 0 69 -28
t28 -67q0 -41 -28 -68.5t-69 -27.5q-39 0 -66.5 27.5t-27.5 68.5z" />
    <glyph glyph-name="Teh.medi" unicode="&#x62a;" arabic-form="medial" 
d="M1079 100h-276q-172 0 -250 66q-107 -66 -254 -66h-319v181h327q98 0 140 42t42 134q0 227 -40 424h155q41 -202 41 -455q0 -145 158 -145h276v-181zM264 1165q0 38 28 66.5t66 28.5q41 0 69 -28t28 -67q0 -41 -28 -68.5t-69 -27.5q-39 0 -66.5 27.5t-27.5 68.5z
M524 1165q0 38 28 66.5t66 28.5q41 0 69 -28t28 -67q0 -41 -28 -68.5t-69 -27.5q-39 0 -66.5 27.5t-27.5 68.5z" />
    <glyph glyph-name="Theh.isol" unicode="&#x62b;" arabic-form="isolated" 
d="M756 457q0 208 -70 424h156q69 -213 69 -435q0 -366 -356 -366h-59q-349 0 -349 418q0 151 21 362h156q-21 -211 -21 -362q0 -238 201 -238h53q199 0 199 197zM309 1141q0 35 27.5 55.5t69.5 20.5q40 0 67 -21t27 -55t-27 -54t-67 -20q-42 0 -69.5 20t-27.5 54zM559 1141
q0 35 27 55.5t69 20.5q40 0 67.5 -21t27.5 -55t-27.5 -54t-67.5 -20q-42 0 -69 20t-27 54zM434 1362q0 32 27.5 53t68.5 21q39 0 67 -21t28 -53q0 -35 -27.5 -55.5t-67.5 -20.5q-43 0 -69.5 20t-26.5 56z" />
    <glyph glyph-name="Theh.fina" unicode="&#x62b;" arabic-form="final" 
d="M1069 281v-181q-154 0 -231 47q-85 -67 -281 -67h-61q-349 0 -349 418q0 151 21 362h156q-21 -211 -21 -362q0 -238 201 -238h53q199 0 199 186q0 243 -39 435h155q39 -192 39 -455q0 -145 158 -145zM309 1141q0 35 27.5 55.5t69.5 20.5q40 0 67 -21t27 -55t-27 -54
t-67 -20q-42 0 -69.5 20t-27.5 54zM559 1141q0 35 27 55.5t69 20.5q40 0 67.5 -21t27.5 -55t-27.5 -54t-67.5 -20q-42 0 -69 20t-27 54zM434 1362q0 32 27.5 53t68.5 21q39 0 67 -21t28 -53q0 -35 -27.5 -55.5t-67.5 -20.5q-43 0 -69.5 20t-26.5 56z" />
    <glyph glyph-name="Theh.init" unicode="&#x62b;" arabic-form="initial" 
d="M518 487q0 197 -37 394h156q39 -192 39 -394q0 -193 -98 -290t-320 -97h-278v181h286q141 0 196.5 50t55.5 156zM279 1141q0 35 27 55.5t69 20.5q40 0 67 -21t27 -55t-27 -54t-67 -20q-42 0 -69 20t-27 54zM528 1141q0 35 27.5 55.5t69.5 20.5q40 0 67 -21t27 -55
t-27 -54t-67 -20q-42 0 -69.5 20t-27.5 54zM403 1362q0 32 28 53t69 21q39 0 66.5 -21t27.5 -53q0 -35 -27 -55.5t-67 -20.5q-43 0 -70 20t-27 56z" />
    <glyph glyph-name="Theh.medi" unicode="&#x62b;" arabic-form="medial" 
d="M1079 100h-276q-172 0 -250 66q-107 -66 -254 -66h-319v181h327q98 0 140 42t42 134q0 227 -40 424h155q41 -202 41 -455q0 -145 158 -145h276v-181zM279 1141q0 35 27 55.5t69 20.5q40 0 67 -21t27 -55t-27 -54t-67 -20q-42 0 -69 20t-27 54zM528 1141q0 35 27.5 55.5
t69.5 20.5q40 0 67 -21t27 -55t-27 -54t-67 -20q-42 0 -69.5 20t-27.5 54zM403 1362q0 32 28 53t69 21q39 0 66.5 -21t27.5 -53q0 -35 -27 -55.5t-67 -20.5q-43 0 -70 20t-27 56z" />
    <glyph glyph-name="Jeem.isol" unicode="&#x62c;" arabic-form="isolated" 
d="M643 -375h-2q-234 0 -371 137q-135 135 -135 353q0 400 500 581q-106 4 -174 4h-285v181h285q281 0 491 -88v-103l-272 -119q-387 -170 -387 -456q0 -147 90.5 -228.5t249.5 -81.5q152 0 338 80l53 -155q-164 -105 -381 -105zM571 195q0 41 28 68.5t69 27.5
q39 0 66.5 -27.5t27.5 -68.5q0 -38 -28 -66.5t-66 -28.5q-41 0 -69 28t-28 67z" />
    <glyph glyph-name="Jeem.fina" unicode="&#x62c;" arabic-form="final" 
d="M1079 281v-181h-123q-297 0 -297 336v129q-366 -163 -366 -450q0 -128 86 -217q87 -93 244 -93q153 0 348 80l53 -155q-182 -105 -401 -105q-238 0 -363 137q-125 134 -125 353q0 369 455 563q-36 22 -115 22h-299v181h297q340 0 340 -342v-109q0 -149 143 -149h123z
M432 104q0 39 27.5 67t68.5 28q38 0 66.5 -28.5t28.5 -66.5q0 -41 -28 -68.5t-67 -27.5q-41 0 -68.5 27.5t-27.5 68.5z" />
    <glyph glyph-name="Jeem.init" unicode="&#x62c;" arabic-form="initial" 
d="M0 100h-20v181h20q225 0 444 145l336 221q-136 53 -319 53h-285v181h285q276 0 491 -140v-151q-170 -118 -430 -305q-262 -185 -522 -185zM434 -96q0 41 27.5 68.5t68.5 27.5q39 0 67 -27.5t28 -68.5q0 -38 -28.5 -66t-66.5 -28q-41 0 -68.5 27.5t-27.5 66.5z" />
    <glyph glyph-name="Jeem.medi" unicode="&#x62c;" arabic-form="medial" 
d="M1079 281v-181h-123q-297 0 -297 336v62l-161 -162q-236 -236 -478 -236h-40v181h40q195 0 363 165l221 220q-27 34 -129 34h-299v181h297q340 0 340 -342v-109q0 -149 143 -149h123zM465 -96q0 41 27.5 68.5t68.5 27.5q39 0 66.5 -27.5t27.5 -68.5q0 -38 -28 -66
t-66 -28q-41 0 -68.5 27.5t-27.5 66.5z" />
    <glyph glyph-name="Hah.isol" unicode="&#x62d;" arabic-form="isolated" 
d="M643 -375h-2q-234 0 -371 137q-135 135 -135 353q0 400 500 581q-106 4 -174 4h-285v181h285q281 0 491 -88v-103l-272 -119q-387 -170 -387 -456q0 -147 90.5 -228.5t249.5 -81.5q152 0 338 80l53 -155q-164 -105 -381 -105z" />
    <glyph glyph-name="Hah.fina" unicode="&#x62d;" arabic-form="final" 
d="M1079 281v-181h-123q-297 0 -297 336v129q-366 -163 -366 -450q0 -128 86 -217q87 -93 244 -93q153 0 348 80l53 -155q-182 -105 -401 -105q-238 0 -363 137q-125 134 -125 353q0 369 455 563q-36 22 -115 22h-299v181h297q340 0 340 -342v-109q0 -149 143 -149h123z" />
    <glyph glyph-name="Hah.init" unicode="&#x62d;" arabic-form="initial" 
d="M0 100h-20v181h20q225 0 444 145l336 221q-136 53 -319 53h-285v181h285q276 0 491 -140v-151q-170 -118 -430 -305q-262 -185 -522 -185z" />
    <glyph glyph-name="Hah.medi" unicode="&#x62d;" arabic-form="medial" 
d="M1079 281v-181h-123q-297 0 -297 336v62l-161 -162q-236 -236 -478 -236h-40v181h40q195 0 363 165l221 220q-27 34 -129 34h-299v181h297q340 0 340 -342v-109q0 -149 143 -149h123z" />
    <glyph glyph-name="Khah.isol" unicode="&#x62e;" arabic-form="isolated" 
d="M643 -375h-2q-234 0 -371 137q-135 135 -135 353q0 400 500 581q-106 4 -174 4h-285v181h285q281 0 491 -88v-103l-272 -119q-387 -170 -387 -456q0 -147 90.5 -228.5t249.5 -81.5q152 0 338 80l53 -155q-164 -105 -381 -105zM434 1165q0 39 27.5 67t68.5 28
q38 0 66.5 -28.5t28.5 -66.5q0 -41 -28 -68.5t-67 -27.5q-41 0 -68.5 27.5t-27.5 68.5z" />
    <glyph glyph-name="Khah.fina" unicode="&#x62e;" arabic-form="final" 
d="M1079 281v-181h-123q-297 0 -297 336v129q-366 -163 -366 -450q0 -128 86 -217q87 -93 244 -93q153 0 348 80l53 -155q-182 -105 -401 -105q-238 0 -363 137q-125 134 -125 353q0 369 455 563q-36 22 -115 22h-299v181h297q340 0 340 -342v-109q0 -149 143 -149h123z
M434 1165q0 39 27.5 67t68.5 28q38 0 66.5 -28.5t28.5 -66.5q0 -41 -28 -68.5t-67 -27.5q-41 0 -68.5 27.5t-27.5 68.5z" />
    <glyph glyph-name="Khah.init" unicode="&#x62e;" arabic-form="initial" 
d="M0 100h-20v181h20q225 0 444 145l336 221q-136 53 -319 53h-285v181h285q276 0 491 -140v-151q-170 -118 -430 -305q-262 -185 -522 -185zM434 1165q0 39 27.5 67t68.5 28q38 0 66.5 -28.5t28.5 -66.5q0 -41 -28 -68.5t-67 -27.5q-41 0 -68.5 27.5t-27.5 68.5z" />
    <glyph glyph-name="Khah.medi" unicode="&#x62e;" arabic-form="medial" 
d="M1079 281v-181h-123q-297 0 -297 336v62l-161 -162q-236 -236 -478 -236h-40v181h40q195 0 363 165l221 220q-27 34 -129 34h-299v181h297q340 0 340 -342v-109q0 -149 143 -149h123zM434 1165q0 39 27.5 67t68.5 28q38 0 66.5 -28.5t28.5 -66.5q0 -41 -28 -68.5
t-67 -27.5q-41 0 -68.5 27.5t-27.5 68.5z" />
    <glyph glyph-name="Dal.isol" unicode="&#x62f;" arabic-form="isolated" 
d="M788 453q0 122 -115 179t-374 68v181q359 -9 504 -115q147 -102 147 -303q0 -365 -448 -365h-408v181h414q280 0 280 174z" />
    <glyph glyph-name="Dal.fina" unicode="&#x62f;" arabic-form="final" 
d="M1079 100h-28q-199 0 -263 82q-115 -74 -348 -86l-346 -16v180l355 14q278 18 278 152q0 148 -117 207q-116 58 -311 67v181q306 -11 449 -116.5t143 -338.5q0 -145 160 -145h28v-181z" />
    <glyph glyph-name="Thal.isol" unicode="&#x630;" arabic-form="isolated" 
d="M768 453q0 122 -115 179t-374 68v181q358 -9 503 -115q148 -103 148 -303q0 -365 -449 -365h-407v181h413q281 0 281 174zM375 1165q0 39 27.5 67t68.5 28q38 0 66 -28.5t28 -66.5q0 -41 -27.5 -68.5t-66.5 -27.5q-41 0 -68.5 27.5t-27.5 68.5z" />
    <glyph glyph-name="Thal.fina" unicode="&#x630;" arabic-form="final" 
d="M1079 100h-28q-199 0 -263 82q-115 -74 -348 -86l-346 -16v180l355 14q278 18 278 152q0 148 -117 207q-116 58 -311 67v181q306 -11 449 -116.5t143 -338.5q0 -145 160 -145h28v-181zM324 1165q0 39 27.5 67t68.5 28q38 0 66 -28.5t28 -66.5q0 -41 -27.5 -68.5
t-66.5 -27.5q-41 0 -68.5 27.5t-27.5 68.5z" />
    <glyph glyph-name="Reh.isol" unicode="&#x631;" arabic-form="isolated" 
d="M723 418q0 211 -41 463h147q52 -247 52 -463q0 -345 -121 -510q-119 -162 -445 -162h-278v180h268q237 0 326 127q92 127 92 365z" />
    <glyph glyph-name="Reh.fina" unicode="&#x631;" arabic-form="final" 
d="M1079 100h-41q-113 0 -178 35q-68 -391 -555 -391h-268v180h268q240 0 328 119q90 122 90 365q0 168 -41 473h147q52 -247 52 -463q0 -137 157 -137h41v-181z" />
    <glyph glyph-name="Zain.isol" unicode="&#x632;" arabic-form="isolated" 
d="M723 418q0 211 -41 463h147q52 -247 52 -463q0 -345 -121 -510q-119 -162 -445 -162h-278v180h268q237 0 326 127q92 127 92 365zM539 1165q0 39 27.5 67t68.5 28q38 0 66 -28.5t28 -66.5q0 -41 -27.5 -68.5t-66.5 -27.5q-41 0 -68.5 27.5t-27.5 68.5z" />
    <glyph glyph-name="Zain.fina" unicode="&#x632;" arabic-form="final" 
d="M1079 100h-41q-113 0 -178 35q-68 -391 -555 -391h-268v180h268q240 0 328 119q90 122 90 365q0 168 -41 473h147q52 -247 52 -463q0 -137 157 -137h41v-181zM520 1165q0 39 27.5 67t68.5 28q38 0 66.5 -28.5t28.5 -66.5q0 -41 -28 -68.5t-67 -27.5q-41 0 -68.5 27.5
t-27.5 68.5z" />
    <glyph glyph-name="Seen.isol" unicode="&#x633;" arabic-form="isolated" 
d="M989 881v-566q0 -235 -168 -235q-89 0 -119 65q-35 -65 -104 -65q-77 0 -98 65v-256q0 -264 -215 -264t-215 264q0 279 20 572h129q-18 -307 -18 -537q0 -119 84 -119q86 0 86 119v957h129v-537q0 -74 57 -74t57 74v537h131v-537q0 -74 58 -74q57 0 57 74v537h129z" />
    <glyph glyph-name="Seen.fina" unicode="&#x633;" arabic-form="final" 
d="M1079 100h-18q-122 0 -158 45q-35 -65 -104 -65q-76 0 -97 65q-35 -65 -104 -65q-77 0 -98 65v-245q0 -265 -215 -265t-215 265q0 272 20 641h129q-18 -387 -18 -607q0 -118 84 -118q86 0 86 118v947h129v-537q0 -74 57 -74t57 74v537h131v-537q0 -74 58 -74q57 0 57 74
v537h129v-537q3 -63 72 -63h18v-181z" />
    <glyph glyph-name="Seen.init" unicode="&#x633;" arabic-form="initial" 
d="M958 881v-506q0 -295 -231 -295q-130 0 -182 94q-52 -94 -191 -94q-125 0 -180 94q-59 -74 -158 -74h-36v181h36q84 0 84 118v482h156v-516q0 -105 98 -105q99 0 99 105v516h153v-516q0 -105 99 -105q100 0 100 105v516h153z" />
    <glyph glyph-name="Seen.medi" unicode="&#x633;" arabic-form="medial" 
d="M1079 100h-28q-105 0 -164 74q-58 -94 -182 -94q-108 0 -160 94q-52 -94 -191 -94q-125 0 -180 94q-59 -74 -158 -74h-36v181h36q84 0 84 84v516h156v-516q0 -105 98 -105q99 0 99 105v516h153v-516q0 -105 99 -105q100 0 100 105v516h153v-514q0 -86 93 -86h28v-181z
" />
    <glyph glyph-name="Sheen.isol" unicode="&#x634;" arabic-form="isolated" 
d="M989 881v-566q0 -235 -168 -235q-89 0 -119 65q-35 -65 -104 -65q-77 0 -98 65v-256q0 -264 -215 -264t-215 264q0 279 20 572h129q-18 -307 -18 -537q0 -119 84 -119q86 0 86 119v957h129v-537q0 -74 57 -74t57 74v537h131v-537q0 -74 58 -74q57 0 57 74v537h129z
M489 1141q0 35 27.5 55.5t69.5 20.5q40 0 67 -21t27 -55t-27 -54t-67 -20q-42 0 -69.5 20t-27.5 54zM739 1141q0 35 27.5 55.5t69.5 20.5q40 0 67 -21t27 -55t-27 -54t-67 -20q-42 0 -69.5 20t-27.5 54zM614 1362q0 32 28 53t69 21q39 0 66.5 -21t27.5 -53q0 -35 -27 -55.5
t-67 -20.5q-43 0 -70 20t-27 56z" />
    <glyph glyph-name="Sheen.fina" unicode="&#x634;" arabic-form="final" 
d="M1079 100h-18q-122 0 -158 45q-35 -65 -104 -65q-76 0 -97 65q-35 -65 -104 -65q-77 0 -98 65v-245q0 -265 -215 -265t-215 265q0 272 20 641h129q-18 -387 -18 -607q0 -118 84 -118q86 0 86 118v947h129v-537q0 -74 57 -74t57 74v537h131v-537q0 -74 58 -74q57 0 57 74
v537h129v-537q3 -63 72 -63h18v-181zM469 1141q0 35 27 55.5t69 20.5q40 0 67 -21t27 -55t-27 -54t-67 -20q-42 0 -69 20t-27 54zM719 1141q0 35 27 55.5t69 20.5q40 0 67 -21t27 -55t-27 -54t-67 -20q-42 0 -69 20t-27 54zM594 1362q0 32 27.5 53t68.5 21q39 0 66.5 -21
t27.5 -53q0 -35 -27 -55.5t-67 -20.5q-43 0 -69.5 20t-26.5 56z" />
    <glyph glyph-name="Sheen.init" unicode="&#x634;" arabic-form="initial" 
d="M958 881v-506q0 -295 -231 -295q-130 0 -182 94q-52 -94 -191 -94q-125 0 -180 94q-59 -74 -158 -74h-36v181h36q84 0 84 118v482h156v-516q0 -105 98 -105q99 0 99 105v516h153v-516q0 -105 99 -105q100 0 100 105v516h153zM309 1141q0 35 27.5 55.5t69.5 20.5
q40 0 67 -21t27 -55t-27 -54t-67 -20q-42 0 -69.5 20t-27.5 54zM559 1141q0 35 27 55.5t69 20.5q40 0 67.5 -21t27.5 -55t-27.5 -54t-67.5 -20q-42 0 -69 20t-27 54zM434 1362q0 32 27.5 53t68.5 21q39 0 67 -21t28 -53q0 -35 -27.5 -55.5t-67.5 -20.5q-43 0 -69.5 20
t-26.5 56z" />
    <glyph glyph-name="Sheen.medi" unicode="&#x634;" arabic-form="medial" 
d="M1079 100h-28q-105 0 -164 74q-58 -94 -182 -94q-108 0 -160 94q-52 -94 -191 -94q-125 0 -180 94q-59 -74 -158 -74h-36v181h36q84 0 84 84v516h156v-516q0 -105 98 -105q99 0 99 105v516h153v-516q0 -105 99 -105q100 0 100 105v516h153v-514q0 -86 93 -86h28v-181z
M309 1141q0 35 27.5 55.5t69.5 20.5q40 0 67 -21t27 -55t-27 -54t-67 -20q-42 0 -69.5 20t-27.5 54zM559 1141q0 35 27 55.5t69 20.5q40 0 67.5 -21t27.5 -55t-27.5 -54t-67.5 -20q-42 0 -69 20t-27 54zM434 1362q0 32 27.5 53t68.5 21q39 0 67 -21t28 -53
q0 -35 -27.5 -55.5t-67.5 -20.5q-43 0 -69.5 20t-26.5 56z" />
    <glyph glyph-name="Sad.isol" unicode="&#x635;" arabic-form="isolated" 
d="M764 721q-82 0 -123 -146l-74 -294h195q98 0 98 104v180q0 156 -96 156zM70 -111q0 253 20 572h129q-18 -334 -18 -537q0 -119 84 -119q86 0 86 119v877h129v-264l12 41q82 321 256 321q221 0 221 -303v-231q0 -265 -237 -265h-95q-126 0 -157 97v-308q0 -264 -215 -264
t-215 264z" />
    <glyph glyph-name="Sad.fina" unicode="&#x635;" arabic-form="final" 
d="M1079 100h-18q-73 0 -123 62q-59 -62 -186 -62h-95q-126 0 -157 97v-308q0 -264 -215 -264t-215 264q0 258 20 652h129q-18 -414 -18 -617q0 -119 84 -119q86 0 86 119v877h129v-264l12 41q82 321 256 321q221 0 221 -303v-201q0 -114 72 -114h18v-181zM764 721
q-82 0 -123 -146l-74 -294h195q98 0 98 104v180q0 156 -96 156z" />
    <glyph glyph-name="Sad.init" unicode="&#x635;" arabic-form="initial" 
d="M670 721q-82 0 -150 -164l-119 -276h217q152 0 152 157v92q0 191 -100 191zM76 100h-96v181h86q135 0 135 149v371h153v-287l33 96q102 289 289 289q250 0 250 -369v-110q0 -320 -305 -320h-123q-156 0 -215 111q-71 -111 -207 -111z" />
    <glyph glyph-name="Sad.medi" unicode="&#x635;" arabic-form="medial" 
d="M1079 100h-59q-94 0 -162 62q-77 -62 -237 -62h-123q-156 0 -215 111q-71 -111 -207 -111h-96v181h86q135 0 135 149v371h153v-287l33 96q102 289 289 289q250 0 250 -369v-139q0 -110 94 -110h59v-181zM670 721q-82 0 -150 -164l-119 -276h217q152 0 152 157v92
q0 191 -100 191z" />
    <glyph glyph-name="Dad.isol" unicode="&#x636;" arabic-form="isolated" 
d="M764 721q-82 0 -123 -146l-74 -294h195q98 0 98 104v180q0 156 -96 156zM70 -111q0 253 20 572h129q-18 -334 -18 -537q0 -119 84 -119q86 0 86 119v877h129v-264l12 41q82 321 256 321q221 0 221 -303v-231q0 -265 -237 -265h-95q-126 0 -157 97v-308q0 -264 -215 -264
t-215 264zM512 1165q0 39 27.5 67t68.5 28q38 0 66 -28.5t28 -66.5q0 -41 -27.5 -68.5t-66.5 -27.5q-41 0 -68.5 27.5t-27.5 68.5z" />
    <glyph glyph-name="Dad.fina" unicode="&#x636;" arabic-form="final" 
d="M1079 100h-18q-73 0 -123 62q-59 -62 -186 -62h-95q-126 0 -157 97v-308q0 -264 -215 -264t-215 264q0 258 20 652h129q-18 -414 -18 -617q0 -119 84 -119q86 0 86 119v877h129v-264l12 41q82 321 256 321q221 0 221 -303v-201q0 -114 72 -114h18v-181zM764 721
q-82 0 -123 -146l-74 -294h195q98 0 98 104v180q0 156 -96 156zM512 1165q0 39 27.5 67t68.5 28q38 0 66 -28.5t28 -66.5q0 -41 -27.5 -68.5t-66.5 -27.5q-41 0 -68.5 27.5t-27.5 68.5z" />
    <glyph glyph-name="Dad.init" unicode="&#x636;" arabic-form="initial" 
d="M670 721q-82 0 -150 -164l-119 -276h217q152 0 152 157v92q0 191 -100 191zM76 100h-96v181h86q135 0 135 149v371h153v-287l33 96q102 289 289 289q250 0 250 -369v-110q0 -320 -305 -320h-123q-156 0 -215 111q-71 -111 -207 -111zM391 1165q0 39 27.5 67t68.5 28
q38 0 66.5 -28.5t28.5 -66.5q0 -41 -28 -68.5t-67 -27.5q-41 0 -68.5 27.5t-27.5 68.5z" />
    <glyph glyph-name="Dad.medi" unicode="&#x636;" arabic-form="medial" 
d="M1079 100h-59q-94 0 -162 62q-77 -62 -237 -62h-123q-156 0 -215 111q-71 -111 -207 -111h-96v181h86q135 0 135 149v371h153v-287l33 96q102 289 289 289q250 0 250 -369v-139q0 -110 94 -110h59v-181zM670 721q-82 0 -150 -164l-119 -276h217q152 0 152 157v92
q0 191 -100 191zM381 1165q0 39 27.5 67t68.5 28q38 0 66 -28.5t28 -66.5q0 -41 -27.5 -68.5t-66.5 -27.5q-41 0 -68.5 27.5t-27.5 68.5z" />
    <glyph glyph-name="Tah.isol" unicode="&#x637;" arabic-form="isolated" 
d="M236 1579h145q0 -801 14 -1028l21 59q102 289 286 289q248 0 248 -342v-92q0 -365 -436 -365h-424v181h178q-32 160 -32 1298zM555 567l-125 -286h137q232 0 232 184v82q0 174 -101 174q-78 0 -143 -154z" />
    <glyph glyph-name="Tah.fina" unicode="&#x637;" arabic-form="final" 
d="M1079 100h-18q-136 0 -201 74q-109 -74 -346 -74h-424v181h178q-32 160 -32 1298h145q0 -801 14 -1028l21 59q102 289 286 289q252 0 252 -342v-133q3 -143 107 -143h18v-181zM549 557l-115 -276h133q232 0 232 184v82q0 174 -109 174q-76 0 -141 -164z" />
    <glyph glyph-name="Tah.init" unicode="&#x637;" arabic-form="initial" 
d="M236 1579h145q0 -801 14 -1028l21 59q102 289 286 289q252 0 252 -342v-92q0 -365 -440 -365h-534v181h288q-32 160 -32 1298zM549 557l-115 -276h133q232 0 232 184v82q0 174 -109 174q-76 0 -141 -164z" />
    <glyph glyph-name="Tah.medi" unicode="&#x637;" arabic-form="medial" 
d="M1079 100h-18q-166 0 -232 66q-111 -66 -344 -66h-505v181h260q-35 175 -35 1298h145q0 -785 15 -1028l20 59q102 289 289 289q250 0 250 -342v-133q3 -143 137 -143h18v-181zM518 557l-115 -276h134q231 0 231 184v82q0 174 -106 174q-79 0 -144 -164z" />
    <glyph glyph-name="Zah.isol" unicode="&#x638;" arabic-form="isolated" 
d="M236 1579h145q0 -801 14 -1028l21 59q102 289 286 289q248 0 248 -342v-92q0 -365 -436 -365h-424v181h178q-32 160 -32 1298zM555 567l-125 -286h137q232 0 232 184v82q0 174 -101 174q-78 0 -143 -154zM598 1165q0 39 27.5 67t68.5 28q38 0 66 -28.5t28 -66.5
q0 -41 -27.5 -68.5t-66.5 -27.5q-41 0 -68.5 27.5t-27.5 68.5z" />
    <glyph glyph-name="Zah.fina" unicode="&#x638;" arabic-form="final" 
d="M1079 100h-18q-136 0 -201 74q-109 -74 -346 -74h-424v181h178q-32 160 -32 1298h145q0 -801 14 -1028l21 59q102 289 286 289q252 0 252 -342v-133q3 -143 107 -143h18v-181zM549 557l-115 -276h133q232 0 232 184v82q0 174 -109 174q-76 0 -141 -164zM598 1165
q0 39 27.5 67t68.5 28q38 0 66 -28.5t28 -66.5q0 -41 -27.5 -68.5t-66.5 -27.5q-41 0 -68.5 27.5t-27.5 68.5z" />
    <glyph glyph-name="Zah.init" unicode="&#x638;" arabic-form="initial" 
d="M236 1579h145q0 -801 14 -1028l21 59q102 289 286 289q252 0 252 -342v-92q0 -365 -440 -365h-534v181h288q-32 160 -32 1298zM549 557l-115 -276h133q232 0 232 184v82q0 174 -109 174q-76 0 -141 -164zM598 1165q0 39 27.5 67t68.5 28q38 0 66 -28.5t28 -66.5
q0 -41 -27.5 -68.5t-66.5 -27.5q-41 0 -68.5 27.5t-27.5 68.5z" />
    <glyph glyph-name="Zah.medi" unicode="&#x638;" arabic-form="medial" 
d="M1079 100h-18q-166 0 -232 66q-111 -66 -344 -66h-505v181h260q-35 175 -35 1298h145q0 -785 15 -1028l20 59q102 289 289 289q250 0 250 -342v-133q3 -143 137 -143h18v-181zM518 557l-115 -276h134q231 0 231 184v82q0 174 -106 174q-79 0 -144 -164zM567 1165
q0 39 28 67t69 28q38 0 66 -28.5t28 -66.5q0 -41 -27.5 -68.5t-66.5 -27.5q-41 0 -69 27.5t-28 68.5z" />
    <glyph glyph-name="Ain.isol" unicode="&#x639;" arabic-form="isolated" 
d="M125 53q0 259 209 361q-37 93 -37 186q0 137 77.5 214t221.5 77q121 0 231 -45l-49 -172q-87 37 -160 37q-163 0 -163 -131q0 -59 22 -123l342 84l37 -162l-344 -82q-231 -50 -231 -244q0 -114 78.5 -181t222.5 -67q234 0 428 111l63 -158q-222 -133 -491 -133
q-208 0 -332.5 111.5t-124.5 316.5z" />
    <glyph glyph-name="Ain.fina" unicode="&#x639;" arabic-form="final" 
d="M1079 281v-181h-176q-181 0 -295 111l-92 88l-65 -33q-170 -86 -170 -223q0 -112 82.5 -175t228.5 -63q234 0 418 111l63 -158q-204 -133 -471 -133q-204 0 -342 105q-135 105 -135 305q0 258 244 360l32 15l-45 45q-100 93 -100 196q0 240 260 240h82q260 0 260 -240
q0 -180 -203 -282q94 -88 248 -88h176zM627 711h-140q-77 0 -77 -64q0 -46 55 -98l80 -74q160 77 160 172q0 64 -78 64z" />
    <glyph glyph-name="Ain.init" unicode="&#x639;" arabic-form="initial" 
d="M-20 100v181h153q134 0 219 26q-76 201 -76 293q0 137 77.5 214t221.5 77q122 0 232 -45l-49 -172q-87 37 -160 37q-164 0 -164 -131q0 -65 58 -220l327 119l60 -160l-451 -165q-154 -54 -293 -54h-155z" />
    <glyph glyph-name="Ain.medi" unicode="&#x639;" arabic-form="medial" 
d="M600 711h-139q-78 0 -78 -64q0 -36 41 -92l106 -152l107 152q41 56 41 92q0 64 -78 64zM530 166q-107 -66 -254 -66h-296v181h296q98 0 136 38l-101 134q-82 104 -82 198q0 240 260 240h80q262 0 262 -240q0 -92 -83 -198l-101 -134q41 -38 135 -38h297v-181h-297
q-148 0 -252 66z" />
    <glyph glyph-name="Ghain.isol" unicode="&#x63a;" arabic-form="isolated" 
d="M125 53q0 259 209 361q-37 93 -37 186q0 137 77.5 214t221.5 77q121 0 231 -45l-49 -172q-87 37 -160 37q-163 0 -163 -131q0 -59 22 -123l342 84l37 -162l-344 -82q-231 -50 -231 -244q0 -114 78.5 -181t222.5 -67q234 0 428 111l63 -158q-222 -133 -491 -133
q-208 0 -332.5 111.5t-124.5 316.5zM424 1165q0 39 27.5 67t68.5 28q38 0 66 -28.5t28 -66.5q0 -41 -27.5 -68.5t-66.5 -27.5q-41 0 -68.5 27.5t-27.5 68.5z" />
    <glyph glyph-name="Ghain.fina" unicode="&#x63a;" arabic-form="final" 
d="M1079 281v-181h-176q-181 0 -295 111l-92 88l-65 -33q-170 -86 -170 -223q0 -112 82.5 -175t228.5 -63q234 0 418 111l63 -158q-204 -133 -471 -133q-204 0 -342 105q-135 105 -135 305q0 258 244 360l32 15l-45 45q-100 93 -100 196q0 240 260 240h82q260 0 260 -240
q0 -180 -203 -282q94 -88 248 -88h176zM627 711h-140q-77 0 -77 -64q0 -46 55 -98l80 -74q160 77 160 172q0 64 -78 64zM483 1165q0 39 28 67t69 28q38 0 66 -28.5t28 -66.5q0 -41 -27.5 -68.5t-66.5 -27.5q-41 0 -69 27.5t-28 68.5z" />
    <glyph glyph-name="Ghain.init" unicode="&#x63a;" arabic-form="initial" 
d="M-20 100v181h153q134 0 219 26q-76 201 -76 293q0 137 77.5 214t221.5 77q122 0 232 -45l-49 -172q-87 37 -160 37q-164 0 -164 -131q0 -65 58 -220l327 119l60 -160l-451 -165q-154 -54 -293 -54h-155zM403 1165q0 39 28 67t69 28q38 0 66 -28.5t28 -66.5
q0 -41 -27.5 -68.5t-66.5 -27.5q-41 0 -69 27.5t-28 68.5z" />
    <glyph glyph-name="Ghain.medi" unicode="&#x63a;" arabic-form="medial" 
d="M600 711h-139q-78 0 -78 -64q0 -36 41 -92l106 -152l107 152q41 56 41 92q0 64 -78 64zM530 166q-107 -66 -254 -66h-296v181h296q98 0 136 38l-101 134q-82 104 -82 198q0 240 260 240h80q262 0 262 -240q0 -92 -83 -198l-101 -134q41 -38 135 -38h297v-181h-297
q-148 0 -252 66zM424 1165q0 39 27.5 67t68.5 28q38 0 66 -28.5t28 -66.5q0 -41 -27.5 -68.5t-66.5 -27.5q-41 0 -68.5 27.5t-27.5 68.5z" />
    <glyph glyph-name="Feh.isol" unicode="&#x641;" arabic-form="isolated" 
d="M930 578v-117q0 -163 -101 -273q-99 -108 -333 -108q-383 0 -383 371q0 114 14 229h154q-13 -136 -13 -229q0 -191 228 -191q169 0 223 45q55 46 55 94q-34 -18 -92 -18q-110 0 -170.5 67t-60.5 185q0 113 69 188q72 78 174 78q236 0 236 -321zM610 639q0 -38 22.5 -59
t61.5 -21q43 0 80 16v31q0 115 -80 115q-38 0 -61 -23t-23 -59zM563 1165q0 39 27.5 67t68.5 28q38 0 66.5 -28.5t28.5 -66.5q0 -41 -28 -68.5t-67 -27.5q-41 0 -68.5 27.5t-27.5 68.5z" />
    <glyph glyph-name="Feh.fina" unicode="&#x641;" arabic-form="final" 
d="M930 598q-3 -121 -74 -236q115 -81 182 -81h41v-181h-41q-115 0 -254 109q-94 -129 -288 -129q-383 0 -383 371q0 114 14 229h154q-13 -136 -13 -229q0 -191 228 -191q109 0 155 49l-90 70q-110 85 -110 254q0 113 69 188q72 78 174 78q236 0 236 -301zM610 618
q0 -73 60 -118l65 -49q39 85 39 155q0 117 -80 117q-38 0 -61 -30t-23 -75zM563 1165q0 39 27.5 67t68.5 28q38 0 66.5 -28.5t28.5 -66.5q0 -41 -28 -68.5t-67 -27.5q-41 0 -68.5 27.5t-27.5 68.5z" />
    <glyph glyph-name="Feh.init" unicode="&#x641;" arabic-form="initial" 
d="M850 578v-117q0 -153 -100 -256q-99 -105 -334 -105h-436v181h436q148 0 213 37.5t65 99.5q-82 -27 -141 -27q-134 0 -208.5 60.5t-74.5 181.5q0 119 74 192.5t221 73.5q285 0 285 -321zM430 639q0 -70 135 -70q35 0 129 17v20q0 115 -129 115q-135 0 -135 -82zM444 1165
q0 39 28 67t69 28q38 0 66 -28.5t28 -66.5q0 -41 -27.5 -68.5t-66.5 -27.5q-41 0 -69 27.5t-28 68.5z" />
    <glyph glyph-name="Feh.medi" unicode="&#x641;" arabic-form="medial" 
d="M535 184q-125 -84 -291 -84h-264v181h227q139 0 178 26q-145 121 -145 287q0 131 86 217q85 88 204 88q120 0 205 -88q86 -86 86 -217q0 -167 -147 -287q39 -26 180 -26h225v-181h-264q-164 0 -280 84zM530 721q-64 0 -97.5 -38.5t-33.5 -96.5q0 -96 131 -197
q129 102 129 197q0 58 -32.5 96.5t-96.5 38.5zM434 1165q0 39 27.5 67t68.5 28q38 0 66.5 -28.5t28.5 -66.5q0 -41 -28 -68.5t-67 -27.5q-41 0 -68.5 27.5t-27.5 68.5z" />
    <glyph glyph-name="Qaf.isol" unicode="&#x642;" arabic-form="isolated" 
d="M940 487v-247q0 -615 -420 -615h-45q-346 0 -346 465q0 159 27 371h153q-22 -225 -22 -379q0 -277 215 -277h30q126 0 189 84q63 81 63 330q-19 -8 -71 -8q-111 0 -172.5 83.5t-61.5 237.5q0 161 66 265q67 102 170 102q225 0 225 -412zM641 532q0 -75 22.5 -109
t71.5 -34q25 0 49 6v92q0 234 -69 234q-74 0 -74 -189zM457 1165q0 38 28 66.5t66 28.5q41 0 68.5 -28t27.5 -67q0 -41 -27.5 -68.5t-68.5 -27.5q-39 0 -66.5 27.5t-27.5 68.5zM717 1165q0 38 28 66.5t66 28.5q41 0 68.5 -28t27.5 -67q0 -41 -27.5 -68.5t-68.5 -27.5
q-39 0 -66.5 27.5t-27.5 68.5z" />
    <glyph glyph-name="Qaf.fina" unicode="&#x642;" arabic-form="final" 
d="M1079 100h-28q-78 3 -115 15q-15 -214 -102 -336q-109 -154 -314 -154q-391 0 -391 545q0 157 27 330h153q-22 -184 -22 -338q0 -357 245 -357q124 0 188 96t64 265q-163 54 -234 143.5t-71 243.5q0 140 66 244q67 102 170 102q225 0 225 -412v-194q40 -12 111 -12h28
v-181zM641 553q0 -156 143 -205v139q0 234 -69 234q-74 0 -74 -168zM717 1165q0 39 27 67t67 28t67 -28t27 -67q0 -41 -26.5 -68.5t-67.5 -27.5t-67.5 27.5t-26.5 68.5zM457 1165q0 38 28 66.5t66 28.5q40 0 67 -28t27 -67q0 -41 -26.5 -68.5t-67.5 -27.5q-39 0 -66.5 27.5
t-27.5 68.5z" />
    <glyph glyph-name="Qaf.init" unicode="&#x642;" arabic-form="initial" 
d="M850 578v-117q0 -153 -100 -256q-99 -105 -334 -105h-436v181h436q148 0 213 37.5t65 99.5q-82 -27 -141 -27q-134 0 -208.5 60.5t-74.5 181.5q0 119 74 192.5t221 73.5q285 0 285 -321zM430 639q0 -70 135 -70q35 0 129 17v20q0 115 -129 115q-135 0 -135 -82zM305 1165
q0 38 28 66.5t66 28.5q41 0 69 -28t28 -67q0 -41 -28 -68.5t-69 -27.5q-39 0 -66.5 27.5t-27.5 68.5zM565 1165q0 38 28 66.5t66 28.5q41 0 69 -28t28 -67q0 -41 -28 -68.5t-69 -27.5q-39 0 -66.5 27.5t-27.5 68.5z" />
    <glyph glyph-name="Qaf.medi" unicode="&#x642;" arabic-form="medial" 
d="M535 184q-125 -84 -291 -84h-264v181h227q139 0 178 26q-145 121 -145 287q0 131 86 217q85 88 204 88q120 0 205 -88q86 -86 86 -217q0 -167 -147 -287q39 -26 180 -26h225v-181h-264q-164 0 -280 84zM530 721q-64 0 -97.5 -38.5t-33.5 -96.5q0 -96 131 -197
q129 102 129 197q0 58 -32.5 96.5t-96.5 38.5zM295 1165q0 38 28 66.5t66 28.5q41 0 68.5 -28t27.5 -67q0 -41 -27.5 -68.5t-68.5 -27.5q-39 0 -66.5 27.5t-27.5 68.5zM555 1165q0 38 28 66.5t66 28.5q41 0 68.5 -28t27.5 -67q0 -41 -27.5 -68.5t-68.5 -27.5
q-39 0 -66.5 27.5t-27.5 68.5z" />
    <glyph glyph-name="Kaf.isol" unicode="&#x643;" arabic-form="isolated" 
d="M338 887h158q71 0 71 -72v-106q0 -142 -135 -142h-219v95h184q48 0 45 49v82h-157q-72 0 -72 71v107q0 141 133 141h211v-94h-174q-48 0 -45 -49v-82zM754 254q0 452 -70 1325h156q69 -860 69 -1325q0 -528 -444 -528q-348 0 -348 407q0 118 18 268h158
q-21 -150 -21 -268q0 -225 205 -225q138 0 207.5 89t69.5 257z" />
    <glyph glyph-name="Kaf.fina" unicode="&#x643;" arabic-form="final" 
d="M1079 100h-28q-93 0 -142 43q-6 -159 -110 -284q-112 -133 -334 -133q-348 0 -348 407q0 118 18 268h158q-21 -150 -21 -268q0 -225 205 -225q138 0 207.5 89t69.5 257q0 416 -49 1325h155q32 -627 45 -1169q9 -129 146 -129h28v-181zM338 887h158q71 0 71 -72v-106
q0 -142 -135 -142h-219v95h184q48 0 45 49v82h-157q-72 0 -72 71v107q0 141 133 141h211v-94h-174q-48 0 -45 -49v-82z" />
    <glyph glyph-name="Kaf.init" unicode="&#x643;" arabic-form="initial" 
d="M455 100h-475v181h475q174 0 174 118q0 53 -56 109l-321 323q-77 74 -74 189q0 164 178 240l484 196v-186l-447 -183q-57 -26 -57 -83q0 -41 37 -78l307 -312q102 -102 102 -215q0 -139 -81.5 -219t-245.5 -80z" />
    <glyph glyph-name="Kaf.medi" unicode="&#x643;" arabic-form="medial" 
d="M1079 100h-47q-170 0 -327 195q-53 -195 -302 -195h-423v181h423q175 0 175 118q0 54 -56 113l-270 319q-77 83 -74 189q0 164 178 240l484 196v-186l-447 -183q-57 -26 -57 -83q0 -41 37 -78l426 -502q119 -143 233 -143h47v-181z" />
    <glyph glyph-name="Lam.isol" unicode="&#x644;" arabic-form="isolated" 
d="M754 254q0 452 -70 1325h156q69 -860 69 -1325q0 -528 -444 -528q-348 0 -348 407q0 118 18 268h158q-21 -150 -21 -268q0 -225 205 -225q138 0 207.5 89t69.5 257z" />
    <glyph glyph-name="Lam.fina" unicode="&#x644;" arabic-form="final" 
d="M1079 100h-18q-90 0 -152 33q-6 -149 -110 -274q-112 -133 -334 -133q-348 0 -348 407q0 118 18 268h158q-21 -150 -21 -268q0 -227 205 -227q140 0 208.5 85.5t68.5 262.5q0 188 -49 1325h155q35 -975 41 -1135q6 -153 160 -153h18v-191z" />
    <glyph glyph-name="Lam.init" unicode="&#x644;" arabic-form="initial" 
d="M733 598q0 270 -28 981h155q31 -708 31 -981q0 -238 -112.5 -368t-334.5 -130h-464v181h479q143 0 208.5 72t65.5 245z" />
    <glyph glyph-name="Lam.medi" unicode="&#x644;" arabic-form="medial" 
d="M1079 100h-266q-172 0 -250 66q-111 -66 -256 -66h-327v181h337q98 0 140.5 42t42.5 134q0 472 -41 1122h155q41 -650 41 -1153q0 -145 158 -145h266v-181z" />
    <glyph glyph-name="Meem.isol" unicode="&#x645;" arabic-form="isolated" 
d="M276 -365h-155v398q0 311 233 311q64 0 140 -49q-43 82 -43 217q0 172 74 270.5t180 98.5q122 0 199 -106.5t77 -305.5v-41q0 -168 -76.5 -268.5t-199.5 -100.5q-58 0 -138 45q-112 62 -176 62q-115 0 -115 -141v-390zM715 250q108 0 108 168v51q0 231 -118 231
q-99 0 -99 -178v-53q0 -109 25.5 -164t83.5 -55z" />
    <glyph glyph-name="Meem.fina" unicode="&#x645;" arabic-form="final" 
d="M1079 100h-18q-102 0 -160 58q-77 -99 -196 -99q-58 0 -138 45q-112 62 -205 62q-86 0 -86 -141v-390h-155v398q0 321 215 321q66 0 158 -51q-43 82 -43 209q0 172 74 270.5t180 98.5q122 0 199 -106.5t77 -305.5v-41q0 -137 80 -137h18v-191zM715 260q108 0 108 158v51
q0 221 -118 221q-99 0 -99 -168v-53q0 -209 109 -209z" />
    <glyph glyph-name="Meem.init" unicode="&#x645;" arabic-form="initial" 
d="M-20 100v191h200q128 0 184 48.5t56 172.5q0 180 76 274q77 95 180 95q122 0 198 -106t76 -306v-41q0 -169 -75.5 -269t-198.5 -100q-72 0 -129.5 47.5t-75.5 116.5q-91 -123 -291 -123h-200zM684 260q111 0 111 158v51q0 106 -31 163.5t-88 57.5q-101 0 -101 -168v-53
q0 -98 27 -153.5t82 -55.5z" />
    <glyph glyph-name="Meem.medi" unicode="&#x645;" arabic-form="medial" 
d="M1079 100h-90q-143 0 -221 78q-82 -119 -213 -119q-72 0 -128.5 47.5t-74.5 116.5q-94 -123 -321 -123h-51v191h51q155 0 211 47q57 45 57 174q0 178 78 274q77 95 178 95q122 0 198 -106t76 -306q0 -178 160 -178h90v-191zM565 260q109 0 109 158v51q0 221 -119 221
q-98 0 -98 -168v-53q0 -209 108 -209z" />
    <glyph glyph-name="Noon.isol" unicode="&#x646;" arabic-form="isolated" 
d="M754 254q0 236 -58 727h156q57 -482 57 -727q0 -528 -444 -528q-348 0 -348 407q0 118 18 268h158q-21 -150 -21 -268q0 -225 205 -225q138 0 207.5 89t69.5 257zM395 1165q0 38 28 66.5t66 28.5q41 0 69 -28t28 -67q0 -41 -28 -68.5t-69 -27.5q-39 0 -66.5 27.5
t-27.5 68.5z" />
    <glyph glyph-name="Noon.fina" unicode="&#x646;" arabic-form="final" 
d="M1079 100h-28q-78 0 -142 23q-6 -139 -110 -264q-112 -133 -334 -133q-348 0 -348 407q0 118 18 268h158q-21 -150 -21 -268q0 -225 205 -225q138 0 207.5 89t69.5 257q0 189 -68 727h156q56 -373 59 -573q12 -127 150 -127h28v-181zM395 1165q0 38 28 66.5t66 28.5
q41 0 69 -28t28 -67q0 -41 -28 -68.5t-69 -27.5q-39 0 -66.5 27.5t-27.5 68.5z" />
    <glyph glyph-name="Noon.init" unicode="&#x646;" arabic-form="initial" 
d="M518 487q0 197 -37 394h156q39 -192 39 -394q0 -193 -98 -290t-320 -97h-278v181h286q141 0 196.5 50t55.5 156zM344 1165q0 39 27.5 67t68.5 28q38 0 66.5 -28.5t28.5 -66.5q0 -41 -28 -68.5t-67 -27.5q-41 0 -68.5 27.5t-27.5 68.5z" />
    <glyph glyph-name="Noon.medi" unicode="&#x646;" arabic-form="medial" 
d="M1079 100h-276q-172 0 -250 66q-107 -66 -254 -66h-319v181h327q98 0 140 42t42 134q0 227 -40 424h155q41 -202 41 -455q0 -145 158 -145h276v-181zM344 1165q0 39 27.5 67t68.5 28q38 0 66.5 -28.5t28.5 -66.5q0 -41 -28 -68.5t-67 -27.5q-41 0 -68.5 27.5t-27.5 68.5z
" />
    <glyph glyph-name="Heh.isol" unicode="&#x647;" arabic-form="isolated" 
d="M530 723q-63 0 -147 -96q-80 -95 -80 -181q0 -94 54 -140t171 -46q119 0 173.5 46t54.5 140q0 86 -80 181q-81 96 -146 96zM530 80q-200 0 -295.5 91t-95.5 247q0 154 117 317q117 164 274 164q159 0 273 -164q117 -163 117 -317q0 -156 -95 -247t-295 -91z" />
    <glyph glyph-name="Heh.fina" unicode="&#x647;" arabic-form="final" 
d="M1079 100h-86q-171 0 -260 99q-134 -70 -295 -70q-225 0 -225 240q0 321 393 450q0 42 2 62h158q-4 -86 -4 -121q0 -182 47 -328q47 -141 184 -141h86v-191zM367 399q0 -80 90 -80q99 0 209 37q-47 115 -56 285q-243 -95 -243 -242z" />
    <glyph glyph-name="Heh.init" unicode="&#x647;" arabic-form="initial" 
d="M528 819l316 -280q117 -105 117 -211q0 -118 -84.5 -183t-223.5 -65q-152 0 -301 113q-122 -93 -274 -93h-98v181h98q118 0 160 22q-138 132 -138 287q0 135 71 222t183 87q85 0 174 -80zM469 305q68 -45 184 -45q152 0 152 70q0 40 -41 78l-156 137q-18 -119 -139 -240z
M354 721q-47 0 -72.5 -36t-25.5 -103q0 -92 96 -185q101 91 101 185q0 66 -27.5 102.5t-71.5 36.5z" />
    <glyph glyph-name="Heh.medi" unicode="&#x647;" arabic-form="medial" 
d="M621 281h458v-181h-458q210 -58 210 -209q0 -112 -81.5 -189t-208.5 -77q-155 0 -233.5 90.5t-78.5 298.5v86h-249v181h249v155q0 258 80 361q83 102 221 102q137 0 219 -81t82 -206q0 -218 -210 -331zM541 -195q58 0 93.5 27t35.5 74q0 59 -74 94l-213 100v-86
q0 -131 39 -170t119 -39zM530 721q-68 0 -108 -55q-39 -51 -39 -232v-153q287 157 287 305q0 64 -36.5 99.5t-103.5 35.5z" />
    <glyph glyph-name="Waw.isol" unicode="&#x648;" arabic-form="isolated" 
d="M909 410v-281q0 -383 -438 -383h-381v180h381q283 0 283 203v66q-70 -15 -131 -15q-158 0 -240 91.5t-82 254.5q0 165 88 269t215 104q305 0 305 -489zM463 526q0 -74 43 -120t119 -46q69 0 129 17v84q0 260 -150 260q-59 0 -100 -53.5t-41 -141.5z" />
    <glyph glyph-name="Waw.fina" unicode="&#x648;" arabic-form="final" 
d="M1079 100h-170q-41 -354 -497 -354h-322v180h359q294 0 303 174h-90q-177 0 -269 100.5t-92 280.5q0 202 84.5 310t218.5 108q305 0 305 -489v-129h170v-181zM463 481q0 -102 44.5 -151t158.5 -49h88v129q0 311 -150 311q-63 0 -102 -61.5t-39 -178.5z" />
    <glyph glyph-name="AlefMaksura.isol" unicode="&#x649;" arabic-form="isolated" 
d="M518 -190h60q217 0 217 221q0 118 -113 145q-176 47 -176 301q0 196 84 309q82 113 196 113q105 0 175 -76l-82 -129q-47 29 -82 29q-62 0 -98.5 -57.5t-36.5 -151.5q0 -140 96 -164q192 -52 192 -299q0 -422 -397 -422h-41q-383 0 -383 432q0 146 27 439h153
q-22 -306 -22 -439q0 -251 231 -251z" />
    <glyph glyph-name="AlefMaksura.fina" unicode="&#x649;" arabic-form="final" 
d="M1083 281v-181h-39q-181 0 -208 189l-21 162q-9 61 -63 61q-41 0 -63.5 -34.5t-22.5 -100.5q0 -15 6 -62l35 -264q6 -46 6 -88q0 -164 -76 -251t-217 -87q-291 0 -291 418q0 164 27 457h153q-22 -306 -22 -457q0 -227 133 -227t133 170q0 15 -4 65l-31 225q-8 49 -8 99
q0 152 76 237q76 88 176 88q179 0 209 -231l14 -102q9 -86 80 -86h18z" />
    <glyph glyph-name="Yeh.isol" unicode="&#x64a;" arabic-form="isolated" 
d="M485 76q155 0 231.5 42t76.5 103q0 76 -105 94q-182 35 -182 273q0 150 71.5 230.5t190.5 80.5q125 0 188 -106l-100 -146q-34 76 -88 76q-49 0 -77.5 -37.5t-28.5 -99.5q0 -101 102 -119q184 -34 184 -246q0 -146 -124 -235.5t-343 -89.5q-352 0 -352 360q0 91 27 244
h153q-22 -160 -22 -238q0 -186 198 -186zM309 -281q0 41 27.5 69t66.5 28q41 0 69 -28t28 -69q0 -39 -28 -66.5t-69 -27.5q-38 0 -66 28t-28 66zM618 -281q0 41 28 69t69 28q39 0 66.5 -28t27.5 -69q0 -38 -28 -66t-66 -28q-41 0 -69 27.5t-28 66.5z" />
    <glyph glyph-name="Yeh.fina" unicode="&#x64a;" arabic-form="final" 
d="M1083 281v-181h-18q-207 0 -242 271l-12 80q-6 71 -57 71q-76 0 -76 -112q0 -43 8 -84l12 -56q11 -50 11 -82q0 -113 -74 -202q-72 -90 -215 -90q-291 0 -291 360q0 88 27 244h153q-22 -163 -22 -238q0 -186 133 -186q60 0 92.5 29.5t32.5 80.5q0 30 -13 84l-4 23
q-14 55 -14 115q0 127 70.5 209.5t179.5 82.5q92 0 144 -56.5t69 -174.5l14 -102q12 -86 74 -86h18zM188 -281q0 41 28 69t69 28q39 0 66.5 -28t27.5 -69q0 -38 -28 -66t-66 -28q-41 0 -69 27.5t-28 66.5zM500 -281q0 41 27.5 69t66.5 28q41 0 67.5 -27.5t26.5 -69.5
q0 -39 -26.5 -66.5t-67.5 -27.5q-38 0 -66 28t-28 66z" />
    <glyph glyph-name="Yeh.init" unicode="&#x64a;" arabic-form="initial" 
d="M518 487q0 197 -37 394h156q39 -192 39 -394q0 -193 -98 -290t-320 -97h-278v181h286q141 0 196.5 50t55.5 156zM205 -156q0 41 27.5 69t66.5 28q41 0 68.5 -28t27.5 -69q0 -39 -27.5 -66.5t-68.5 -27.5q-38 0 -66 28t-28 66zM465 -156q0 41 27.5 69t66.5 28
q41 0 68.5 -28t27.5 -69q0 -39 -27.5 -66.5t-68.5 -27.5q-38 0 -66 28t-28 66z" />
    <glyph glyph-name="Yeh.medi" unicode="&#x64a;" arabic-form="medial" 
d="M1079 100h-276q-172 0 -250 66q-107 -66 -254 -66h-319v181h327q98 0 140 42t42 134q0 227 -40 424h155q41 -202 41 -455q0 -145 158 -145h276v-181zM285 -156q0 41 27.5 69t66.5 28q41 0 68.5 -28t27.5 -69q0 -39 -27.5 -66.5t-68.5 -27.5q-38 0 -66 28t-28 66z
M545 -156q0 41 27.5 69t66.5 28q41 0 68.5 -28t27.5 -69q0 -39 -27.5 -66.5t-68.5 -27.5q-38 0 -66 28t-28 66z" />
    <glyph glyph-name=".notdef" 
d="M799 918q0 -87 -37 -127q-33 -39 -160 -39q-128 0 -158 34q-28 36 -34 80q-6 -44 -37 -80q-30 -34 -158 -34q-127 0 -160 39q-35 41 -35 127q0 83 35 124q33 39 160 39q128 0 158 -34q31 -36 37 -101q6 65 34 101q30 34 158 34q127 0 160 -39q37 -40 37 -124zM45 102v166
q152 -155 385 -155q197 0 309.5 118t112.5 353v245h156v-245q0 -286 -156 -445t-422 -162q-239 0 -385 125zM733 653q-49 -368 -323 -368q-275 0 -324 368q126 -182 324 -182q197 0 323 182zM45 1286v178l115 19q31 6 55.5 12t49.5 15t39.5 14.5t42 20t39 20.5t48.5 27
t53 30q-39 39 -65 55q-44 33 -105 33q-59 0 -149 -82q-24 -23 -63 -65t-60 -64v193q85 80 142 110.5t130 36.5q133 0 248 -115l39 -43q37 15 74 15q32 0 70 -15q2 12 10 31q16 62 16 115v80h129v-80q0 -76 -20 -146q-7 -29 -25 -69q21 -15 43 -37q82 -79 150 -156l-97 -86
q-56 63 -120 131l-33 35q-9 -14 -45 -61l53 -107q59 -115 104.5 -174t94.5 -59v-129q-46 0 -89 22t-76 53.5t-69 85t-60 98t-57 111.5q-21 -18 -53 -36q-151 -99 -321 -99q-55 0 -107.5 18.5t-130.5 63.5zM596 1458l-31 53l-10 -8q-36 -22 -115 -61q-84 -41 -164 -64
q-52 -15 -86 -22l27 -10q37 -13 66 -13q129 0 252 78q26 16 61 47zM281 918q0 53 -66 53q-63 0 -63 -53q0 -58 63 -58q66 0 66 58zM668 918q0 53 -66 53q-63 0 -63 -53q0 -58 63 -58q66 0 66 58z" />
    <glyph glyph-name=".null" 
 />
    <glyph glyph-name="nonmarkingreturn" 
 />
    <glyph glyph-name="CR" unicode="&#xd;" 
 />
    <glyph glyph-name="space" unicode=" " 
 />
    <glyph glyph-name="exclam" unicode="!" 
d="M618 1579v-1069h-178v1069h178zM666 115q0 -57 -40.5 -96t-97.5 -39q-56 0 -95.5 39t-39.5 96q0 55 39.5 95t95.5 40q57 0 97.5 -39.5t40.5 -95.5z" />
    <glyph glyph-name="quotedbl" unicode="&#x22;" 
d="M838 1579v-592h-179v592h179zM399 1579v-592h-178v592h178z" />
    <glyph glyph-name="numbersign" unicode="#" 
d="M969 565v-155h-230l-71 -410h-176l69 410h-199l-69 -410h-178l71 410h-176v155h203l78 451h-203v155h229l70 408h176l-69 -408h198l72 408h176l-70 -408h177v-155h-203l-78 -451h203zM389 565h199l78 451h-199z" />
    <glyph glyph-name="dollar" unicode="$" 
d="M948 410q0 -149 -90 -256q-91 -104 -217 -125v-320h-176v318q-224 21 -354 254l129 98q102 -199 303 -199q100 0 164.5 61t64.5 167q0 92 -117 186l-313 252q-168 131 -168 336q0 141 81 243t210 125v322h176v-320q171 -15 309 -206l-135 -107q-89 164 -248 164
q-97 0 -156 -55.5t-59 -163.5q0 -119 94 -195l316 -252q186 -149 186 -327z" />
    <glyph glyph-name="percent" unicode="%" 
d="M776 1579h170l-661 -1579h-172zM469 1397q0 -90 -54 -146.5t-130 -56.5q-75 0 -129 57t-54 146q0 88 54.5 145t128.5 57q75 0 129.5 -58t54.5 -144zM956 182q0 -88 -55 -145t-131 -57q-74 0 -127 57t-53 145q0 89 53 147t127 58q76 0 131 -58t55 -147z" />
    <glyph glyph-name="ampersand" unicode="&#x26;" 
d="M920 838l-115 -387l215 -398v-53h-156l-137 252q-91 -272 -293 -272q-162 0 -240.5 120t-78.5 340q0 323 237 502l-47 88q-63 117 -63 240q0 143 82 237q83 95 213 95q211 0 288 -267l-153 -61q-40 172 -135 172q-55 0 -87 -49.5t-32 -136.5q0 -96 84 -252l200 -371
l74 246h144v-45zM434 135q103 0 158 184l35 119l-201 369q-133 -118 -133 -367q0 -305 141 -305z" />
    <glyph glyph-name="quotesingle" unicode="'" 
d="M618 1579v-592h-178v592h178z" />
    <glyph glyph-name="parenleft" unicode="(" 
d="M270 791q0 628 545 1007l88 -121q-465 -330 -465 -886t465 -889l-88 -119q-545 379 -545 1008z" />
    <glyph glyph-name="parenright" unicode=")" 
d="M791 791q0 -629 -545 -1008l-90 119q465 333 465 889t-465 886l90 121q545 -379 545 -1007z" />
    <glyph glyph-name="asterisk" unicode="*" 
d="M733 498l-203 307l-204 -307l-133 96l227 291l-357 102l52 158l344 -127l-15 373h170l-14 -373l346 127l51 -158l-356 -102l227 -291z" />
    <glyph glyph-name="plus" unicode="+" 
d="M971 778v-176h-353v-352h-176v352h-354v176h354v352h176v-352h353z" />
    <glyph glyph-name="comma" unicode="," 
d="M733 156q0 -190 -201 -521h-176q126 199 170 365q-87 1 -142.5 56.5t-55.5 136.5q0 91 53 147.5t139 56.5q97 0 155 -66t58 -175z" />
    <glyph glyph-name="hyphen" unicode="-" 
d="M971 778v-176h-883v176h883z" />
    <glyph glyph-name="period" unicode="." 
d="M733 182q0 -81 -59.5 -141.5t-145.5 -60.5t-143 60t-57 142t57.5 143.5t142.5 61.5q86 0 145.5 -62t59.5 -143z" />
    <glyph glyph-name="slash" unicode="/" 
d="M770 1579h180l-661 -1579h-180z" />
    <glyph glyph-name="zero" unicode="0" 
d="M109 791q0 167 104 544q71 267 311 267q254 0 324 -267q104 -377 104 -544q0 -169 -104 -543q-71 -268 -324 -268q-240 0 -311 268q-104 374 -104 543zM776 791q0 166 -94 499q-37 149 -158 152q-110 -3 -147 -152q-92 -336 -92 -499q0 -164 92 -500q37 -149 147 -152
q121 3 158 152q94 333 94 500zM514 930l115 -230h-88l-115 230h88z" />
    <glyph glyph-name="one" unicode="1" 
d="M739 0h-178v1366l-297 -231l-80 135l398 309h157v-1579z" />
    <glyph glyph-name="two" unicode="2" 
d="M915 150v-150h-731v150q0 244 234 542l233 301q88 110 88 219q0 114 -55 172t-154 58q-167 0 -241 -203l-146 102q135 261 387 261q159 0 273 -111q112 -106 112 -279q0 -166 -135 -338l-229 -296q-191 -244 -191 -428h555z" />
    <glyph glyph-name="three" unicode="3" 
d="M100 240l144 96q74 -197 272 -197q242 0 242 328q0 172 -82 233q-80 62 -189 62h-77v149h77q100 0 169 69.5t69 201.5q0 131 -56 195.5t-153 64.5q-168 0 -242 -197l-143 96q144 261 387 261q168 0 277 -115q108 -114 108 -305q0 -256 -211 -344q244 -71 244 -371
q0 -240 -119 -365q-119 -122 -299 -122q-275 0 -418 260z" />
    <glyph glyph-name="four" unicode="4" 
d="M922 580v-152h-103v-428h-176v428h-555v152l516 999h215v-999h103zM260 580h383v743z" />
    <glyph glyph-name="five" unicode="5" 
d="M922 494q0 -247 -119 -381q-121 -133 -287 -133q-258 0 -387 243l143 96q73 -180 242 -180q100 0 164.5 87.5t64.5 267.5q0 189 -66.5 266.5t-221.5 77.5h-236v741h670v-149h-494v-433h90q206 0 321.5 -121.5t115.5 -381.5z" />
    <glyph glyph-name="six" unicode="6" 
d="M950 475q0 -236 -112 -366q-111 -129 -283 -129q-162 0 -279 129q-116 131 -116 440v465q0 292 109.5 440t303.5 148q213 0 349 -216l-144 -100q-68 156 -203 156q-111 0 -176 -92q-63 -86 -63 -336v-219q94 174 272 174q157 0 249.5 -128.5t92.5 -365.5zM774 475
q0 192 -55 262t-144 70q-187 0 -239 -225q0 -289 61 -365q66 -78 158 -78q99 0 159 82.5t60 253.5z" />
    <glyph glyph-name="seven" unicode="7" 
d="M811 1085l-143 -284q-149 -296 -158 -643l-6 -158h-176l6 170q9 339 198 717l144 284q74 148 74 259h-609v149h785v-72q0 -189 -115 -422z" />
    <glyph glyph-name="eight" unicode="8" 
d="M528 -20q-179 0 -299 114q-116 113 -116 307q0 291 270 447q-227 155 -227 375q0 171 106 274q108 105 266 105q161 0 269 -105t108 -274q0 -217 -227 -375q268 -157 268 -447q0 -194 -119 -307q-117 -114 -299 -114zM528 1442q-88 0 -142 -57.5t-54 -161.5
q0 -174 196 -297q201 124 201 297q0 104 -54.5 161.5t-146.5 57.5zM528 748q-239 -120 -239 -347q0 -136 63.5 -199t175.5 -63q242 0 242 262q0 227 -242 347z" />
    <glyph glyph-name="nine" unicode="9" 
d="M111 1108q0 230 109 362t286 132q159 0 276 -129q119 -128 119 -439v-467q0 -292 -110 -439.5t-306 -147.5q-210 0 -348 217l146 94q65 -152 200 -152q111 0 176 92q66 94 66 336v221q-88 -174 -272 -174q-158 0 -250 127.5t-92 366.5zM287 1108q0 -195 53 -266
q55 -70 143 -70q189 0 242 244q0 273 -63 348q-66 78 -158 78q-98 0 -157.5 -81.5t-59.5 -252.5z" />
    <glyph glyph-name="colon" unicode=":" 
d="M733 182q0 -81 -59.5 -141.5t-145.5 -60.5t-143 60t-57 142t57.5 143.5t142.5 61.5q86 0 145.5 -62t59.5 -143zM733 989q0 -81 -59.5 -142t-145.5 -61t-143 60.5t-57 142.5t57.5 143.5t142.5 61.5q86 0 145.5 -62t59.5 -143z" />
    <glyph glyph-name="semicolon" unicode=";" 
d="M733 989q0 -81 -59.5 -142t-145.5 -61t-143 60.5t-57 142.5t57.5 143.5t142.5 61.5q86 0 145.5 -62t59.5 -143zM733 156q0 -190 -201 -521h-176q126 199 170 365q-87 1 -142.5 56.5t-55.5 136.5q0 91 53 147.5t139 56.5q97 0 155 -66t58 -175z" />
    <glyph glyph-name="less" unicode="&#x3c;" 
d="M938 1028l-637 -338l637 -338v-188l-856 467v119l856 467v-189z" />
    <glyph glyph-name="equal" unicode="=" 
d="M971 973v-166h-883v166h883zM971 573v-165h-883v165h883z" />
    <glyph glyph-name="greater" unicode="&#x3e;" 
d="M758 690l-637 338v189l858 -467v-119l-858 -467v188z" />
    <glyph glyph-name="question" unicode="?" 
d="M891 1223q0 -127 -84 -252l-193 -281q-39 -56 -39 -125v-55h-176v57q0 117 70 221l199 291q45 65 45 144q0 89 -57.5 150t-151.5 61q-166 0 -252 -189l-143 96q144 261 397 261q168 0 276 -111q109 -109 109 -268zM641 115q0 -57 -39.5 -96t-95.5 -39q-57 0 -96 39
t-39 96q0 56 39 95.5t96 39.5q56 0 95.5 -40t39.5 -95z" />
    <glyph glyph-name="at" unicode="@" 
d="M559 1448q-148 0 -235.5 -110t-87.5 -330v-453q0 -206 102.5 -314t277.5 -108q230 0 385 158v-187q-145 -124 -389 -124q-232 0 -383 151q-149 149 -149 424v453q0 292 135 442q137 152 344 152q190 0 315 -119q127 -118 127 -402v-422q0 -152 -88 -237q-86 -86 -206 -86
q-121 0 -207 86t-86 237v138q0 374 252 374q100 0 178 -90v23q0 201 -86 272q-87 72 -199 72zM844 649v189q0 91 -39.5 139.5t-108.5 48.5q-124 0 -127 -199v-178q0 -84 38.5 -126t99.5 -42t99 42t38 126z" />
    <glyph glyph-name="A" unicode="A" 
d="M289 88v-88h-176v88q0 227 135 764l182 727h199l182 -727q135 -537 135 -764v-88h-176v88q0 94 -29 283h-424q-28 -182 -28 -283zM662 754l-132 546l-131 -546q-41 -172 -53 -234h367q-8 41 -26.5 124.5t-24.5 109.5z" />
    <glyph glyph-name="B" unicode="B" 
d="M936 481q0 -238 -125 -359.5t-342 -121.5h-303v1579h319q198 0 303 -102t105 -279q0 -250 -215 -330q258 -76 258 -387zM711 1198q0 125 -55 178.5t-171 53.5h-143v-506h123q109 0 177.5 69.5t68.5 204.5zM754 481q0 158 -59 225.5t-171 67.5h-182v-624h127
q155 0 220 72.5t65 258.5z" />
    <glyph glyph-name="C" unicode="C" 
d="M836 332l145 -99q-146 -253 -401 -253q-171 0 -291 114q-119 116 -119 424v545q0 299 119 418q121 121 289 121q267 0 393 -256l-146 -86q-77 182 -247 182q-98 0 -164 -72t-66 -307v-545q0 -232 66 -307q66 -72 164 -72q170 0 258 193z" />
    <glyph glyph-name="D" unicode="D" 
d="M961 952v-305q0 -306 -140.5 -476.5t-386.5 -170.5h-260v1579h260q248 0 387.5 -161t139.5 -466zM778 647v305q0 237 -90.5 357.5t-253.5 120.5h-86v-1280h86q162 0 253 127.5t91 369.5z" />
    <glyph glyph-name="E" unicode="E" 
d="M924 150v-150h-727v1579h727v-149h-551v-512h407v-150h-407v-618h551z" />
    <glyph glyph-name="F" unicode="F" 
d="M971 1579v-149h-574v-512h461v-150h-461v-768h-176v1579h750z" />
    <glyph glyph-name="G" unicode="G" 
d="M926 846v-367q0 -262 -113 -381q-112 -118 -283 -118t-280 118q-111 120 -111 381v625q0 250 107.5 374t294.5 124q242 0 368 -256l-143 -86q-80 182 -223 182q-115 0 -171.5 -75.5t-56.5 -262.5v-625q0 -186 54.5 -263t160.5 -77q98 0 158 72q62 74 62 268v215h-189v152
h365z" />
    <glyph glyph-name="H" unicode="H" 
d="M909 1579v-1579h-176v791h-407v-791h-176v1579h176v-639h407v639h176z" />
    <glyph glyph-name="I" unicode="I" 
d="M866 150v-150h-673v150h247v1280h-194v149h567v-149h-195v-1280h248z" />
    <glyph glyph-name="J" unicode="J" 
d="M872 1579v-1104q0 -257 -108 -377q-106 -118 -266 -118q-150 0 -262 118q-113 119 -113 377v232h176v-234q0 -177 54.5 -255.5t144.5 -78.5q96 0 147 77t51 257v1106h176z" />
    <glyph glyph-name="K" unicode="K" 
d="M201 1579h176v-754l266 394q133 196 145 305l9 55h176l-10 -76q-15 -128 -185 -377l-164 -241l236 -398q145 -245 160 -417l10 -70h-176l-6 55q-22 169 -127 346l-211 357l-123 -185v-573h-176v1579z" />
    <glyph glyph-name="L" unicode="L" 
d="M971 150v-150h-719v1579h176v-1429h543z" />
    <glyph glyph-name="M" unicode="M" 
d="M934 1579v-1579h-176v418q0 399 30 936l-202 -654h-111l-205 654q31 -555 31 -936v-418h-174v1579h174l229 -655l228 655h176z" />
    <glyph glyph-name="N" unicode="N" 
d="M909 1579v-1579h-164l-12 477l-446 856q39 -461 39 -807v-526h-176v1579h176l448 -854q-41 481 -41 807v47h176z" />
    <glyph glyph-name="O" unicode="O" 
d="M141 479v625q0 249 105 373.5t284 124.5t283.5 -124.5t104.5 -373.5v-625q0 -250 -104.5 -374.5t-283.5 -124.5q-180 2 -284.5 125.5t-104.5 373.5zM319 1104v-625q0 -186 52.5 -263t156.5 -77q106 0 159.5 77t53.5 263v625q0 184 -54 261t-159 77q-69 0 -113 -29.5
t-70 -105.5t-26 -203z" />
    <glyph glyph-name="P" unicode="P" 
d="M377 717v-717h-176v1579h344q207 0 316.5 -112t109.5 -308q0 -210 -116.5 -326t-309.5 -116h-168zM377 1430v-564h166q128 0 186.5 65.5t58.5 227.5q0 148 -55.5 209.5t-189.5 61.5h-166z" />
    <glyph glyph-name="Q" unicode="Q" 
d="M918 1104v-625q0 -355 -216 -461l113 -286h-186l-99 248q-180 2 -284.5 125.5t-104.5 373.5v625q0 249 105 373.5t284 124.5t283.5 -124.5t104.5 -373.5zM741 487v615q0 186 -53.5 263t-159.5 77q-104 0 -156.5 -77t-52.5 -263v-615q0 -202 56 -276q57 -72 155 -72
q97 0 154 72t57 276z" />
    <glyph glyph-name="R" unicode="R" 
d="M575 678l-24 43h-184v-721h-177v1579h345q206 0 310.5 -111.5t104.5 -308.5q0 -156 -63 -262t-164 -143l16 -29q198 -305 219 -655l5 -70h-177l-4 55q-18 328 -207 623zM367 1430v-560h168q121 0 177 71t56 220q0 145 -55 207t-178 62h-168z" />
    <glyph glyph-name="S" unicode="S" 
d="M948 369q0 -163 -106 -275q-108 -114 -295 -114q-299 0 -436 260l129 100q103 -201 305 -201q98 0 162.5 61t64.5 169q0 92 -117 200l-338 318q-143 131 -143 336q0 160 105 268q105 111 286 111q237 0 385 -216l-135 -106q-88 162 -248 162q-97 0 -156 -55.5t-59 -163.5
q0 -117 92 -203l338 -315q166 -156 166 -336z" />
    <glyph glyph-name="T" unicode="T" 
d="M942 1579v-149h-324v-1430h-176v1430h-325v149h825z" />
    <glyph glyph-name="U" unicode="U" 
d="M909 1579v-1106q0 -256 -110 -375q-109 -118 -269 -118q-161 0 -270 118q-110 119 -110 375v1106h176v-1106q0 -195 57 -264q58 -70 145 -70q88 0 146 70q59 71 59 264v1106h176z" />
    <glyph glyph-name="V" unicode="V" 
d="M629 0h-199l-194 727q-134 496 -134 766v86h177v-86q0 -238 100 -657l151 -637l152 637q98 423 98 657v86h176v-86q0 -281 -131 -766z" />
    <glyph glyph-name="W" unicode="W" 
d="M586 807l151 -713l27 375q14 192 14 469v641h176v-381q0 -392 -55 -729l-74 -469h-166l-129 612l-131 -612h-166l-73 469q-56 344 -56 729v381h177v-641q0 -250 16 -469l27 -375l149 713h113z" />
    <glyph glyph-name="X" unicode="X" 
d="M264 0h-176l6 70q15 170 158 417l186 320l-166 287q-142 239 -157 415l-6 70h176l4 -53q15 -170 117 -346l124 -215l123 215q102 176 117 346l6 53h176l-6 -70q-15 -168 -158 -415l-165 -287l186 -320q143 -247 158 -417l6 -70h-176l-6 55q-15 171 -117 346l-144 248
l-145 -248q-102 -175 -117 -346z" />
    <glyph glyph-name="Y" unicode="Y" 
d="M618 674v-674h-176v674l-170 309q-163 298 -163 524v72h176v-72q0 -195 121 -440l124 -242l123 242q123 243 123 440v72h176v-72q0 -225 -164 -524z" />
    <glyph glyph-name="Z" unicode="Z" 
d="M264 469l418 735q57 99 57 226h-555v149h731v-149q0 -161 -90 -320l-417 -737q-58 -101 -58 -223h576v-150h-752v150q0 160 90 319z" />
    <glyph glyph-name="bracketleft" unicode="[" 
d="M874 20v-157h-548v1853h548v-155h-372v-1541h372z" />
    <glyph glyph-name="backslash" unicode="\" 
d="M119 1579h160l661 -1579h-160z" />
    <glyph glyph-name="bracketright" unicode="]" 
d="M735 1716v-1853h-549v157h371v1541h-371v155h549z" />
    <glyph glyph-name="asciicircum" unicode="^" 
d="M618 1579l336 -956h-188l-238 723l-243 -723h-181l332 956h182z" />
    <glyph glyph-name="underscore" unicode="_" 
d="M1071 -70v-155h-1081v155h1081z" />
    <glyph glyph-name="grave" unicode="`" 
d="M600 987l-289 592h238l219 -592h-168z" />
    <glyph glyph-name="a" unicode="a" 
d="M885 813v-813h-176v131q-115 -151 -283 -151q-145 0 -233 98q-89 100 -89 248q0 160 114 260t323 100h168v127q0 221 -211 221q-156 0 -232 -137l-133 100q138 197 367 197q173 0 279 -99t106 -282zM709 274v271h-168q-125 0 -189.5 -58.5t-64.5 -160.5q0 -187 182 -187
q145 0 240 135z" />
    <glyph glyph-name="b" unicode="b" 
d="M940 668v-162q0 -283 -100 -404q-101 -122 -242 -122q-180 0 -270 161v-141h-176v1579h176v-549q92 164 270 164q141 0 242 -125q100 -121 100 -401zM760 506v162q0 198 -50.5 282t-154.5 84q-175 0 -227 -233v-428q56 -234 227 -234q104 0 154.5 84.5t50.5 282.5z" />
    <glyph glyph-name="c" unicode="c" 
d="M829 287l144 -92q-135 -215 -385 -215q-180 0 -297 129t-117 405v145q0 277 117 406t297 129q250 0 385 -217l-144 -90q-88 147 -231 147q-113 0 -180 -76q-66 -75 -66 -299v-145q0 -223 66 -301q68 -74 180 -74q142 0 231 148z" />
    <glyph glyph-name="d" unicode="d" 
d="M121 506v162q0 280 100 401q101 125 240 125q180 0 272 -164v549h176v-1579h-176v141q-90 -161 -272 -161q-139 0 -240 122q-100 121 -100 404zM301 668v-162q0 -198 50.5 -282.5t152.5 -84.5q174 0 229 234v418q-53 243 -229 243q-102 0 -152.5 -84.5t-50.5 -281.5z" />
    <glyph glyph-name="e" unicode="e" 
d="M924 686v-135h-613v-35q0 -225 66 -303q68 -74 180 -74q145 0 231 148l144 -92q-135 -215 -385 -215q-180 0 -297 129q-115 130 -115 407v141q0 278 115 408q117 129 280 129q176 0 283 -119q111 -120 111 -389zM311 707h437q0 170 -59 248.5t-159 78.5q-99 0 -159 -79
t-60 -248z" />
    <glyph glyph-name="f" unicode="f" 
d="M971 1458l-133 -106q-41 90 -154 90q-77 0 -116.5 -49.5t-39.5 -167.5v-117h396v-152h-396v-956h-176v956h-196v152h196v106q0 190 90 289t232 99q208 0 297 -144z" />
    <glyph glyph-name="g" unicode="g" 
d="M987 1171v-139h-59l-97 8q78 -96 78 -194q0 -138 -99.5 -227t-266.5 -89h-117q-84 -57 -84 -106q0 -52 34.5 -77t108.5 -25h99q210 0 311.5 -89t101.5 -239q0 -163 -125 -264q-126 -105 -327 -105q-211 0 -324 96q-110 94 -110 234q0 181 180 272q-133 56 -133 170
q0 115 141 197q-145 100 -145 270q0 145 104 234.5t285 89.5q29 0 262 -17h182zM739 864q0 76 -53.5 127t-153.5 51q-101 0 -153.5 -49t-52.5 -131q0 -92 52.5 -139t151.5 -47q209 0 209 188zM817 -6q0 168 -233 168h-72q-221 0 -221 -195q0 -86 65 -134t176 -48
q285 0 285 209z" />
    <glyph glyph-name="h" unicode="h" 
d="M909 768v-768h-176v758q0 152 -44.5 214t-133.5 62q-171 0 -229 -241v-793h-176v1579h176v-547q113 162 272 162q133 0 221 -98q90 -96 90 -328z" />
    <glyph glyph-name="i" unicode="i" 
d="M643 1569q0 -56 -39 -95.5t-96 -39.5q-59 0 -97 39t-38 96t38 97t97 40q56 0 95.5 -40.5t39.5 -96.5zM909 150v-150h-739v150h281v872h-201v149h379v-1021h280z" />
    <glyph glyph-name="j" unicode="j" 
d="M756 1569q0 -56 -39 -95.5t-96 -39.5q-59 0 -97.5 39.5t-38.5 95.5q0 57 38.5 97t97.5 40q56 0 95.5 -40.5t39.5 -96.5zM563 90v932h-201v149h379v-1081q0 -217 -107.5 -341t-283.5 -124q-196 0 -340 164l121 115q82 -119 209 -119q223 0 223 305z" />
    <glyph glyph-name="k" unicode="k" 
d="M967 41l4 -41h-176q-9 132 -127 301l-176 252l-132 -162v-391h-176v1579h176v-971l261 320q130 160 133 243h176l-2 -36q-6 -95 -176 -301l-142 -172l183 -265q168 -241 174 -356z" />
    <glyph glyph-name="l" unicode="l" 
d="M899 150v-150h-739v150h282v1280h-200v149h376v-1429h281z" />
    <glyph glyph-name="m" unicode="m" 
d="M958 893v-893h-153v885q0 149 -76 149q-77 0 -123 -114v-920h-153v885q-3 149 -68 149q-77 0 -129 -114v-920h-156v1171h156v-114q76 137 182 137q110 0 150 -137q76 137 186 137q184 0 184 -301z" />
    <glyph glyph-name="n" unicode="n" 
d="M909 770v-770h-176v760q0 146 -44.5 208t-133.5 62q-171 0 -229 -237v-793h-176v1171h176v-149q114 172 272 172q133 0 221 -98q90 -96 90 -326z" />
    <glyph glyph-name="o" unicode="o" 
d="M926 668v-160q0 -261 -107.5 -394.5t-288.5 -133.5t-288 133.5t-107 394.5v160q0 260 107.5 393t287.5 133q181 0 288.5 -133.5t107.5 -392.5zM750 508v160q0 206 -62 286t-158 80q-95 0 -157 -80t-62 -286v-160q0 -209 62 -289t157 -80q96 0 158 80t62 289z" />
    <glyph glyph-name="p" unicode="p" 
d="M940 668v-164q0 -278 -106 -402q-104 -122 -236 -122q-179 0 -270 163v-508h-176v1536h176v-139q91 162 270 162q131 0 236 -123q106 -121 106 -403zM760 504v164q0 366 -205 366q-172 0 -227 -241v-410q53 -244 227 -244q205 0 205 365z" />
    <glyph glyph-name="q" unicode="q" 
d="M121 504v164q0 282 100 403q102 123 240 123q180 0 272 -164v141h176v-1536h-176v508q-91 -163 -272 -163q-139 0 -240 122q-100 124 -100 402zM301 668v-164q0 -196 50.5 -280.5t152.5 -84.5q176 0 229 244v410q-55 241 -229 241q-102 0 -152.5 -84.5t-50.5 -281.5z" />
    <glyph glyph-name="r" unicode="r" 
d="M983 975l-152 -70q-53 129 -176 129q-258 0 -258 -481v-553h-176v1171h176v-188q105 211 287 211q210 0 299 -219z" />
    <glyph glyph-name="s" unicode="s" 
d="M535 135q105 0 164 51t59 129q0 102 -127 158l-225 105q-209 102 -209 282q0 146 102 240q104 94 266 94q237 0 363 -217l-146 -86q-65 145 -217 145q-89 0 -140.5 -44t-51.5 -113q0 -91 116 -146l213 -98q232 -108 232 -330q0 -127 -109 -227q-107 -98 -293 -98
q-262 0 -405 239l145 88q85 -172 263 -172z" />
    <glyph glyph-name="t" unicode="t" 
d="M848 260l133 -96q-126 -184 -330 -184q-142 0 -231.5 96t-89.5 270v676h-199v149h199v408h176v-408h395v-149h-395v-686q0 -96 41 -146.5t115 -50.5q121 0 186 121z" />
    <glyph glyph-name="u" unicode="u" 
d="M909 1171v-1171h-176v152q-114 -172 -272 -172q-133 0 -221 98q-90 101 -90 354v739h176v-739q0 -163 45 -228t133 -65q174 0 229 230v802h176z" />
    <glyph glyph-name="v" unicode="v" 
d="M834 612l-203 -612h-203l-203 612q-105 317 -114 475l-5 84h177l4 -84q8 -139 100 -448l143 -473l144 473q89 301 98 448l6 84h176l-6 -84q-9 -158 -114 -475z" />
    <glyph glyph-name="w" unicode="w" 
d="M586 700l139 -604l43 381q25 247 25 486v208h172v-153q0 -204 -60 -541l-88 -477h-166l-121 528l-122 -528h-166l-86 477q-62 331 -62 541v153h172v-208q0 -249 27 -486l41 -381l139 604h113z" />
    <glyph glyph-name="x" unicode="x" 
d="M530 467l-157 -223q-83 -115 -92 -244h-177l2 41q9 117 134 291l192 272l-166 236q-124 172 -133 293l-2 38h176q9 -125 92 -243l131 -185l132 185q81 115 90 243h176l-2 -38q-6 -119 -131 -293l-168 -236l194 -272q125 -174 131 -291l2 -41h-176q-9 132 -90 244z" />
    <glyph glyph-name="y" unicode="y" 
d="M313 -188l136 348l-244 598q-85 213 -94 323l-5 90h177l4 -84q3 -62 82 -278l161 -444l162 438q77 213 80 284l6 84h176l-6 -90q-6 -97 -94 -323l-373 -971q-19 -49 -22 -115l-2 -37h-176l2 37q3 70 30 140z" />
    <glyph glyph-name="z" unicode="z" 
d="M317 465l316 383q88 98 88 174h-537v149h711v-118q0 -159 -121 -301l-315 -383q-109 -130 -109 -219h576v-150h-752v121q0 176 143 344z" />
    <glyph glyph-name="braceleft" unicode="{" 
d="M901 20v-157h-164q-143 0 -243 100q-101 101 -101 273v253q0 88 -61.5 149.5t-147.5 61.5h-26v181h26q86 0 147.5 61.5t61.5 147.5v251q0 172 101 273q102 102 243 102h164v-157h-164q-73 0 -120.5 -51.5t-47.5 -145.5v-266q0 -108 -57 -191q-60 -91 -156 -114
q106 -35 160 -121q53 -80 53 -183v-270q0 -94 47.5 -145.5t120.5 -51.5h164z" />
    <glyph glyph-name="bar" unicode="|" 
d="M612 1950v-2325h-166v2325h166z" />
    <glyph glyph-name="braceright" unicode="}" 
d="M901 881v-181h-29q-84 0 -145 -61t-61 -150v-253q0 -172 -101 -273q-100 -100 -243 -100h-164v157h164q73 0 120 51.5t47 145.5v270q0 101 54 183q54 87 159 121q-95 23 -155 114q-58 85 -58 191v266q0 94 -47 145.5t-120 51.5h-164v157h164q141 0 243 -102
q101 -101 101 -273v-251q0 -86 61 -147.5t147 -61.5h27z" />
    <glyph glyph-name="asciitilde" unicode="~" 
d="M850 948h160q-15 -448 -281 -448q-109 0 -182 82l-131 147q-51 57 -92 57q-104 0 -113 -288h-162q15 448 281 448q106 0 178 -78l139 -155q48 -54 88 -54q106 0 115 289z" />
    <glyph glyph-name="nbspace" unicode="&#xa0;" 
 />
    <glyph glyph-name="exclamdown" unicode="&#xa1;" 
d="M666 1110q0 -55 -40 -94t-96 -39q-57 0 -97 39t-40 94q0 57 40 97t97 40q56 0 96 -40t40 -97zM618 717v-1071h-178v1071h178z" />
    <glyph glyph-name="cent" unicode="&#xa2;" 
d="M829 287l144 -92q-121 -184 -299 -207v-199h-178v199q-322 76 -322 526v145q0 451 322 527v207h178v-207q178 -27 299 -209l-144 -90q-88 147 -231 147q-113 0 -180 -76q-66 -75 -66 -299v-145q0 -223 66 -301q68 -74 180 -74q142 0 231 148z" />
    <glyph glyph-name="sterling" unicode="&#xa3;" 
d="M979 158v-158h-899v158q220 9 199 374l-15 216h-184v157h174l-14 221q-15 238 92 357t266 119q228 0 367 -216l-134 -94q-77 144 -233 144q-84 0 -139 -64q-52 -64 -43 -237l14 -230h301v-157h-291l15 -203q18 -307 -138 -387h662z" />
    <glyph glyph-name="currency" unicode="&#xa4;" 
d="M166 698q0 104 51 187l-184 186l123 127l186 -188q83 51 186 51q106 0 189 -51l186 188l123 -127l-186 -186q53 -86 53 -187q0 -100 -53 -186l186 -188l-123 -125l-186 188q-83 -51 -189 -51q-101 0 -186 49l-186 -186l-123 125l184 188q-51 80 -51 186zM336 698
q0 -91 54.5 -146.5t137.5 -55.5q84 0 139.5 56t55.5 146q0 91 -56 147t-139 56t-137.5 -56t-54.5 -147z" />
    <glyph glyph-name="yen" unicode="&#xa5;" 
d="M618 281v-281h-176v281h-299v155h299v189h-299v155h240l-111 203q-163 298 -163 524v72h176v-72q0 -195 121 -440l124 -242l123 242q123 243 123 440v72h176v-72q0 -225 -164 -524l-112 -203h242v-155h-300v-189h300v-155h-300z" />
    <glyph glyph-name="brokenbar" unicode="&#xa6;" 
d="M612 1950v-930h-166v930h166zM612 555v-930h-166v930h166z" />
    <glyph glyph-name="section" unicode="&#xa7;" 
d="M133 -166l131 100q82 -149 246 -149q96 0 155.5 49t59.5 139q0 84 -88 166l-303 285q-141 132 -141 336q0 164 106 264q-61 104 -61 238q0 131 94 235q94 105 276 105q217 0 344 -195l-137 -92q-77 127 -207 127q-91 0 -142.5 -48t-51.5 -130q0 -120 94 -205l291 -266
q166 -156 166 -336q0 -165 -123 -285q61 -82 61 -199q0 -131 -102 -239q-103 -109 -291 -109q-251 0 -377 209zM463 555l268 -252q57 57 57 154q0 93 -116 200l-262 248q-41 -53 -41 -145q0 -120 94 -205z" />
    <glyph glyph-name="dieresis" unicode="&#xa8;" 
d="M838 1466q0 -47 -34 -81.5t-81 -34.5q-49 0 -82 34t-33 82q0 45 33.5 79t81.5 34q47 0 81 -34t34 -79zM451 1466q0 -48 -33 -82t-82 -34t-82 34t-33 82q0 45 33.5 79t81.5 34t81.5 -34t33.5 -79z" />
    <glyph glyph-name="copyright" unicode="&#xa9;" 
d="M674 926h-158q0 89 -37 131.5t-98 42.5q-137 0 -137 -189v-249q0 -189 137 -189q60 0 97.5 42t37.5 126h158q0 -140 -80.5 -221.5t-212.5 -81.5q-127 0 -211 88t-84 236v249q0 148 84 237t211 89q133 0 213 -82.5t80 -228.5zM86 104v166q152 -155 385 -155q173 0 277 108
t104 309v517q0 203 -104 311t-277 108q-231 0 -385 -157v166q146 125 387 125q231 0 383 -152t152 -401v-517q0 -251 -152 -403q-149 -149 -383 -149q-242 0 -387 124z" />
    <glyph glyph-name="ordfeminine" unicode="&#xaa;" 
d="M827 1292v-618h-165v80q-72 -97 -187 -97q-110 0 -177 77t-67 206q0 295 359 295h72v57q0 168 -134 168q-105 0 -157 -119l-131 89q105 172 288 172q141 0 220 -76.5t79 -233.5zM662 877v225h-72q-201 0 -201 -162q0 -139 119 -139q96 0 154 76zM244 266v152h590v-152
h-590z" />
    <glyph glyph-name="guillemotleft" unicode="&#xab;" 
d="M666 602l323 -477h-178l-334 477l334 477h178zM258 602l324 -477h-179l-331 477l331 477h179z" />
    <glyph glyph-name="logicalnot" unicode="&#xac;" 
d="M961 926v-557h-177v401h-725v156h902z" />
    <glyph glyph-name="softhyphen" unicode="&#xad;" 
d="M815 711v-176h-571v176h571z" />
    <glyph glyph-name="registered" unicode="&#xae;" 
d="M674 920q0 -167 -148 -244l140 -318h-170l-115 289h-137v-289h-158v856h256q332 0 332 -294zM516 920q0 159 -156 159h-116v-307h116q76 0 116 39.5t40 108.5zM86 104v166q152 -155 385 -155q173 0 277 108t104 309v517q0 203 -104 311t-277 108q-231 0 -385 -157v166
q146 125 387 125q231 0 383 -152t152 -401v-517q0 -251 -152 -403q-149 -149 -383 -149q-242 0 -387 124z" />
    <glyph glyph-name="macron" unicode="&#xaf;" 
d="M815 1579v-133h-571v133h571z" />
    <glyph glyph-name="degree" unicode="&#xb0;" 
d="M862 1270q0 -138 -98 -236q-96 -96 -236 -96q-134 0 -235 96q-96 101 -96 236q0 137 96 233q99 99 235 99q142 0 236 -99q98 -94 98 -233zM696 1270q0 68 -47.5 117t-120.5 49q-72 0 -119 -49t-47 -117t47 -117t119 -49q73 0 120.5 49t47.5 117z" />
    <glyph glyph-name="plusminus" unicode="&#xb1;" 
d="M999 1090v-160h-381v-332h-176v332h-383v160h383v329h176v-329h381zM999 399v-159h-940v159h940z" />
    <glyph glyph-name="twosuperior" unicode="&#xb2;" 
d="M795 803v-129h-514v51q0 159 157 336l144 160q63 69 63 149q0 45 -28.5 72.5t-81.5 27.5q-106 0 -146 -112l-123 74q95 170 269 170q117 0 188.5 -66t71.5 -170q0 -117 -99 -225l-143 -160q-106 -117 -115 -178h357z" />
    <glyph glyph-name="threesuperior" unicode="&#xb3;" 
d="M815 940q0 -114 -80 -197q-78 -81 -198 -81q-182 0 -281 178l111 78q56 -127 168 -127q60 0 95.5 43t35.5 116q0 71 -38 107.5t-93 36.5h-72v131h72q110 0 110 125q0 56 -30 88t-80 32q-116 0 -162 -116l-113 76q105 172 277 172q110 0 184 -70t74 -178q0 -143 -119 -195
q139 -53 139 -219z" />
    <glyph glyph-name="acute" unicode="&#xb4;" 
d="M748 1579l-289 -592h-166l219 592h236z" />
    <glyph glyph-name="micro" unicode="&#xb5;" 
d="M915 1171v-1171h-176v131q-115 -151 -254 -151q-112 0 -163 75v-420h-177v1536h177v-823q0 -93 47.5 -152t130.5 -59q144 0 239 133v901h176z" />
    <glyph glyph-name="paragraph" unicode="&#xb6;" 
d="M901 1579v-1579h-123v1579h123zM645 1579v-1579h-123v727h-39q-157 0 -272 115q-113 113 -113 274v74q0 161 113 274q115 115 272 115h162z" />
    <glyph glyph-name="periodcentered" unicode="&#xb7;" 
d="M733 752q0 -83 -59 -143t-146 -60q-86 0 -143 60t-57 143q0 82 57 142t143 60q89 0 146 -63q59 -62 59 -139z" />
    <glyph glyph-name="cedilla" unicode="&#xb8;" 
d="M362 -375v121q175 -15 175 57q0 60 -101 54l47 94q213 -9 213 -146q0 -85 -67 -131q-67 -49 -267 -49z" />
    <glyph glyph-name="onesuperior" unicode="&#xb9;" 
d="M674 1579v-915h-150v739l-202 -164l-72 111l287 229h137z" />
    <glyph glyph-name="ordmasculine" unicode="&#xba;" 
d="M823 1276v-291q0 -151 -82 -239.5t-215 -88.5q-131 0 -214 88.5t-83 239.5v291q0 150 83 238t214 88q132 0 214.5 -88t82.5 -238zM668 965v331q0 77 -40 120.5t-102 43.5q-59 0 -100 -44.5t-41 -119.5v-331q0 -76 40.5 -120t100.5 -44q63 0 102.5 42.5t39.5 121.5z
M236 266v152h593v-152h-593z" />
    <glyph glyph-name="guillemotright" unicode="&#xbb;" 
d="M657 1079l332 -477l-332 -477h-180l324 477l-324 477h180zM250 1079l332 -477l-332 -477h-178l321 477l-321 477h178z" />
    <glyph glyph-name="onequarter" unicode="&#xbc;" 
d="M944 858v-129h-829v129h829zM799 23v-127h-99v-207h-149v207h-352v159l344 506h157v-538h99zM315 23h236v346zM639 1872v-873h-150v695l-182 -148l-71 113l266 213h137z" />
    <glyph glyph-name="onehalf" unicode="&#xbd;" 
d="M944 858v-129h-829v129h829zM639 1872v-873h-150v695l-182 -148l-71 113l266 213h137zM795 -170v-129h-514v51q0 159 157 316l144 143q63 60 63 139q0 46 -28.5 73.5t-81.5 27.5q-106 0 -146 -113l-123 74q95 170 269 170q117 0 188.5 -66t71.5 -170q0 -123 -99 -217
l-143 -141q-106 -106 -115 -158h357z" />
    <glyph glyph-name="threequarters" unicode="&#xbe;" 
d="M944 858v-129h-829v129h829zM799 23v-127h-99v-207h-149v207h-352v159l344 506h157v-538h99zM315 23h236v346zM795 1253q0 -105 -80 -188q-76 -82 -199 -82q-171 0 -270 178l110 78q56 -127 160 -127q59 0 94 39.5t35 112.5q0 60 -34.5 92.5t-94.5 32.5h-63v131h63
q49 0 80 30t31 84q0 49 -31.5 80t-79.5 31q-107 0 -154 -117l-110 76q101 174 264 174q109 0 183.5 -70.5t74.5 -169.5q0 -120 -119 -184q140 -65 140 -201z" />
    <glyph glyph-name="questiondown" unicode="&#xbf;" 
d="M657 1110q0 -56 -38.5 -94.5t-94.5 -38.5q-57 0 -97 39t-40 94q0 57 40 97t97 40q55 0 94 -40t39 -97zM786 -23l136 -92q-146 -260 -398 -260q-157 0 -272 115q-113 113 -113 274q0 113 66 217l217 316q31 48 31 112v58h178v-60q0 -111 -72 -221l-211 -309
q-33 -47 -33 -115q0 -95 61 -158t148 -63q168 0 262 186z" />
    <glyph glyph-name="Agrave" unicode="&#xc0;" 
d="M289 88v-88h-176v88q0 227 135 764l160 639h243l160 -639q135 -537 135 -764v-88h-176v88q0 94 -29 283h-424q-28 -182 -28 -283zM662 754l-132 546l-131 -546q-41 -172 -53 -234h367q-8 41 -26.5 124.5t-24.5 109.5zM424 1950l178 -244h-164l-235 244h221z" />
    <glyph glyph-name="Aacute" unicode="&#xc1;" 
d="M637 1950h219l-235 -244h-164zM289 88v-88h-176v88q0 227 135 764l160 639h243l160 -639q135 -537 135 -764v-88h-176v88q0 94 -29 283h-424q-28 -182 -28 -283zM662 754l-132 546l-131 -546q-41 -172 -53 -234h367q-8 41 -26.5 124.5t-24.5 109.5z" />
    <glyph glyph-name="Acircumflex" unicode="&#xc2;" 
d="M608 1950l213 -264h-153l-138 141l-139 -141h-153l213 264h157zM289 88v-88h-176v88q0 227 135 764l160 639h243l160 -639q135 -537 135 -764v-88h-176v88q0 94 -29 283h-424q-28 -182 -28 -283zM662 754l-132 546l-131 -546q-41 -172 -53 -234h367q-8 41 -26.5 124.5
t-24.5 109.5z" />
    <glyph glyph-name="Atilde" unicode="&#xc3;" 
d="M784 1942l103 -62q-80 -197 -238 -197q-71 0 -147 58q-77 59 -115 59q-63 0 -145 -110l-86 73q105 187 241 187q60 0 135 -60q77 -59 127 -59q63 0 125 111zM289 88v-88h-176v88q0 227 135 764l160 639h243l160 -639q135 -537 135 -764v-88h-176v88q0 94 -29 283h-424
q-28 -182 -28 -283zM662 754l-132 546l-131 -546q-41 -172 -53 -234h367q-8 41 -26.5 124.5t-24.5 109.5z" />
    <glyph glyph-name="Adieresis" unicode="&#xc4;" 
d="M838 1837q0 -47 -34 -82t-81 -35q-49 0 -82 34.5t-33 82.5q0 45 33.5 79t81.5 34q47 0 81 -34t34 -79zM451 1837q0 -48 -33 -82.5t-82 -34.5t-82 34.5t-33 82.5q0 45 33.5 79t81.5 34t81.5 -34t33.5 -79zM289 88v-88h-176v88q0 227 135 764l160 639h243l160 -639
q135 -537 135 -764v-88h-176v88q0 94 -29 283h-424q-28 -182 -28 -283zM662 754l-132 546l-131 -546q-41 -172 -53 -234h367q-8 41 -26.5 124.5t-24.5 109.5z" />
    <glyph glyph-name="Aring" unicode="&#xc5;" 
d="M752 1769q0 -79 -55.5 -129.5t-166.5 -50.5t-166 50.5t-55 129.5q0 80 55 130.5t166 50.5t166.5 -50.5t55.5 -130.5zM627 1769q0 68 -97 68q-98 0 -98 -68q0 -65 98 -65q97 0 97 65zM289 88v-88h-176v88q0 227 135 764l149 598h265l149 -598q135 -537 135 -764v-88h-176
v88q0 94 -29 283h-424q-28 -182 -28 -283zM662 754l-132 546l-131 -546q-41 -172 -53 -234h367q-8 41 -26.5 124.5t-24.5 109.5z" />
    <glyph glyph-name="AE" unicode="&#xc6;" 
d="M989 158v-158h-506v371h-237v-371h-176v332q0 317 133 698l194 549h592v-156h-330v-518h289v-157h-289v-590h330zM256 520h227v811l-127 -373q-86 -256 -100 -438z" />
    <glyph glyph-name="Ccedilla" unicode="&#xc7;" 
d="M782 332l146 -99q-146 -253 -402 -253q-170 0 -290 114q-119 116 -119 424v545q0 299 119 418q121 121 288 121q268 0 394 -256l-146 -86q-77 182 -248 182q-98 0 -164 -72q-65 -71 -65 -307v-545q0 -233 65 -307q66 -72 164 -72q170 0 258 193zM352 -375v121
q174 -15 174 57q0 60 -100 54l47 94q213 -9 213 -146q0 -84 -68 -131q-67 -49 -266 -49z" />
    <glyph glyph-name="Egrave" unicode="&#xc8;" 
d="M422 1950l178 -244h-164l-235 244h221zM924 150v-150h-727v1491h727v-152h-551v-471h407v-149h-407v-569h551z" />
    <glyph glyph-name="Eacute" unicode="&#xc9;" 
d="M641 1950h219l-235 -244h-164zM924 150v-150h-727v1491h727v-152h-551v-471h407v-149h-407v-569h551z" />
    <glyph glyph-name="Ecircumflex" unicode="&#xca;" 
d="M608 1950l213 -264h-153l-138 141l-139 -141h-153l213 264h157zM924 150v-150h-727v1491h727v-152h-551v-471h407v-149h-407v-569h551z" />
    <glyph glyph-name="Edieresis" unicode="&#xcb;" 
d="M838 1837q0 -47 -34 -82t-81 -35q-49 0 -82 34.5t-33 82.5q0 45 33.5 79t81.5 34q47 0 81 -34t34 -79zM451 1837q0 -48 -33 -82.5t-82 -34.5t-82 34.5t-33 82.5q0 45 33.5 79t81.5 34t81.5 -34t33.5 -79zM924 150v-150h-727v1491h727v-152h-551v-471h407v-149h-407v-569
h551z" />
    <glyph glyph-name="Igrave" unicode="&#xcc;" 
d="M395 1950l178 -244h-163l-236 244h221zM866 150v-150h-673v150h247v1189h-194v152h567v-152h-195v-1189h248z" />
    <glyph glyph-name="Iacute" unicode="&#xcd;" 
d="M657 1950h220l-236 -244h-164zM866 150v-150h-673v150h247v1189h-194v152h567v-152h-195v-1189h248z" />
    <glyph glyph-name="Icircumflex" unicode="&#xce;" 
d="M608 1950l213 -264h-153l-138 141l-139 -141h-153l213 264h157zM866 150v-150h-673v150h247v1189h-194v152h567v-152h-195v-1189h248z" />
    <glyph glyph-name="Idieresis" unicode="&#xcf;" 
d="M838 1837q0 -47 -34 -82t-81 -35q-49 0 -82 34.5t-33 82.5q0 45 33.5 79t81.5 34q47 0 81 -34t34 -79zM451 1837q0 -48 -33 -82.5t-82 -34.5t-82 34.5t-33 82.5q0 45 33.5 79t81.5 34t81.5 -34t33.5 -79zM866 150v-150h-673v150h247v1189h-194v152h567v-152h-195v-1189
h248z" />
    <glyph glyph-name="Eth" unicode="&#xd0;" 
d="M938 952v-305q0 -305 -141 -476t-385 -171h-232v770h-112v135h112v674h232q246 0 386 -161.5t140 -465.5zM545 905v-135h-189v-612h58q162 0 253 124t91 365v305q0 240 -90 355.5t-254 115.5h-58v-518h189z" />
    <glyph glyph-name="Ntilde" unicode="&#xd1;" 
d="M793 1942l102 -62q-80 -197 -238 -197q-71 0 -147 58q-77 59 -115 59q-63 0 -145 -110l-86 73q105 187 242 187q60 0 135 -60q77 -59 127 -59q64 0 125 111zM909 1491v-1491h-161l-15 387l-446 856l39 -807v-436h-176v1491h176l448 -856l-41 807v49h176z" />
    <glyph glyph-name="Ograve" unicode="&#xd2;" 
d="M416 1950l178 -244h-164l-235 244h221zM141 479v533q0 249 105 373t284 124t283.5 -124t104.5 -373v-533q0 -250 -104.5 -374.5t-283.5 -124.5q-180 2 -284.5 125.5t-104.5 373.5zM319 1012v-533q0 -186 52.5 -263t156.5 -77q106 0 159.5 77t53.5 263v533q0 184 -54 261
t-159 77q-69 0 -113 -29.5t-70 -105.5t-26 -203z" />
    <glyph glyph-name="Oacute" unicode="&#xd3;" 
d="M657 1950h220l-236 -244h-164zM141 479v533q0 249 105 373t284 124t283.5 -124t104.5 -373v-533q0 -250 -104.5 -374.5t-283.5 -124.5q-180 2 -284.5 125.5t-104.5 373.5zM319 1012v-533q0 -186 52.5 -263t156.5 -77q106 0 159.5 77t53.5 263v533q0 184 -54 261t-159 77
q-69 0 -113 -29.5t-70 -105.5t-26 -203z" />
    <glyph glyph-name="Ocircumflex" unicode="&#xd4;" 
d="M608 1950l213 -264h-153l-138 141l-139 -141h-153l213 264h157zM141 479v533q0 249 105 373t284 124t283.5 -124t104.5 -373v-533q0 -250 -104.5 -374.5t-283.5 -124.5q-180 2 -284.5 125.5t-104.5 373.5zM319 1012v-533q0 -186 52.5 -263t156.5 -77q106 0 159.5 77
t53.5 263v533q0 184 -54 261t-159 77q-69 0 -113 -29.5t-70 -105.5t-26 -203z" />
    <glyph glyph-name="Otilde" unicode="&#xd5;" 
d="M793 1942l102 -62q-80 -197 -238 -197q-71 0 -147 58q-77 59 -115 59q-63 0 -145 -110l-86 73q105 187 242 187q60 0 135 -60q77 -59 127 -59q64 0 125 111zM141 479v533q0 249 105 373t284 124t283.5 -124t104.5 -373v-533q0 -250 -104.5 -374.5t-283.5 -124.5
q-180 2 -284.5 125.5t-104.5 373.5zM319 1012v-533q0 -186 52.5 -263t156.5 -77q106 0 159.5 77t53.5 263v533q0 184 -54 261t-159 77q-69 0 -113 -29.5t-70 -105.5t-26 -203z" />
    <glyph glyph-name="Odieresis" unicode="&#xd6;" 
d="M838 1837q0 -47 -34 -82t-81 -35q-49 0 -82 34.5t-33 82.5q0 45 33.5 79t81.5 34q47 0 81 -34t34 -79zM451 1837q0 -48 -33 -82.5t-82 -34.5t-82 34.5t-33 82.5q0 45 33.5 79t81.5 34t81.5 -34t33.5 -79zM141 479v533q0 249 105 373t284 124t283.5 -124t104.5 -373v-533
q0 -250 -104.5 -374.5t-283.5 -124.5q-180 2 -284.5 125.5t-104.5 373.5zM319 1012v-533q0 -186 52.5 -263t156.5 -77q106 0 159.5 77t53.5 263v533q0 184 -54 261t-159 77q-69 0 -113 -29.5t-70 -105.5t-26 -203z" />
    <glyph glyph-name="multiply" unicode="&#xd7;" 
d="M954 383l-123 -127l-301 301l-299 -301l-125 127l302 299l-302 299l125 127l299 -303l301 303l123 -127l-297 -299z" />
    <glyph glyph-name="Oslash" unicode="&#xd8;" 
d="M674 1755l108 -24l-41 -193q177 -112 177 -485v-504q0 -307 -109 -440q-108 -129 -279 -129q-58 0 -110 18l-37 -178l-109 24l43 207q-176 120 -176 498v504q0 297 109 424q107 125 280 125q56 0 109 -15zM741 549v504q0 206 -41 286l-247 -1185q39 -17 77 -17
q99 0 154 82q57 80 57 330zM528 1446q-96 0 -153 -78q-56 -77 -56 -315v-504q0 -219 39 -301l248 1184q-35 14 -78 14z" />
    <glyph glyph-name="Ugrave" unicode="&#xd9;" 
d="M408 1950l178 -244h-164l-236 244h222zM909 1491v-1018q0 -256 -110 -375q-109 -118 -269 -118q-161 0 -270 118q-110 119 -110 375v1018h176v-1018q0 -195 57 -264q58 -70 145 -70q88 0 146 70q59 71 59 264v1018h176z" />
    <glyph glyph-name="Uacute" unicode="&#xda;" 
d="M657 1950h220l-236 -244h-164zM909 1491v-1018q0 -256 -110 -375q-109 -118 -269 -118q-161 0 -270 118q-110 119 -110 375v1018h176v-1018q0 -195 57 -264q58 -70 145 -70q88 0 146 70q59 71 59 264v1018h176z" />
    <glyph glyph-name="Ucircumflex" unicode="&#xdb;" 
d="M608 1950l213 -264h-153l-138 141l-139 -141h-153l213 264h157zM909 1491v-1018q0 -256 -110 -375q-109 -118 -269 -118q-161 0 -270 118q-110 119 -110 375v1018h176v-1018q0 -195 57 -264q58 -70 145 -70q88 0 146 70q59 71 59 264v1018h176z" />
    <glyph glyph-name="Udieresis" unicode="&#xdc;" 
d="M838 1837q0 -47 -34 -82t-81 -35q-49 0 -82 34.5t-33 82.5q0 45 33.5 79t81.5 34q47 0 81 -34t34 -79zM451 1837q0 -48 -33 -82.5t-82 -34.5t-82 34.5t-33 82.5q0 45 33.5 79t81.5 34t81.5 -34t33.5 -79zM909 1491v-1018q0 -256 -110 -375q-109 -118 -269 -118
q-161 0 -270 118q-110 119 -110 375v1018h176v-1018q0 -195 57 -264q58 -70 145 -70q88 0 146 70q59 71 59 264v1018h176z" />
    <glyph glyph-name="Yacute" unicode="&#xdd;" 
d="M618 674v-674h-176v674l-170 309q-163 298 -163 524v72h176v-72q0 -195 121 -440l124 -242l123 242q123 243 123 440v72h176v-72q0 -225 -164 -524zM627 1950h219l-236 -244h-164z" />
    <glyph glyph-name="Thorn" unicode="&#xde;" 
d="M915 805v-33q0 -183 -114 -297q-115 -115 -301 -115h-178v-360h-177v1579h177v-365h178q187 0 301 -114t114 -295zM737 750v77q0 108 -61.5 170t-175.5 62h-178v-541h178q114 0 175.5 61t61.5 171z" />
    <glyph glyph-name="germandbls" unicode="&#xdf;" 
d="M541 -4h-80v156h78q239 0 239 186q0 107 -157 252q-156 144 -156 266q0 106 110 207q113 104 113 190q0 75 -51.5 128t-126.5 53q-188 0 -188 -240v-1194h-177v1190q0 180 103 295q102 114 262 114q162 0 256 -104q98 -104 98 -242q0 -135 -102 -229q-100 -93 -100 -168
q0 -76 145 -215q147 -135 147 -303q0 -155 -105.5 -248.5t-307.5 -93.5z" />
    <glyph glyph-name="agrave" unicode="&#xe0;" 
d="M903 813v-813h-176v131q-115 -151 -283 -151q-145 0 -233 98t-88 248q0 160 114 260t322 100h168v127q0 221 -211 221q-155 0 -231 -137l-133 100q138 197 366 197q173 0 279 -99t106 -282zM727 274v271h-168q-125 0 -189.5 -58.5t-64.5 -160.5q0 -187 182 -187
q145 0 240 135zM412 1579l178 -244h-164l-236 244h222z" />
    <glyph glyph-name="aacute" unicode="&#xe1;" 
d="M903 813v-813h-176v131q-115 -151 -283 -151q-145 0 -233 98t-88 248q0 160 114 260t322 100h168v127q0 221 -211 221q-155 0 -231 -137l-133 100q138 197 366 197q173 0 279 -99t106 -282zM727 274v271h-168q-125 0 -189.5 -58.5t-64.5 -160.5q0 -187 182 -187
q145 0 240 135zM641 1579h219l-235 -244h-164z" />
    <glyph glyph-name="acircumflex" unicode="&#xe2;" 
d="M901 813v-813h-176v131q-115 -151 -283 -151q-145 0 -233 98t-88 248q0 160 114 260t322 100h168v127q0 221 -211 221q-155 0 -231 -137l-133 100q138 197 366 197q173 0 279 -99t106 -282zM725 274v271h-168q-125 0 -189.5 -58.5t-64.5 -160.5q0 -187 182 -187
q145 0 240 135zM604 1579l213 -264h-153l-138 141l-139 -141h-154l213 264h158z" />
    <glyph glyph-name="atilde" unicode="&#xe3;" 
d="M903 813v-813h-176v131q-115 -151 -283 -151q-145 0 -233 98t-88 248q0 160 114 260t322 100h168v127q0 221 -211 221q-155 0 -231 -137l-133 100q138 197 366 197q173 0 279 -99t106 -282zM727 274v271h-168q-125 0 -189.5 -58.5t-64.5 -160.5q0 -187 182 -187
q145 0 240 135zM793 1591l102 -61q-80 -197 -238 -197q-71 0 -147 58q-77 59 -115 59q-63 0 -145 -111l-86 74q104 186 242 186q61 0 135 -59q77 -59 127 -59q64 0 125 110z" />
    <glyph glyph-name="adieresis" unicode="&#xe4;" 
d="M903 813v-813h-176v131q-115 -151 -283 -151q-145 0 -233 98t-88 248q0 160 114 260t322 100h168v127q0 221 -211 221q-155 0 -231 -137l-133 100q138 197 366 197q173 0 279 -99t106 -282zM727 274v271h-168q-125 0 -189.5 -58.5t-64.5 -160.5q0 -187 182 -187
q145 0 240 135zM838 1466q0 -47 -34 -81.5t-81 -34.5q-49 0 -82 34t-33 82q0 45 33.5 79t81.5 34q47 0 81 -34t34 -79zM451 1466q0 -48 -33 -82t-82 -34t-82 34t-33 82q0 45 33.5 79t81.5 34t81.5 -34t33.5 -79z" />
    <glyph glyph-name="aring" unicode="&#xe5;" 
d="M903 813v-813h-176v131q-115 -151 -283 -151q-145 0 -233 98t-88 248q0 160 114 260t322 100h168v127q0 221 -211 221q-155 0 -231 -137l-133 100q138 197 366 197q173 0 279 -99t106 -282zM727 274v271h-168q-125 0 -189.5 -58.5t-64.5 -160.5q0 -187 182 -187
q145 0 240 135zM752 1419q0 -79 -55.5 -129.5t-166.5 -50.5t-166 50.5t-55 129.5q0 80 55 130t166 50t166.5 -50t55.5 -130zM627 1419q0 68 -97 68q-98 0 -98 -68q0 -65 98 -65q97 0 97 65z" />
    <glyph glyph-name="ae" unicode="&#xe6;" 
d="M1020 768v-201h-406v-192q0 -264 136 -264q84 0 139 131l119 -68q-83 -194 -258 -194q-145 0 -215 137q-70 -137 -234 -137q-120 0 -191 96t-71 266q0 172 87 259t257 87h63v191q0 184 -124 184q-93 0 -140 -121l-131 57q83 195 271 195q149 0 213 -131q70 131 215 131
q126 0 198 -102t72 -324zM612 688h242v109q0 266 -121 266t-121 -266v-109zM446 369v198h-63q-176 0 -176 -221q0 -235 119 -235q120 0 120 258z" />
    <glyph glyph-name="ccedilla" unicode="&#xe7;" 
d="M780 287l144 -92q-135 -215 -385 -215q-180 0 -297 129t-117 405v145q0 277 117 406t297 129q250 0 385 -217l-144 -90q-88 147 -231 147q-113 0 -180 -76q-66 -75 -66 -299v-145q0 -223 66 -301q68 -74 180 -74q142 0 231 148zM350 -375v121q174 -15 174 57
q0 60 -100 54l47 94q213 -9 213 -146q0 -84 -68 -131q-67 -49 -266 -49z" />
    <glyph glyph-name="egrave" unicode="&#xe8;" 
d="M924 686v-135h-613v-35q0 -225 66 -303q68 -74 180 -74q145 0 231 148l144 -92q-135 -215 -385 -215q-180 0 -297 129q-115 130 -115 407v141q0 278 115 408q117 129 280 129q176 0 283 -119q111 -120 111 -389zM311 707h437q0 170 -59 248.5t-159 78.5q-99 0 -159 -79
t-60 -248zM395 1579l178 -244h-163l-236 244h221z" />
    <glyph glyph-name="eacute" unicode="&#xe9;" 
d="M924 686v-135h-613v-35q0 -225 66 -303q68 -74 180 -74q145 0 231 148l144 -92q-135 -215 -385 -215q-180 0 -297 129q-115 130 -115 407v141q0 278 115 408q117 129 280 129q176 0 283 -119q111 -120 111 -389zM311 707h437q0 170 -59 248.5t-159 78.5q-99 0 -159 -79
t-60 -248zM645 1579h219l-235 -244h-164z" />
    <glyph glyph-name="ecircumflex" unicode="&#xea;" 
d="M924 686v-135h-613v-35q0 -225 66 -303q68 -74 180 -74q145 0 231 148l144 -92q-135 -215 -385 -215q-180 0 -297 129q-115 130 -115 407v141q0 278 115 408q117 129 280 129q176 0 283 -119q111 -120 111 -389zM311 707h437q0 170 -59 248.5t-159 78.5q-99 0 -159 -79
t-60 -248zM608 1579l213 -264h-153l-138 141l-139 -141h-153l213 264h157z" />
    <glyph glyph-name="edieresis" unicode="&#xeb;" 
d="M924 686v-135h-613v-35q0 -225 66 -303q68 -74 180 -74q145 0 231 148l144 -92q-135 -215 -385 -215q-180 0 -297 129q-115 130 -115 407v141q0 278 115 408q117 129 280 129q176 0 283 -119q111 -120 111 -389zM311 707h437q0 170 -59 248.5t-159 78.5q-99 0 -159 -79
t-60 -248zM838 1466q0 -47 -34 -81.5t-81 -34.5q-49 0 -82 34t-33 82q0 45 33.5 79t81.5 34q47 0 81 -34t34 -79zM451 1466q0 -48 -33 -82t-82 -34t-82 34t-33 82q0 45 33.5 79t81.5 34t81.5 -34t33.5 -79z" />
    <glyph glyph-name="igrave" unicode="&#xec;" 
d="M879 158v-158h-678v158h250v858h-201v155h379v-1013h250zM403 1579l179 -244h-164l-236 244h221z" />
    <glyph glyph-name="iacute" unicode="&#xed;" 
d="M874 158v-158h-677v158h249v858h-200v155h379v-1013h249zM637 1579h219l-235 -244h-164z" />
    <glyph glyph-name="icircumflex" unicode="&#xee;" 
d="M891 158v-158h-678v158h250v858h-201v155h379v-1013h250zM590 1579l213 -264h-154l-137 141l-139 -141h-154l213 264h158z" />
    <glyph glyph-name="idieresis" unicode="&#xef;" 
d="M883 158v-158h-678v158h250v858h-201v155h379v-1013h250zM799 1466q0 -47 -34 -81.5t-81 -34.5q-49 0 -82 34t-33 82q0 45 33.5 79t81.5 34q47 0 81 -34t34 -79zM412 1466q0 -48 -33 -82t-82 -34t-82 34t-33 82q0 45 33.5 79t81.5 34t81.5 -34t33.5 -79z" />
    <glyph glyph-name="eth" unicode="&#xf0;" 
d="M911 1565l43 -133l-139 -50q59 -127 59 -321v-555q0 -283 -112 -404q-113 -122 -270 -122q-195 0 -293.5 125.5t-98.5 400.5v76q0 277 101 399q101 125 239 125q178 0 258 -154v109q0 164 -47 264l-256 -88l-43 133l217 76q-63 72 -151 123l94 141q138 -79 229 -205z
M698 506v207q-40 233 -215 233q-99 0 -151 -76q-51 -74 -51 -288v-76q0 -221 51 -295q53 -74 160 -74q86 0 145 74q61 76 61 295z" />
    <glyph glyph-name="ntilde" unicode="&#xf1;" 
d="M913 770v-770h-176v760q0 146 -44.5 208t-133.5 62q-171 0 -229 -237v-793h-176v1171h176v-149q114 172 272 172q133 0 221 -98q90 -96 90 -326zM784 1591l103 -61q-80 -197 -238 -197q-71 0 -147 58q-77 59 -115 59q-63 0 -145 -111l-86 74q104 186 241 186
q61 0 135 -59q77 -59 127 -59q64 0 125 110z" />
    <glyph glyph-name="ograve" unicode="&#xf2;" 
d="M926 668v-160q0 -261 -107.5 -394.5t-288.5 -133.5t-288 133.5t-107 394.5v160q0 260 107.5 393t287.5 133q181 0 288.5 -133.5t107.5 -392.5zM750 508v160q0 206 -62 286t-158 80q-95 0 -157 -80t-62 -286v-160q0 -209 62 -289t157 -80q96 0 158 80t62 289zM406 1579
l178 -244h-164l-236 244h222z" />
    <glyph glyph-name="oacute" unicode="&#xf3;" 
d="M926 668v-160q0 -261 -107.5 -394.5t-288.5 -133.5t-288 133.5t-107 394.5v160q0 260 107.5 393t287.5 133q181 0 288.5 -133.5t107.5 -392.5zM750 508v160q0 206 -62 286t-158 80q-95 0 -157 -80t-62 -286v-160q0 -209 62 -289t157 -80q96 0 158 80t62 289zM655 1579
h219l-235 -244h-164z" />
    <glyph glyph-name="ocircumflex" unicode="&#xf4;" 
d="M926 668v-160q0 -261 -107.5 -394.5t-288.5 -133.5t-288 133.5t-107 394.5v160q0 260 107.5 393t287.5 133q181 0 288.5 -133.5t107.5 -392.5zM750 508v160q0 206 -62 286t-158 80q-95 0 -157 -80t-62 -286v-160q0 -209 62 -289t157 -80q96 0 158 80t62 289zM608 1579
l213 -264h-153l-138 141l-139 -141h-153l213 264h157z" />
    <glyph glyph-name="otilde" unicode="&#xf5;" 
d="M926 668v-160q0 -261 -107.5 -394.5t-288.5 -133.5t-288 133.5t-107 394.5v160q0 260 107.5 393t287.5 133q181 0 288.5 -133.5t107.5 -392.5zM750 508v160q0 206 -62 286t-158 80q-95 0 -157 -80t-62 -286v-160q0 -209 62 -289t157 -80q96 0 158 80t62 289zM793 1591
l102 -61q-80 -197 -238 -197q-71 0 -147 58q-77 59 -115 59q-63 0 -145 -111l-86 74q104 186 242 186q61 0 135 -59q77 -59 127 -59q64 0 125 110z" />
    <glyph glyph-name="odieresis" unicode="&#xf6;" 
d="M926 668v-160q0 -261 -107.5 -394.5t-288.5 -133.5t-288 133.5t-107 394.5v160q0 260 107.5 393t287.5 133q181 0 288.5 -133.5t107.5 -392.5zM750 508v160q0 206 -62 286t-158 80q-95 0 -157 -80t-62 -286v-160q0 -209 62 -289t157 -80q96 0 158 80t62 289zM838 1466
q0 -47 -34 -81.5t-81 -34.5q-49 0 -82 34t-33 82q0 45 33.5 79t81.5 34q47 0 81 -34t34 -79zM451 1466q0 -48 -33 -82t-82 -34t-82 34t-33 82q0 45 33.5 79t81.5 34t81.5 -34t33.5 -79z" />
    <glyph glyph-name="divide" unicode="&#xf7;" 
d="M999 778v-176h-940v176h940zM705 1122q0 -72 -51 -123t-124 -51q-74 0 -124 50.5t-50 123.5q0 70 50 121t124 51q73 0 124 -51t51 -121zM702 256q0 -70 -50 -121t-124 -51t-123 51t-49 121q0 73 49 123.5t123 50.5t124 -52t50 -122z" />
    <glyph glyph-name="oslash" unicode="&#xf8;" 
d="M702 1341l105 -32l-57 -185q174 -122 174 -446v-172q0 -252 -108 -389t-286 -137q-68 0 -124 20l-52 -168l-104 35l57 188q-172 138 -172 459v143q0 253 109 395t286 142q62 0 121 -18zM748 506v172q0 203 -52 270l-243 -796q35 -15 77 -15q98 0 156 76q62 77 62 293z
M530 1036q-96 0 -157 -82q-62 -83 -62 -297v-143q0 -201 51 -281l242 791q-35 12 -74 12z" />
    <glyph glyph-name="ugrave" unicode="&#xf9;" 
d="M909 1171v-1171h-176v152q-114 -172 -272 -172q-133 0 -221 98q-90 101 -90 354v739h176v-739q0 -163 45 -228t133 -65q174 0 229 230v802h176zM416 1579l178 -244h-164l-235 244h221z" />
    <glyph glyph-name="uacute" unicode="&#xfa;" 
d="M909 1171v-1171h-176v152q-114 -172 -272 -172q-133 0 -221 98q-90 101 -90 354v739h176v-739q0 -163 45 -228t133 -65q174 0 229 230v802h176zM655 1579h219l-235 -244h-164z" />
    <glyph glyph-name="ucircumflex" unicode="&#xfb;" 
d="M909 1171v-1171h-176v152q-114 -172 -272 -172q-133 0 -221 98q-90 101 -90 354v739h176v-739q0 -163 45 -228t133 -65q174 0 229 230v802h176zM608 1579l213 -264h-153l-138 141l-139 -141h-153l213 264h157z" />
    <glyph glyph-name="udieresis" unicode="&#xfc;" 
d="M909 1171v-1171h-176v152q-114 -172 -272 -172q-133 0 -221 98q-90 101 -90 354v739h176v-739q0 -163 45 -228t133 -65q174 0 229 230v802h176zM838 1466q0 -47 -34 -81.5t-81 -34.5q-49 0 -82 34t-33 82q0 45 33.5 79t81.5 34q47 0 81 -34t34 -79zM451 1466
q0 -48 -33 -82t-82 -34t-82 34t-33 82q0 45 33.5 79t81.5 34t81.5 -34t33.5 -79z" />
    <glyph glyph-name="yacute" unicode="&#xfd;" 
d="M668 1579h219l-236 -244h-164zM313 -188l136 348l-244 598q-85 213 -94 323l-5 90h177l4 -84q3 -62 82 -278l161 -444l162 438q77 213 80 284l6 84h176l-6 -90q-6 -97 -94 -323l-373 -971q-19 -49 -22 -115l-2 -37h-176l2 37q3 70 30 140z" />
    <glyph glyph-name="thorn" unicode="&#xfe;" 
d="M940 670v-166q0 -278 -106 -402q-104 -122 -236 -122q-179 0 -270 174v-519h-176v1944h176v-555q92 170 270 170q131 0 236 -123q106 -121 106 -401zM760 504v166q0 207 -58 286q-59 80 -147 80q-171 0 -227 -231v-432q52 -236 227 -236q205 0 205 367z" />
    <glyph glyph-name="ydieresis" unicode="&#xff;" 
d="M838 1466q0 -47 -34 -81.5t-81 -34.5q-49 0 -82 34t-33 82q0 45 33.5 79t81.5 34q47 0 81 -34t34 -79zM451 1466q0 -48 -33 -82t-82 -34t-82 34t-33 82q0 45 33.5 79t81.5 34t81.5 -34t33.5 -79zM299 -188l136 348l-244 598q-85 213 -94 323l-5 90h177l4 -84
q3 -62 82 -278l161 -444l162 438q77 213 80 284l6 84h176l-6 -90q-6 -97 -94 -323l-373 -971q-19 -49 -22 -115l-2 -37h-176l2 37q3 70 30 140z" />
    <glyph glyph-name="Amacron" unicode="&#x100;" 
d="M815 1870v-133h-571v133h571zM289 88v-88h-176v88q0 227 135 764l160 639h243l160 -639q135 -537 135 -764v-88h-176v88q0 94 -29 283h-424q-28 -182 -28 -283zM662 754l-132 546l-131 -546q-41 -172 -53 -234h367q-8 41 -26.5 124.5t-24.5 109.5z" />
    <glyph glyph-name="amacron" unicode="&#x101;" 
d="M915 813v-813h-176v131q-115 -151 -282 -151q-146 0 -234 98t-88 248q0 160 114 260t322 100h168v127q0 221 -211 221q-155 0 -231 -137l-133 100q138 197 366 197q173 0 279 -99t106 -282zM739 274v271h-168q-125 0 -189.5 -58.5t-64.5 -160.5q0 -187 183 -187
q144 0 239 135zM815 1489v-133h-571v133h571z" />
    <glyph glyph-name="Abreve" unicode="&#x102;" 
d="M809 1942v-175q-102 -147 -279 -147q-176 0 -278 147v175h31q100 -177 247 -177q145 0 248 177h31zM289 88v-88h-176v88q0 227 135 764l160 639h243l160 -639q135 -537 135 -764v-88h-176v88q0 94 -29 283h-424q-28 -182 -28 -283zM662 754l-132 546l-131 -546
q-41 -172 -53 -234h367q-8 41 -26.5 124.5t-24.5 109.5z" />
    <glyph glyph-name="abreve" unicode="&#x103;" 
d="M915 813v-813h-176v131q-115 -151 -282 -151q-146 0 -234 98t-88 248q0 160 114 260t322 100h168v127q0 221 -211 221q-155 0 -231 -137l-133 100q138 197 366 197q173 0 279 -99t106 -282zM739 274v271h-168q-125 0 -189.5 -58.5t-64.5 -160.5q0 -187 183 -187
q144 0 239 135zM809 1651v-174q-103 -148 -279 -148q-175 0 -278 148v174h31q99 -176 247 -176q146 0 248 176h31z" />
    <glyph glyph-name="Aogonek" unicode="&#x104;" 
d="M289 88v-88h-176v88q0 227 135 764l182 727h199l182 -727q135 -537 135 -764v-88h-176v88q0 94 -29 283h-424q-28 -182 -28 -283zM662 754l-132 546l-131 -546q-41 -172 -53 -234h367q-8 41 -26.5 124.5t-24.5 109.5zM977 -240v-129q-150 -6 -236.5 52.5t-86.5 154.5
q0 100 117 162h176q-131 -55 -131 -143q0 -49 46.5 -76t114.5 -21z" />
    <glyph glyph-name="aogonek" unicode="&#x105;" 
d="M915 813v-813h-176v131q-115 -151 -282 -151q-146 0 -234 98t-88 248q0 160 114 260t322 100h168v127q0 221 -211 221q-155 0 -231 -137l-133 100q138 197 366 197q173 0 279 -99t106 -282zM739 274v271h-168q-125 0 -189.5 -58.5t-64.5 -160.5q0 -187 183 -187
q144 0 239 135zM942 -240v-129q-150 -6 -237 52.5t-87 154.5q0 100 117 162h176q-131 -55 -131 -143q0 -49 46.5 -76t115.5 -21z" />
    <glyph glyph-name="Cacute" unicode="&#x106;" 
d="M729 1950h219l-235 -244h-164zM836 332l145 -99q-146 -253 -401 -253q-171 0 -291 114q-119 116 -119 424v453q0 299 119 418q120 120 289 120q267 0 393 -256l-146 -86q-77 183 -247 183q-98 0 -164 -72t-66 -307v-453q0 -232 66 -307q66 -72 164 -72q170 0 258 193z
" />
    <glyph glyph-name="cacute" unicode="&#x107;" 
d="M799 287l143 -92q-135 -215 -385 -215q-180 0 -297 129t-117 405v145q0 277 117 406t297 129q250 0 385 -217l-143 -90q-89 147 -232 147q-113 0 -180 -76q-65 -74 -65 -299v-145q0 -224 65 -301q68 -74 180 -74q143 0 232 148zM676 1579h219l-236 -244h-163z" />
    <glyph glyph-name="Ccircumflex" unicode="&#x108;" 
d="M664 1950l213 -264h-154l-137 141l-140 -141h-153l213 264h158zM836 332l145 -99q-146 -253 -401 -253q-171 0 -291 114q-119 116 -119 424v453q0 299 119 418q120 120 289 120q267 0 393 -256l-146 -86q-77 183 -247 183q-98 0 -164 -72t-66 -307v-453q0 -232 66 -307
q66 -72 164 -72q170 0 258 193z" />
    <glyph glyph-name="ccircumflex" unicode="&#x109;" 
d="M799 287l143 -92q-135 -215 -385 -215q-180 0 -297 129t-117 405v145q0 277 117 406t297 129q250 0 385 -217l-143 -90q-89 147 -232 147q-113 0 -180 -76q-65 -74 -65 -299v-145q0 -224 65 -301q68 -74 180 -74q143 0 232 148zM633 1579l213 -264h-154l-137 141
l-139 -141h-154l213 264h158z" />
    <glyph glyph-name="Cdotaccent" unicode="&#x10a;" 
d="M735 1817q0 -57 -40 -96.5t-97 -39.5q-56 0 -95.5 39.5t-39.5 96.5q0 55 39.5 94t95.5 39q57 0 97 -39t40 -94zM836 332l145 -99q-146 -253 -401 -253q-171 0 -291 114q-119 116 -119 424v453q0 299 119 418q120 120 289 120q267 0 393 -256l-146 -86q-77 183 -247 183
q-98 0 -164 -72t-66 -307v-453q0 -232 66 -307q66 -72 164 -72q170 0 258 193z" />
    <glyph glyph-name="cdotaccent" unicode="&#x10b;" 
d="M799 287l143 -92q-135 -215 -385 -215q-180 0 -297 129t-117 405v145q0 277 117 406t297 129q250 0 385 -217l-143 -90q-89 147 -232 147q-113 0 -180 -76q-65 -74 -65 -299v-145q0 -224 65 -301q68 -74 180 -74q143 0 232 148zM707 1446q0 -57 -40.5 -96t-97.5 -39
q-56 0 -95.5 39t-39.5 96q0 55 39.5 94t95.5 39q57 0 97.5 -39t40.5 -94z" />
    <glyph glyph-name="Ccaron" unicode="&#x10c;" 
d="M899 1950l-213 -264h-158l-213 264h154l139 -142l137 142h154zM836 332l145 -99q-146 -253 -401 -253q-171 0 -291 114q-119 116 -119 424v453q0 299 119 418q120 120 289 120q267 0 393 -256l-146 -86q-77 183 -247 183q-98 0 -164 -72t-66 -307v-453q0 -232 66 -307
q66 -72 164 -72q170 0 258 193z" />
    <glyph glyph-name="ccaron" unicode="&#x10d;" 
d="M799 287l143 -92q-135 -215 -385 -215q-180 0 -297 129t-117 405v145q0 277 117 406t297 129q250 0 385 -217l-143 -90q-89 147 -232 147q-113 0 -180 -76q-65 -74 -65 -299v-145q0 -224 65 -301q68 -74 180 -74q143 0 232 148zM870 1579l-213 -264h-157l-213 264h153
l140 -141l137 141h153z" />
    <glyph glyph-name="Dcaron" unicode="&#x10e;" 
d="M776 1950l-213 -264h-157l-213 264h153l139 -142l138 142h153zM961 862v-215q0 -306 -140.5 -476.5t-386.5 -170.5h-260v1491h260q248 0 387.5 -162t139.5 -467zM778 647v215q0 239 -90 358t-254 119h-86v-1189h86q162 0 253 127.5t91 369.5z" />
    <glyph glyph-name="dcaron" unicode="&#x10f;" 
d="M745 1579v-1579h-176v131q-103 -151 -223 -151q-137 0 -214 118t-77 375v221q0 258 77 377t214 119q120 0 223 -154v543h176zM569 268v631q-85 131 -170 131q-93 0 -131 -65q-37 -64 -37 -260v-242q0 -198 37 -262q38 -66 131 -66q84 0 170 133zM874 1579h170l-67 -365
h-146z" />
    <glyph glyph-name="Dcroat" unicode="&#x110;" 
d="M938 952v-305q0 -305 -141 -476t-385 -171h-232v770h-112v135h112v674h232q246 0 386 -161.5t140 -465.5zM545 905v-135h-189v-612h58q162 0 253 124t91 365v305q0 240 -90 355.5t-254 115.5h-58v-518h189z" />
    <glyph glyph-name="dcroat" unicode="&#x111;" 
d="M1012 1413v-129h-127v-1284h-176v131q-115 -151 -252 -151q-136 0 -236 112t-100 381v131q0 271 100 383q101 113 236 113q137 0 252 -154v338h-252v129h252v166h176v-166h127zM709 299v489q-78 152 -209 152q-107 0 -153 -72t-46 -254v-151q0 -182 46 -255t153 -73
q132 0 209 164z" />
    <glyph glyph-name="Emacron" unicode="&#x112;" 
d="M834 1870v-133h-572v133h572zM924 150v-150h-727v1491h727v-152h-551v-471h407v-149h-407v-569h551z" />
    <glyph glyph-name="emacron" unicode="&#x113;" 
d="M924 686v-135h-613v-35q0 -225 66 -303q68 -74 180 -74q145 0 231 148l144 -92q-135 -215 -385 -215q-180 0 -297 129q-115 130 -115 407v141q0 278 115 408q117 129 280 129q176 0 283 -119q111 -120 111 -389zM311 707h437q0 170 -59 248.5t-159 78.5q-99 0 -159 -79
t-60 -248zM815 1579v-133h-571v133h571z" />
    <glyph glyph-name="Ebreve" unicode="&#x114;" 
d="M809 1942v-175q-102 -147 -279 -147q-176 0 -278 147v175h31q100 -177 247 -177q145 0 248 177h31zM924 150v-150h-727v1491h727v-152h-551v-471h407v-149h-407v-569h551z" />
    <glyph glyph-name="ebreve" unicode="&#x115;" 
d="M924 686v-135h-613v-35q0 -225 66 -303q68 -74 180 -74q145 0 231 148l144 -92q-135 -215 -385 -215q-180 0 -297 129q-115 130 -115 407v141q0 278 115 408q117 129 280 129q176 0 283 -119q111 -120 111 -389zM311 707h437q0 170 -59 248.5t-159 78.5q-99 0 -159 -79
t-60 -248zM809 1651v-174q-103 -148 -279 -148q-175 0 -278 148v174h31q99 -176 247 -176q146 0 248 176h31z" />
    <glyph glyph-name="Edotaccent" unicode="&#x116;" 
d="M666 1817q0 -57 -40.5 -96.5t-97.5 -39.5q-56 0 -95.5 39.5t-39.5 96.5q0 55 39.5 94t95.5 39q57 0 97.5 -39t40.5 -94zM924 150v-150h-727v1491h727v-152h-551v-471h407v-149h-407v-569h551z" />
    <glyph glyph-name="edotaccent" unicode="&#x117;" 
d="M924 686v-135h-613v-35q0 -225 66 -303q68 -74 180 -74q145 0 231 148l144 -92q-135 -215 -385 -215q-180 0 -297 129q-115 130 -115 407v141q0 278 115 408q117 129 280 129q176 0 283 -119q111 -120 111 -389zM311 707h437q0 170 -59 248.5t-159 78.5q-99 0 -159 -79
t-60 -248zM656 1446q0 -57 -40.5 -96t-97.5 -39q-56 0 -95.5 39t-39.5 96q0 55 39.5 94t95.5 39q57 0 97.5 -39t40.5 -94z" />
    <glyph glyph-name="Eogonek" unicode="&#x118;" 
d="M913 150v-150h-727v1579h727v-149h-551v-512h408v-150h-408v-618h551zM944 -240v-129q-150 -6 -236.5 52.5t-86.5 154.5q0 101 116 162h176q-131 -55 -131 -143q0 -49 46.5 -76t115.5 -21z" />
    <glyph glyph-name="eogonek" unicode="&#x119;" 
d="M924 686v-135h-613v-35q0 -225 66 -303q68 -74 180 -74q145 0 231 148l144 -92q-135 -215 -385 -215q-180 0 -297 129q-115 130 -115 407v141q0 278 115 408q117 129 280 129q176 0 283 -119q111 -120 111 -389zM311 707h437q0 170 -59 248.5t-159 78.5q-99 0 -159 -79
t-60 -248zM704 -240v-129q-150 -6 -236.5 52.5t-86.5 154.5q0 100 117 162h176q-131 -55 -131 -143q0 -49 46.5 -76t114.5 -21z" />
    <glyph glyph-name="Ecaron" unicode="&#x11a;" 
d="M821 1950l-213 -264h-157l-213 264h153l139 -142l138 142h153zM924 150v-150h-727v1491h727v-152h-551v-471h407v-149h-407v-569h551z" />
    <glyph glyph-name="ecaron" unicode="&#x11b;" 
d="M924 686v-135h-613v-35q0 -225 66 -303q68 -74 180 -74q145 0 231 148l144 -92q-135 -215 -385 -215q-180 0 -297 129q-115 130 -115 407v141q0 278 115 408q117 129 280 129q176 0 283 -119q111 -120 111 -389zM311 707h437q0 170 -59 248.5t-159 78.5q-99 0 -159 -79
t-60 -248zM821 1579l-213 -264h-157l-213 264h153l139 -141l138 141h153z" />
    <glyph glyph-name="Gcircumflex" unicode="&#x11c;" 
d="M596 1950l213 -264h-154l-137 141l-139 -141h-154l213 264h158zM926 846v-367q0 -262 -113 -381q-112 -118 -283 -118t-280 118q-111 120 -111 381v533q0 250 107.5 373.5t294.5 123.5q242 0 368 -256l-143 -86q-80 183 -223 183q-115 0 -171.5 -75.5t-56.5 -262.5v-533
q0 -186 54.5 -263t160.5 -77q98 0 158 72q62 74 62 268v215h-189v152h365z" />
    <glyph glyph-name="gcircumflex" unicode="&#x11d;" 
d="M958 1171v-139h-59l-96 8q78 -96 78 -194q0 -138 -100 -227t-267 -89h-117q-84 -57 -84 -106q0 -102 144 -102h98q210 0 312 -89t102 -239q0 -163 -125 -264q-126 -105 -328 -105q-210 0 -323 96q-111 95 -111 234q0 181 180 272q-133 56 -133 170q0 115 141 197
q-145 100 -145 270q0 145 104 234.5t285 89.5q29 0 262 -17h182zM711 864q0 76 -53.5 127t-153.5 51q-101 0 -154 -49t-53 -131q0 -91 53 -138.5t152 -47.5q209 0 209 188zM788 -6q0 168 -233 168h-72q-221 0 -221 -195q0 -86 65.5 -134t176.5 -48q284 0 284 209zM608 1579
l213 -264h-153l-138 141l-139 -141h-153l213 264h157z" />
    <glyph glyph-name="Gbreve" unicode="&#x11e;" 
d="M809 1942v-175q-102 -147 -279 -147q-176 0 -278 147v175h31q100 -177 247 -177q145 0 248 177h31zM926 846v-367q0 -262 -113 -381q-112 -118 -283 -118t-280 118q-111 120 -111 381v533q0 250 107.5 373.5t294.5 123.5q242 0 368 -256l-143 -86q-80 183 -223 183
q-115 0 -171.5 -75.5t-56.5 -262.5v-533q0 -186 54.5 -263t160.5 -77q98 0 158 72q62 74 62 268v215h-189v152h365z" />
    <glyph glyph-name="gbreve" unicode="&#x11f;" 
d="M958 1171v-139h-59l-96 8q78 -96 78 -194q0 -138 -100 -227t-267 -89h-117q-84 -57 -84 -106q0 -102 144 -102h98q210 0 312 -89t102 -239q0 -163 -125 -264q-126 -105 -328 -105q-210 0 -323 96q-111 95 -111 234q0 181 180 272q-133 56 -133 170q0 115 141 197
q-145 100 -145 270q0 145 104 234.5t285 89.5q29 0 262 -17h182zM711 864q0 76 -53.5 127t-153.5 51q-101 0 -154 -49t-53 -131q0 -91 53 -138.5t152 -47.5q209 0 209 188zM788 -6q0 168 -233 168h-72q-221 0 -221 -195q0 -86 65.5 -134t176.5 -48q284 0 284 209zM809 1651
v-174q-103 -148 -279 -148q-175 0 -278 148v174h31q99 -176 247 -176q146 0 248 176h31z" />
    <glyph glyph-name="Gdotaccent" unicode="&#x120;" 
d="M666 1817q0 -57 -40.5 -96.5t-97.5 -39.5q-56 0 -95.5 39.5t-39.5 96.5q0 55 39.5 94t95.5 39q57 0 97.5 -39t40.5 -94zM926 846v-367q0 -262 -113 -381q-112 -118 -283 -118t-280 118q-111 120 -111 381v533q0 250 107.5 373.5t294.5 123.5q242 0 368 -256l-143 -86
q-80 183 -223 183q-115 0 -171.5 -75.5t-56.5 -262.5v-533q0 -186 54.5 -263t160.5 -77q98 0 158 72q62 74 62 268v215h-189v152h365z" />
    <glyph glyph-name="gdotaccent" unicode="&#x121;" 
d="M958 1171v-139h-59l-96 8q78 -96 78 -194q0 -138 -100 -227t-267 -89h-117q-84 -57 -84 -106q0 -102 144 -102h98q210 0 312 -89t102 -239q0 -163 -125 -264q-126 -105 -328 -105q-210 0 -323 96q-111 95 -111 234q0 181 180 272q-133 56 -133 170q0 115 141 197
q-145 100 -145 270q0 145 104 234.5t285 89.5q29 0 262 -17h182zM711 864q0 76 -53.5 127t-153.5 51q-101 0 -154 -49t-53 -131q0 -91 53 -138.5t152 -47.5q209 0 209 188zM788 -6q0 168 -233 168h-72q-221 0 -221 -195q0 -86 65.5 -134t176.5 -48q284 0 284 209zM653 1446
q0 -57 -40 -96t-97 -39q-56 0 -95.5 39t-39.5 96q0 55 39.5 94t95.5 39q57 0 97 -39t40 -94z" />
    <glyph glyph-name="Gcommaaccent" unicode="&#x122;" 
d="M926 846v-367q0 -262 -113 -381q-112 -118 -283 -118t-280 118q-111 120 -111 381v625q0 250 107.5 374t294.5 124q242 0 368 -256l-143 -86q-80 182 -223 182q-115 0 -171.5 -75.5t-56.5 -262.5v-625q0 -186 54.5 -263t160.5 -77q98 0 158 72q62 74 62 268v215h-189v152
h365zM629 -160q0 -83 -76 -205h-115q49 67 68 140q-35 1 -58.5 26.5t-23.5 61.5q0 38 25 63t73 25q47 0 77 -31.5t30 -79.5z" />
    <glyph glyph-name="gcommaaccent" unicode="&#x123;" 
d="M958 1171v-139h-59l-96 8q78 -96 78 -194q0 -138 -100 -227t-267 -89h-117q-84 -57 -84 -106q0 -102 144 -102h98q210 0 312 -89t102 -239q0 -163 -125 -264q-126 -105 -328 -105q-210 0 -323 96q-111 95 -111 234q0 181 180 272q-133 56 -133 170q0 115 141 197
q-145 100 -145 270q0 145 104 234.5t285 89.5q29 0 262 -17h182zM711 864q0 76 -53.5 127t-153.5 51q-101 0 -154 -49t-53 -131q0 -91 53 -138.5t152 -47.5q209 0 209 188zM788 -6q0 168 -233 168h-72q-221 0 -221 -195q0 -86 65.5 -134t176.5 -48q284 0 284 209zM600 1315
h-229l274 264h174z" />
    <glyph glyph-name="Hcircumflex" unicode="&#x124;" 
d="M608 1950l213 -264h-153l-138 141l-139 -141h-153l213 264h157zM909 1491v-1491h-176v745h-407v-745h-176v1491h176v-596h407v596h176z" />
    <glyph glyph-name="hcircumflex" unicode="&#x125;" 
d="M913 768v-768h-176v758q0 152 -44.5 214t-133.5 62q-171 0 -229 -241v-793h-176v1579h176v-547q113 162 272 162q133 0 221 -98q90 -96 90 -328zM588 1950l213 -264h-154l-137 141l-139 -141h-154l213 264h158z" />
    <glyph glyph-name="Hbar" unicode="&#x126;" 
d="M909 1198v-1198h-176v711h-407v-711h-176v1198h-105v131h105v250h176v-250h407v250h176v-250h105v-131h-105zM326 866h407v332h-407v-332z" />
    <glyph glyph-name="hbar" unicode="&#x127;" 
d="M604 1419v-131h-254v-321q106 151 254 151q131 0 221 -96t90 -324v-698h-176v698q0 263 -178 263q-140 0 -211 -160v-801h-176v1288h-139v131h139v160h176v-160h254z" />
    <glyph glyph-name="Itilde" unicode="&#x128;" 
d="M793 1942l102 -62q-80 -197 -238 -197q-71 0 -147 58q-77 59 -115 59q-63 0 -145 -110l-86 73q105 187 242 187q60 0 135 -60q77 -59 127 -59q64 0 125 111zM866 150v-150h-673v150h247v1189h-194v152h567v-152h-195v-1189h248z" />
    <glyph glyph-name="itilde" unicode="&#x129;" 
d="M879 158v-158h-678v158h250v858h-201v155h379v-1013h250zM744 1591l102 -61q-80 -197 -238 -197q-71 0 -147 58q-77 59 -115 59q-63 0 -145 -111l-86 74q104 186 242 186q61 0 135 -59q77 -59 127 -59q64 0 125 110z" />
    <glyph glyph-name="Imacron" unicode="&#x12a;" 
d="M815 1950v-133h-571v133h571zM866 150v-150h-673v150h247v1189h-194v152h567v-152h-195v-1189h248z" />
    <glyph glyph-name="imacron" unicode="&#x12b;" 
d="M879 158v-158h-678v158h250v858h-201v155h379v-1013h250zM745 1579v-133h-571v133h571z" />
    <glyph glyph-name="Ibreve" unicode="&#x12c;" 
d="M809 1942v-175q-102 -147 -279 -147q-176 0 -278 147v175h31q100 -177 247 -177q145 0 248 177h31zM866 150v-150h-673v150h247v1189h-194v152h567v-152h-195v-1189h248z" />
    <glyph glyph-name="ibreve" unicode="&#x12d;" 
d="M879 158v-158h-678v158h250v858h-201v155h379v-1013h250zM770 1651v-174q-103 -148 -279 -148q-175 0 -278 148v174h31q99 -176 247 -176q146 0 248 176h31z" />
    <glyph glyph-name="Iogonek" unicode="&#x12e;" 
d="M866 150v-150h-673v150h247v1280h-194v149h567v-149h-195v-1280h248zM649 -240v-129q-150 -6 -236.5 52.5t-86.5 154.5q0 100 117 162h176q-131 -55 -131 -143q0 -49 46.5 -76t114.5 -21z" />
    <glyph glyph-name="iogonek" unicode="&#x12f;" 
d="M633 1569q0 -56 -39 -95.5t-96 -39.5q-59 0 -97.5 39.5t-38.5 95.5q0 57 38.5 97t97.5 40q56 0 95.5 -40.5t39.5 -96.5zM899 150v-150h-739v150h280v872h-200v149h378v-1021h281zM649 -240v-129q-150 -6 -236.5 52.5t-86.5 154.5q0 101 116 162h176q-131 -55 -131 -143
q0 -49 46.5 -76t115.5 -21z" />
    <glyph glyph-name="Idotaccent" unicode="&#x130;" 
d="M666 1817q0 -57 -40.5 -96.5t-97.5 -39.5q-56 0 -95.5 39.5t-39.5 96.5q0 55 39.5 94t95.5 39q57 0 97.5 -39t40.5 -94zM866 150v-150h-673v150h247v1189h-194v152h567v-152h-195v-1189h248z" />
    <glyph glyph-name="dotlessi" unicode="&#x131;" 
d="M879 158v-158h-678v158h250v858h-201v155h379v-1013h250z" />
    <glyph glyph-name="IJ" unicode="&#x132;" 
d="M909 1579v-1106q0 -256 -110 -375q-109 -118 -269 -118q-161 0 -270 118q-110 119 -110 375v121h176v-121q0 -195 57 -264q58 -70 145 -70q88 0 146 70q59 71 59 264v1106h176zM326 1579v-815h-176v815h176z" />
    <glyph glyph-name="ij" unicode="&#x133;" 
d="M438 1569q0 -57 -39.5 -97t-99.5 -40q-59 0 -97 40t-38 97t38 97t97 40q60 0 99.5 -40t39.5 -97zM389 1171v-1171h-176v1171h176zM672 -20v1191h178v-1179q0 -174 -90.5 -270.5t-231.5 -96.5q-191 0 -305 150l131 92q59 -86 162 -86q156 0 156 199zM897 1569
q0 -57 -39 -97t-98 -40t-98 40t-39 97t39 97t98 40t98 -40t39 -97z" />
    <glyph glyph-name="Jcircumflex" unicode="&#x134;" 
d="M678 1950l213 -264h-154l-137 141l-139 -141h-154l213 264h158zM872 1491v-1016q0 -257 -108 -377q-106 -118 -266 -118q-150 0 -262 118q-113 119 -113 377v232h176v-234q0 -177 54.5 -255.5t144.5 -78.5q96 0 147 77t51 257v1018h176z" />
    <glyph glyph-name="jcircumflex" unicode="&#x135;" 
d="M608 1579l213 -264h-153l-138 141l-139 -141h-153l213 264h157zM547 -20v1036h-277v155h453v-1179q0 -174 -90.5 -270.5t-231.5 -96.5q-206 0 -329 185l135 96q61 -125 184 -125q156 0 156 199z" />
    <glyph glyph-name="Kcommaaccent" unicode="&#x136;" 
d="M242 1579h176v-754l266 394q133 196 145 305l9 55h176l-10 -76q-15 -128 -185 -377l-164 -241l236 -398q145 -245 160 -417l10 -70h-176l-6 55q-22 169 -127 346l-211 357l-123 -185v-573h-176v1579zM739 -160q0 -84 -75 -205h-115q48 65 67 140q-35 1 -58 26.5t-23 61.5
q0 38 25 63t73 25q47 0 76.5 -31.5t29.5 -79.5z" />
    <glyph glyph-name="kcommaaccent" unicode="&#x137;" 
d="M993 41l4 -41h-176q-9 132 -127 301l-176 252l-131 -162v-391h-176v1579h176v-971l260 320q130 160 133 243h176l-2 -36q-6 -95 -176 -301l-141 -172l182 -265q168 -241 174 -356zM700 -160q0 -84 -75 -205h-115q49 67 68 140q-35 1 -58.5 26.5t-23.5 61.5q0 38 25 63
t73 25q47 0 76.5 -31.5t29.5 -79.5z" />
    <glyph glyph-name="kgreenlandic" unicode="&#x138;" 
d="M967 41l4 -41h-176q-9 132 -127 301l-176 252l-132 -162v-391h-176v1171h176v-563l261 320q130 160 133 243h176l-2 -36q-6 -95 -176 -301l-142 -172l183 -265q168 -241 174 -356z" />
    <glyph glyph-name="Lacute" unicode="&#x139;" 
d="M451 1950h219l-236 -244h-164zM971 150v-150h-719v1491h176v-1341h543z" />
    <glyph glyph-name="lacute" unicode="&#x13a;" 
d="M649 1950h219l-235 -244h-164zM899 150v-150h-739v150h282v1189h-200v152h376v-1341h281z" />
    <glyph glyph-name="Lcommaaccent" unicode="&#x13b;" 
d="M938 150v-150h-719v1579h176v-1429h543zM639 -160q0 -83 -76 -205h-114q48 65 67 140q-35 1 -58.5 26.5t-23.5 61.5q0 38 25 63t73 25q47 0 77 -31.5t30 -79.5z" />
    <glyph glyph-name="lcommaaccent" unicode="&#x13c;" 
d="M909 150v-150h-739v150h283v1280h-201v149h377v-1429h280zM608 -160q0 -83 -76 -205h-114q48 65 67 140q-35 1 -58.5 26.5t-23.5 61.5q0 38 25.5 63t73.5 25q47 0 76.5 -31.5t29.5 -79.5z" />
    <glyph glyph-name="Lcaron" unicode="&#x13d;" 
d="M938 150v-150h-719v1579h176v-1429h543zM686 1579h170l-70 -365h-145z" />
    <glyph glyph-name="lcaron" unicode="&#x13e;" 
d="M834 1579h170l-70 -365h-146zM909 150v-150h-739v150h283v1280h-201v149h377v-1429h280z" />
    <glyph glyph-name="Ldot" unicode="&#x13f;" 
d="M938 150v-150h-719v1579h176v-1429h543zM819 668q0 -57 -40 -96.5t-97 -39.5q-56 0 -95.5 39.5t-39.5 96.5q0 55 39.5 94t95.5 39q57 0 97 -39t40 -94z" />
    <glyph glyph-name="ldot" unicode="&#x140;" 
d="M850 150v-150h-739v150h282v1280h-200v149h376v-1429h281zM948 668q0 -57 -40 -96.5t-97 -39.5q-56 0 -95.5 39.5t-39.5 96.5q0 55 39.5 94t95.5 39q57 0 97 -39t40 -94z" />
    <glyph glyph-name="Lslash" unicode="&#x141;" 
d="M983 158v-158h-649v711l-146 -121l-112 117l258 211v661h176v-518l172 139l111 -117l-283 -229v-696h473z" />
    <glyph glyph-name="lslash" unicode="&#x142;" 
d="M793 1200l110 -117l-274 -223v-702h252v-158h-680v158h252v557l-154 -125l-111 117l265 215v501h-213v156h389v-512z" />
    <glyph glyph-name="Nacute" unicode="&#x143;" 
d="M659 1950h220l-236 -244h-164zM909 1491v-1491h-161l-15 387l-446 856l39 -807v-436h-176v1491h176l448 -856l-41 807v49h176z" />
    <glyph glyph-name="nacute" unicode="&#x144;" 
d="M913 770v-770h-176v760q0 146 -44.5 208t-133.5 62q-171 0 -229 -237v-793h-176v1171h176v-149q114 172 272 172q133 0 221 -98q90 -96 90 -326zM711 1579h219l-236 -244h-164z" />
    <glyph glyph-name="Ncommaaccent" unicode="&#x145;" 
d="M913 1579v-1579h-163l-13 477l-446 856q39 -461 39 -807v-526h-176v1579h176l448 -854q-41 481 -41 807v47h176zM629 -160q0 -83 -76 -205h-115q49 67 68 140q-35 1 -58.5 26.5t-23.5 61.5q0 38 25 63t73 25q47 0 77 -31.5t30 -79.5z" />
    <glyph glyph-name="ncommaaccent" unicode="&#x146;" 
d="M913 770v-770h-176v760q0 146 -44.5 208t-133.5 62q-171 0 -229 -237v-793h-176v1171h176v-149q114 172 272 172q133 0 221 -98q90 -96 90 -326zM629 -160q0 -83 -76 -205h-115q49 67 68 140q-35 1 -58.5 26.5t-23.5 61.5q0 38 25 63t73 25q47 0 77 -31.5t30 -79.5z" />
    <glyph glyph-name="Ncaron" unicode="&#x147;" 
d="M821 1950l-213 -264h-157l-213 264h153l139 -142l138 142h153zM909 1491v-1491h-161l-15 387l-446 856l39 -807v-436h-176v1491h176l448 -856l-41 807v49h176z" />
    <glyph glyph-name="ncaron" unicode="&#x148;" 
d="M913 770v-770h-176v760q0 146 -44.5 208t-133.5 62q-171 0 -229 -237v-793h-176v1171h176v-149q114 172 272 172q133 0 221 -98q90 -96 90 -326zM813 1579l-213 -264h-158l-213 264h154l139 -141l137 141h154z" />
    <glyph glyph-name="napostrophe" unicode="&#x149;" 
d="M915 791v-791h-176v791q0 239 -147 239q-118 0 -191 -131v-899h-176v1171h176v-135q92 154 234 154q127 0 203.5 -101t76.5 -298zM129 1579h168l-68 -256h-143z" />
    <glyph glyph-name="Eng" unicode="&#x14a;" 
d="M909 1579v-1507q0 -254 -84 -344t-229 -90h-94v155h71q160 0 160 223v461l-446 856l39 -807v-526h-176v1579h176l448 -854l-41 807v47h176z" />
    <glyph glyph-name="eng" unicode="&#x14b;" 
d="M733 16v744q0 145 -44.5 207.5t-127.5 62.5q-177 0 -235 -237v-793h-176v1171h176v-149q114 170 272 170q132 3 221 -96q90 -96 90 -326v-698q0 -256 -84 -346q-85 -91 -229 -91h-94v156h71q160 0 160 225z" />
    <glyph glyph-name="Omacron" unicode="&#x14c;" 
d="M815 1870v-133h-571v133h571zM141 479v533q0 249 105 373t284 124t283.5 -124t104.5 -373v-533q0 -250 -104.5 -374.5t-283.5 -124.5q-180 2 -284.5 125.5t-104.5 373.5zM319 1012v-533q0 -186 52.5 -263t156.5 -77q106 0 159.5 77t53.5 263v533q0 184 -54 261t-159 77
q-69 0 -113 -29.5t-70 -105.5t-26 -203z" />
    <glyph glyph-name="omacron" unicode="&#x14d;" 
d="M926 668v-160q0 -261 -107.5 -394.5t-288.5 -133.5t-288 133.5t-107 394.5v160q0 260 107.5 393t287.5 133q181 0 288.5 -133.5t107.5 -392.5zM750 508v160q0 206 -62 286t-158 80q-95 0 -157 -80t-62 -286v-160q0 -209 62 -289t157 -80q96 0 158 80t62 289zM815 1579
v-133h-571v133h571z" />
    <glyph glyph-name="Obreve" unicode="&#x14e;" 
d="M809 1942v-175q-102 -147 -279 -147q-176 0 -278 147v175h31q100 -177 247 -177q145 0 248 177h31zM141 479v533q0 249 105 373t284 124t283.5 -124t104.5 -373v-533q0 -250 -104.5 -374.5t-283.5 -124.5q-180 2 -284.5 125.5t-104.5 373.5zM319 1012v-533
q0 -186 52.5 -263t156.5 -77q106 0 159.5 77t53.5 263v533q0 184 -54 261t-159 77q-69 0 -113 -29.5t-70 -105.5t-26 -203z" />
    <glyph glyph-name="obreve" unicode="&#x14f;" 
d="M926 668v-160q0 -261 -107.5 -394.5t-288.5 -133.5t-288 133.5t-107 394.5v160q0 260 107.5 393t287.5 133q181 0 288.5 -133.5t107.5 -392.5zM750 508v160q0 206 -62 286t-158 80q-95 0 -157 -80t-62 -286v-160q0 -209 62 -289t157 -80q96 0 158 80t62 289zM809 1651
v-174q-103 -148 -279 -148q-175 0 -278 148v174h31q99 -176 247 -176q146 0 248 176h31z" />
    <glyph glyph-name="Ohungarumlaut" unicode="&#x150;" 
d="M805 1950h211l-236 -264h-164zM453 1950h211l-236 -264h-166zM141 479v533q0 249 105 373t284 124t283.5 -124t104.5 -373v-533q0 -250 -104.5 -374.5t-283.5 -124.5q-180 2 -284.5 125.5t-104.5 373.5zM319 1012v-533q0 -186 52.5 -263t156.5 -77q106 0 159.5 77
t53.5 263v533q0 184 -54 261t-159 77q-69 0 -113 -29.5t-70 -105.5t-26 -203z" />
    <glyph glyph-name="ohungarumlaut" unicode="&#x151;" 
d="M926 668v-160q0 -261 -107.5 -394.5t-288.5 -133.5t-288 133.5t-107 394.5v160q0 260 107.5 393t287.5 133q181 0 288.5 -133.5t107.5 -392.5zM750 508v160q0 206 -62 286t-158 80q-95 0 -157 -80t-62 -286v-160q0 -209 62 -289t157 -80q96 0 158 80t62 289zM795 1579
h211l-236 -264h-164zM442 1579h211l-235 -264h-166z" />
    <glyph glyph-name="OE" unicode="&#x152;" 
d="M1010 158v-158h-504q-406 0 -406 440v701q0 438 406 438h504v-156h-301v-518h260v-157h-260v-590h301zM471 158h61v1265h-63q-92 0 -141 -64.5t-49 -215.5v-705q0 -151 50 -215.5t142 -64.5z" />
    <glyph glyph-name="oe" unicode="&#x153;" 
d="M1020 768v-231h-406v-162q0 -246 136 -246q81 0 139 113l119 -68q-83 -194 -258 -194q-145 0 -215 137q-70 -137 -224 -137q-120 0 -196 94t-76 332v362q0 222 73 324t199 102q154 0 224 -131q70 131 215 131q126 0 198 -102t72 -324zM612 657h242v140q0 245 -121 245
t-121 -245v-140zM446 375v422q0 245 -120 245q-119 0 -119 -245v-422q0 -246 119 -246q120 0 120 246z" />
    <glyph glyph-name="Racute" unicode="&#x154;" 
d="M621 1950h219l-236 -244h-164zM575 647l-24 43h-184v-690h-177v1491h345q210 0 313 -115q102 -114 102 -276q0 -146 -62.5 -242t-164.5 -135l16 -29q198 -274 219 -624l5 -70h-177l-4 55q-18 329 -207 592zM367 1339v-499h168q121 0 177 62.5t56 199.5q0 237 -233 237
h-168z" />
    <glyph glyph-name="racute" unicode="&#x155;" 
d="M1004 975l-152 -70q-52 129 -176 129q-258 0 -258 -481v-553h-176v1171h176v-188q105 211 287 211q210 0 299 -219zM700 1579h220l-236 -244h-164z" />
    <glyph glyph-name="Rcommaaccent" unicode="&#x156;" 
d="M563 678l-24 43h-185v-721h-176v1579h344q206 0 311 -111.5t105 -308.5q0 -156 -63 -262t-164 -143l16 -29q198 -305 219 -655l4 -70h-176l-4 55q-18 328 -207 623zM354 1430v-560h168q121 0 177.5 71t56.5 220q0 145 -55.5 207t-178.5 62h-168zM659 -160q0 -84 -75 -205
h-115q49 67 68 140q-35 1 -58.5 26.5t-23.5 61.5q0 38 25 63t73 25q47 0 76.5 -31.5t29.5 -79.5z" />
    <glyph glyph-name="rcommaaccent" unicode="&#x157;" 
d="M1004 975l-152 -70q-52 129 -176 129q-258 0 -258 -481v-553h-176v1171h176v-188q105 211 287 211q210 0 299 -219zM434 -160q0 -83 -76 -205h-114q48 65 67 140q-35 1 -58.5 26.5t-23.5 61.5q0 38 25.5 63t73.5 25q47 0 76.5 -31.5t29.5 -79.5z" />
    <glyph glyph-name="Rcaron" unicode="&#x158;" 
d="M791 1950l-213 -264h-158l-213 264h153l140 -142l137 142h154zM575 647l-24 43h-184v-690h-177v1491h345q210 0 313 -115q102 -114 102 -276q0 -146 -62.5 -242t-164.5 -135l16 -29q198 -274 219 -624l5 -70h-177l-4 55q-18 329 -207 592zM367 1339v-499h168
q121 0 177 62.5t56 199.5q0 237 -233 237h-168z" />
    <glyph glyph-name="rcaron" unicode="&#x159;" 
d="M1004 975l-152 -70q-52 129 -176 129q-258 0 -258 -481v-553h-176v1171h176v-188q105 211 287 211q210 0 299 -219zM821 1579l-213 -264h-157l-213 264h153l139 -141l138 141h153z" />
    <glyph glyph-name="Sacute" unicode="&#x15a;" 
d="M680 1950h219l-235 -244h-164zM948 369q0 -163 -106 -275q-108 -114 -295 -114q-299 0 -436 260l129 100q103 -201 305 -201q98 0 162.5 61t64.5 169q0 99 -135 204l-293 226q-170 132 -170 331q0 161 105 269q104 110 286 110q238 0 385 -215l-135 -106
q-88 162 -248 162q-97 0 -156 -56t-59 -164q0 -105 115 -194l293 -225q188 -147 188 -342z" />
    <glyph glyph-name="sacute" unicode="&#x15b;" 
d="M545 135q105 0 164 51t59 129q0 102 -127 158l-225 105q-209 102 -209 282q0 146 102 240q104 94 266 94q237 0 363 -217l-145 -86q-65 145 -218 145q-89 0 -140.5 -44t-51.5 -113q0 -91 117 -146l213 -98q231 -108 231 -330q0 -128 -108 -227q-107 -98 -293 -98
q-263 0 -406 239l146 88q85 -172 262 -172zM700 1579h220l-236 -244h-164z" />
    <glyph glyph-name="Scircumflex" unicode="&#x15c;" 
d="M639 1950l213 -264h-154l-137 141l-139 -141h-154l213 264h158zM948 369q0 -163 -106 -275q-108 -114 -295 -114q-299 0 -436 260l129 100q103 -201 305 -201q98 0 162.5 61t64.5 169q0 99 -135 204l-293 226q-170 132 -170 331q0 161 105 269q104 110 286 110
q238 0 385 -215l-135 -106q-88 162 -248 162q-97 0 -156 -56t-59 -164q0 -105 115 -194l293 -225q188 -147 188 -342z" />
    <glyph glyph-name="scircumflex" unicode="&#x15d;" 
d="M545 135q105 0 164 51t59 129q0 102 -127 158l-225 105q-209 102 -209 282q0 146 102 240q104 94 266 94q237 0 363 -217l-145 -86q-65 145 -218 145q-89 0 -140.5 -44t-51.5 -113q0 -91 117 -146l213 -98q231 -108 231 -330q0 -128 -108 -227q-107 -98 -293 -98
q-263 0 -406 239l146 88q85 -172 262 -172zM651 1579l213 -264h-153l-138 141l-139 -141h-153l213 264h157z" />
    <glyph glyph-name="Scedilla" unicode="&#x15e;" 
d="M946 369q0 -163 -106 -275q-108 -114 -295 -114q-299 0 -436 260l129 100q103 -201 305 -201q98 0 162.5 61t64.5 169q0 92 -117 200l-338 318q-143 131 -143 336q0 161 104 268q105 111 287 111q237 0 385 -216l-135 -106q-88 162 -248 162q-97 0 -156 -55.5t-59 -163.5
q0 -117 92 -203l338 -315q166 -156 166 -336zM362 -375v121q175 -15 175 57q0 60 -101 54l47 94q213 -9 213 -146q0 -85 -67 -131q-67 -49 -267 -49z" />
    <glyph glyph-name="scedilla" unicode="&#x15f;" 
d="M545 135q105 0 164 51t59 129q0 102 -127 158l-225 105q-209 102 -209 282q0 146 102 240q104 94 266 94q237 0 363 -217l-145 -86q-65 145 -218 145q-89 0 -140.5 -44t-51.5 -113q0 -91 117 -146l213 -98q231 -108 231 -330q0 -128 -108 -227q-107 -98 -293 -98
q-263 0 -406 239l146 88q85 -172 262 -172zM373 -375v121q174 -15 174 57q0 60 -101 54l48 94q213 -9 213 -146q0 -84 -68 -131q-67 -49 -266 -49z" />
    <glyph glyph-name="Scaron" unicode="&#x160;" 
d="M846 1950l-213 -264h-158l-213 264h154l139 -142l137 142h154zM948 369q0 -163 -106 -275q-108 -114 -295 -114q-299 0 -436 260l129 100q103 -201 305 -201q98 0 162.5 61t64.5 169q0 99 -135 204l-293 226q-170 132 -170 331q0 161 105 269q104 110 286 110
q238 0 385 -215l-135 -106q-88 162 -248 162q-97 0 -156 -56t-59 -164q0 -105 115 -194l293 -225q188 -147 188 -342z" />
    <glyph glyph-name="scaron" unicode="&#x161;" 
d="M535 135q105 0 164 51t59 129q0 102 -127 158l-225 105q-209 102 -209 282q0 146 102 240q104 94 266 94q237 0 363 -217l-146 -86q-65 145 -217 145q-89 0 -140.5 -44t-51.5 -113q0 -91 116 -146l213 -98q232 -108 232 -330q0 -127 -109 -227q-107 -98 -293 -98
q-262 0 -405 239l145 88q85 -172 263 -172zM860 1579l-213 -264h-157l-213 264h153l139 -141l138 141h153z" />
    <glyph glyph-name="Tcommaaccent" unicode="&#x162;" 
d="M942 1579v-149h-324v-1430h-176v1430h-325v149h825zM629 -160q0 -83 -76 -205h-115q49 67 68 140q-35 1 -58.5 26.5t-23.5 61.5q0 38 25 63t73 25q47 0 77 -31.5t30 -79.5z" />
    <glyph glyph-name="tcommaaccent" unicode="&#x163;" 
d="M844 260l133 -96q-126 -184 -330 -184q-142 0 -231.5 96t-89.5 270v676h-199v149h199v408h176v-408h395v-149h-395v-686q0 -96 40.5 -146.5t114.5 -50.5q122 0 187 121zM739 -160q0 -84 -75 -205h-115q48 65 67 140q-35 1 -58 26.5t-23 61.5q0 38 25 63t73 25
q47 0 76.5 -31.5t29.5 -79.5z" />
    <glyph glyph-name="Tcaron" unicode="&#x164;" 
d="M821 1950l-213 -264h-157l-213 264h153l139 -142l138 142h153zM942 1491v-152h-324v-1339h-176v1339h-325v152h825z" />
    <glyph glyph-name="tcaron" unicode="&#x165;" 
d="M842 260l133 -96q-123 -184 -330 -184q-141 0 -231 96t-90 270v670h-197v155h197v408h178v-408h264v-155h-264v-680q0 -201 153 -201q123 0 187 125zM874 1579h170l-67 -365h-146z" />
    <glyph glyph-name="Tbar" unicode="&#x166;" 
d="M942 1579v-156h-324v-497h295v-138h-295v-788h-178v788h-295v138h295v497h-323v156h825z" />
    <glyph glyph-name="tbar" unicode="&#x167;" 
d="M848 260l133 -96q-126 -184 -330 -184q-142 0 -231.5 96t-89.5 270v287h-199v129h199v260h-199v149h199v408h176v-408h395v-149h-395v-260h395v-129h-395v-297q0 -96 41 -146.5t115 -50.5q121 0 186 121z" />
    <glyph glyph-name="Utilde" unicode="&#x168;" 
d="M793 1942l102 -62q-80 -197 -238 -197q-71 0 -147 58q-77 59 -115 59q-63 0 -145 -110l-86 73q105 187 242 187q60 0 135 -60q77 -59 127 -59q64 0 125 111zM909 1491v-1018q0 -256 -110 -375q-109 -118 -269 -118q-161 0 -270 118q-110 119 -110 375v1018h176v-1018
q0 -195 57 -264q58 -70 145 -70q88 0 146 70q59 71 59 264v1018h176z" />
    <glyph glyph-name="utilde" unicode="&#x169;" 
d="M909 1171v-1171h-176v152q-114 -172 -272 -172q-133 0 -221 98q-90 101 -90 354v739h176v-739q0 -163 45 -228t133 -65q174 0 229 230v802h176zM793 1591l102 -61q-80 -197 -238 -197q-71 0 -147 58q-77 59 -115 59q-63 0 -145 -111l-86 74q104 186 242 186q61 0 135 -59
q77 -59 127 -59q64 0 125 110z" />
    <glyph glyph-name="Umacron" unicode="&#x16a;" 
d="M815 1870v-133h-571v133h571zM909 1491v-1018q0 -256 -110 -375q-109 -118 -269 -118q-161 0 -270 118q-110 119 -110 375v1018h176v-1018q0 -195 57 -264q58 -70 145 -70q88 0 146 70q59 71 59 264v1018h176z" />
    <glyph glyph-name="umacron" unicode="&#x16b;" 
d="M909 1171v-1171h-176v152q-114 -172 -272 -172q-133 0 -221 98q-90 101 -90 354v739h176v-739q0 -163 45 -228t133 -65q174 0 229 230v802h176zM815 1579v-133h-571v133h571z" />
    <glyph glyph-name="Ubreve" unicode="&#x16c;" 
d="M809 1942v-175q-102 -147 -279 -147q-176 0 -278 147v175h31q100 -177 247 -177q145 0 248 177h31zM909 1491v-1018q0 -256 -110 -375q-109 -118 -269 -118q-161 0 -270 118q-110 119 -110 375v1018h176v-1018q0 -195 57 -264q58 -70 145 -70q88 0 146 70q59 71 59 264
v1018h176z" />
    <glyph glyph-name="ubreve" unicode="&#x16d;" 
d="M909 1171v-1171h-176v152q-114 -172 -272 -172q-133 0 -221 98q-90 101 -90 354v739h176v-739q0 -163 45 -228t133 -65q174 0 229 230v802h176zM809 1651v-174q-103 -148 -279 -148q-175 0 -278 148v174h31q99 -176 247 -176q146 0 248 176h31z" />
    <glyph glyph-name="Uring" unicode="&#x16e;" 
d="M752 1769q0 -79 -55.5 -129.5t-166.5 -50.5t-166 50.5t-55 129.5q0 80 55 130.5t166 50.5t166.5 -50.5t55.5 -130.5zM627 1769q0 68 -97 68q-98 0 -98 -68q0 -65 98 -65q97 0 97 65zM909 1491v-1018q0 -256 -110 -375q-109 -118 -269 -118q-161 0 -270 118
q-110 119 -110 375v1018h176v-1018q0 -195 57 -264q58 -70 145 -70q88 0 146 70q59 71 59 264v1018h176z" />
    <glyph glyph-name="uring" unicode="&#x16f;" 
d="M909 1171v-1171h-176v152q-114 -172 -272 -172q-133 0 -221 98q-90 101 -90 354v739h176v-739q0 -163 45 -228t133 -65q174 0 229 230v802h176zM752 1419q0 -79 -55.5 -129.5t-166.5 -50.5t-166 50.5t-55 129.5q0 80 55 130t166 50t166.5 -50t55.5 -130zM627 1419
q0 68 -97 68q-98 0 -98 -68q0 -65 98 -65q97 0 97 65z" />
    <glyph glyph-name="Uhungarumlaut" unicode="&#x170;" 
d="M846 1950h211l-236 -264h-164zM494 1950h211l-236 -264h-166zM909 1491v-1018q0 -256 -110 -375q-109 -118 -269 -118q-161 0 -270 118q-110 119 -110 375v1018h176v-1018q0 -195 57 -264q58 -70 145 -70q88 0 146 70q59 71 59 264v1018h176z" />
    </font>
</defs>
</svg>
